<svg width="305" height="230" viewBox="0 0 305 230" fill="none" xmlns="http://www.w3.org/2000/svg">
<path opacity="0.19" d="M50.7677 35.1859C50.7677 35.1859 24.2174 46.6859 34.2748 86.5066C44.3322 126.327 82.6097 102.852 95.8772 131.74C109.145 160.628 117.441 203.523 211.434 190.773C305.427 178.024 290.414 80.4422 270.711 60.7466C251.008 41.0509 239.334 17.1002 189.222 23.5249C139.111 29.9496 102.618 -24.3534 50.7677 35.1859Z" fill="#E6E6E6"/>
<path d="M187.575 79.2273C187.575 79.2273 192.524 69.2147 206.226 69.2607C219.928 69.3067 247.18 79.7333 259.387 95.68C270.573 110.247 262.308 158.324 219.539 180.144C215.986 181.942 212.032 182.79 208.059 182.605C204.085 182.419 200.227 181.207 196.855 179.086L179.249 168.046L187.575 79.2273Z" fill="#FFD200"/>
<path d="M192.699 176.034L154.178 175.199C140.749 174.899 127.728 179.845 117.852 188.999L113.361 193.2L106.369 187.711L108.344 183.877C113.675 173.454 121.764 164.712 131.719 158.616C141.675 152.519 153.112 149.303 164.769 149.324L192.699 176.034Z" fill="#D3D7ED"/>
<path opacity="0.08" d="M192.699 176.034L154.178 175.199C140.749 174.899 127.728 179.845 117.852 188.999L113.361 193.2L106.369 187.711L108.344 183.877C113.675 173.454 121.764 164.712 131.719 158.616C141.675 152.519 153.112 149.303 164.769 149.324L192.699 176.034Z" fill="black"/>
<path d="M196.519 82.386C196.519 82.386 176.107 71.254 154.94 84.686C133.773 98.118 110.562 106.697 91.5 85.2687L86.376 93.656C86.376 93.656 120.109 138.391 168.307 106.919L196.519 82.386Z" fill="#D3D7ED"/>
<path opacity="0.46" d="M196.519 82.386C196.519 82.386 176.107 71.254 154.94 84.686C133.773 98.118 110.562 106.697 91.5 85.2687L86.376 93.656C86.376 93.656 120.109 138.391 168.307 106.919L196.519 82.386Z" fill="white"/>
<path d="M223.123 91.8313C232.842 91.8313 240.721 83.9092 240.721 74.1367C240.721 64.3642 232.842 56.442 223.123 56.442C213.403 56.442 205.524 64.3642 205.524 74.1367C205.524 83.9092 213.403 91.8313 223.123 91.8313Z" fill="#E6E6E6"/>
<path d="M206.325 79.4037L232.57 89.0714L228.14 95.933L204.51 85.9127L206.325 79.4037Z" fill="#24285B"/>
<path d="M204.51 85.9127C204.51 85.9127 176.359 70.3263 166.431 87.2467C156.503 104.167 164.41 153.579 164.41 153.579L202.337 168.828C202.337 168.828 254.82 143.528 255.598 116.694C256.375 89.861 228.826 95.2583 204.51 85.9127Z" fill="#D3D7ED"/>
<path d="M217.747 160.187C217.747 160.187 197.533 132.587 162.016 131.989L161.444 138.192C161.444 138.192 190.465 148.687 202.337 168.858L217.747 160.187Z" fill="#FFD200"/>
<path d="M202.337 168.828C202.337 168.828 181.246 135.317 155.55 136.528C129.854 137.739 142.755 186.246 142.755 186.246L156.221 184.874C156.221 184.874 153.057 171.419 156.068 163.461C156.491 162.377 157.202 161.432 158.124 160.728C159.047 160.025 160.144 159.591 161.296 159.475C162.448 159.358 163.609 159.563 164.652 160.068C165.696 160.572 166.58 161.357 167.209 162.334C172.996 171.151 187.224 188.002 202.337 168.828Z" fill="#D3D7ED"/>
<path opacity="0.08" d="M233.325 101.568C233.325 101.568 219.875 108.867 222.246 124.016C224.617 139.165 215.505 139.533 204.983 134.627C194.46 129.72 181.826 122.069 181.826 122.069C181.826 122.069 174.529 134.029 183.29 136.497C192.051 138.966 178.715 144.11 178.715 144.11C178.715 144.11 195.94 155.61 202.352 168.828C202.352 168.828 221.705 158.301 225.357 154.698C229.009 151.095 244.854 140.768 244.854 140.768L233.325 101.568Z" fill="black"/>
<path d="M138.714 179.078L154.978 176.64L158.47 191.138C158.817 192.561 158.598 194.064 157.86 195.328C157.123 196.591 155.925 197.517 154.521 197.907L141.497 201.564C141.152 201.659 140.786 201.638 140.455 201.502C140.124 201.367 139.847 201.125 139.666 200.815C139.485 200.505 139.411 200.144 139.456 199.787C139.5 199.43 139.66 199.099 139.911 198.843L141.329 197.409C142.392 196.329 143.111 194.956 143.397 193.464C143.682 191.972 143.519 190.428 142.931 189.029L138.714 179.078Z" fill="#24285B"/>
<path d="M111.325 174.999L123.921 185.978L114.131 197.8C113.534 198.791 112.578 199.51 111.465 199.806C110.351 200.102 109.166 199.952 108.161 199.387L95.6556 192.357C95.2701 192.142 94.9622 191.81 94.7762 191.409C94.5901 191.008 94.5356 190.557 94.6203 190.122C94.7051 189.688 94.9248 189.291 95.2478 188.99C95.5709 188.689 95.9806 188.499 96.4181 188.447L104.501 187.542L111.325 174.999Z" fill="#24285B"/>
<path d="M92.6208 101.622L100.353 109.158L109.594 97.1213L95.9148 87.0243C94.308 85.8347 92.889 84.4079 91.7058 82.7923C88.999 79.1123 83.3793 72.3963 79.0178 73.3623C75.396 74.129 78.0037 77.5483 80.6115 80.0783C81.3372 80.7836 81.7552 81.7494 81.7737 82.7641C81.7923 83.7787 81.41 84.7593 80.7106 85.491C78.7052 87.5533 78.3468 90.39 82.7693 93.5257C86.2556 95.9653 89.5492 98.672 92.6208 101.622Z" fill="#24285B"/>
<path d="M229.192 114.632C226.371 101.875 241.087 92.9813 251.145 101.269C255.488 104.768 258.544 109.625 259.83 115.069C264.092 132.856 268.354 150.642 245.601 157.036C222.848 163.43 191.959 131.215 191.959 131.215L199.958 124.2C199.958 124.2 220.362 144.049 234.27 138.912C243.527 135.462 231.876 126.73 229.192 114.632Z" fill="#D3D7ED"/>
<path opacity="0.46" d="M229.192 114.632C226.371 101.875 241.087 92.9813 251.145 101.269C255.488 104.768 258.544 109.625 259.829 115.069C264.092 132.856 268.354 150.642 245.601 157.036C222.848 163.43 192.63 130.885 192.63 130.885L199.958 124.208C199.958 124.208 220.362 144.057 234.27 138.92C243.527 135.462 231.876 126.73 229.192 114.632Z" fill="white"/>
<path d="M191.959 131.184L209.138 148.12L217.579 135.409L200.583 122.521C200.583 122.521 192.158 112.232 185.577 116.802C178.997 121.371 180.751 129.061 191.959 131.184Z" fill="#24285B"/>
<path opacity="0.59" d="M218.243 73.8453C221.81 73.8453 224.701 70.938 224.701 67.3516C224.701 63.7653 221.81 60.858 218.243 60.858C214.676 60.858 211.784 63.7653 211.784 67.3516C211.784 70.938 214.676 73.8453 218.243 73.8453Z" fill="white"/>
<path d="M181.978 102.289C186.215 102.289 189.649 98.8356 189.649 94.576C189.649 90.3164 186.215 86.8633 181.978 86.8633C177.742 86.8633 174.307 90.3164 174.307 94.576C174.307 98.8356 177.742 102.289 181.978 102.289Z" fill="#24285B"/>
<path opacity="0.29" d="M181.978 98.4707C184.118 98.4707 185.852 96.727 185.852 94.576C185.852 92.425 184.118 90.6813 181.978 90.6813C179.839 90.6813 178.105 92.425 178.105 94.576C178.105 96.727 179.839 98.4707 181.978 98.4707Z" fill="white"/>
<path d="M68.7775 66.7766C82.148 66.7766 92.9869 55.8785 92.9869 42.435C92.9869 28.9915 82.148 18.0933 68.7775 18.0933C55.407 18.0933 44.5681 28.9915 44.5681 42.435C44.5681 55.8785 55.407 66.7766 68.7775 66.7766Z" fill="#FFD200"/>
<path d="M44.6443 40.6333C44.6443 40.6333 30.5533 45.3407 32.5663 55.085C34.5793 64.8293 81.3663 58.1517 96.8756 51.106C112.385 44.0603 111.081 35.1133 91.2788 33.258C91.2788 33.258 95.4955 41.7987 83.2573 44.8883C68.8537 48.5223 42.7533 55.5297 44.6443 40.6333Z" fill="#FFD200"/>
<path opacity="0.46" d="M44.6443 40.6333C44.6443 40.6333 30.5533 45.3407 32.5663 55.085C34.5793 64.8293 81.3663 58.1517 96.8756 51.106C112.385 44.0603 111.081 35.1133 91.2788 33.258C91.2788 33.258 95.4955 41.7987 83.2573 44.8883C68.8537 48.5223 42.7533 55.5297 44.6443 40.6333Z" fill="white"/>
<path opacity="0.08" d="M60.5009 31.0979C63.3013 30.2087 65.0287 27.7596 64.3591 25.6277C63.6895 23.4958 60.8765 22.4884 58.0761 23.3775C55.2757 24.2667 53.5483 26.7158 54.2179 28.8477C54.8874 30.9796 57.7004 31.9871 60.5009 31.0979Z" fill="black"/>
<path opacity="0.08" d="M74.9853 25.8928C75.4812 24.4076 74.304 22.6705 72.3558 22.0128C70.4076 21.3551 68.4263 22.0259 67.9303 23.5111C67.4344 24.9962 68.6117 26.7334 70.5598 27.3911C72.508 28.0487 74.4893 27.3779 74.9853 25.8928Z" fill="black"/>
<path opacity="0.08" d="M68.7696 34.4854C70.2517 34.0158 71.1669 32.7218 70.8138 31.595C70.4607 30.4683 68.973 29.9356 67.4909 30.4051C66.0088 30.8747 65.0936 32.1688 65.4467 33.2955C65.7998 34.4222 67.2876 34.9549 68.7696 34.4854Z" fill="black"/>
<path opacity="0.13" d="M121.756 39.077C123.099 39.077 124.188 37.982 124.188 36.6313C124.188 35.2806 123.099 34.1857 121.756 34.1857C120.413 34.1857 119.324 35.2806 119.324 36.6313C119.324 37.982 120.413 39.077 121.756 39.077Z" fill="#A5A5A5"/>
<path opacity="0.13" d="M53.4818 96.5463C54.8252 96.5463 55.9142 95.4513 55.9142 94.1006C55.9142 92.7499 54.8252 91.655 53.4818 91.655C52.1385 91.655 51.0494 92.7499 51.0494 94.1006C51.0494 95.4513 52.1385 96.5463 53.4818 96.5463Z" fill="#A5A5A5"/>
<path opacity="0.13" d="M139.667 79.787C141.01 79.787 142.099 78.6921 142.099 77.3414C142.099 75.9906 141.01 74.8957 139.667 74.8957C138.324 74.8957 137.235 75.9906 137.235 77.3414C137.235 78.6921 138.324 79.787 139.667 79.787Z" fill="#A5A5A5"/>
<path opacity="0.13" d="M123.029 134.956C124.373 134.956 125.462 133.861 125.462 132.511C125.462 131.16 124.373 130.065 123.029 130.065C121.686 130.065 120.597 131.16 120.597 132.511C120.597 133.861 121.686 134.956 123.029 134.956Z" fill="#A5A5A5"/>
<path opacity="0.13" d="M191.578 53.3907C192.921 53.3907 194.011 52.2957 194.011 50.945C194.011 49.5943 192.921 48.4993 191.578 48.4993C190.235 48.4993 189.146 49.5943 189.146 50.945C189.146 52.2957 190.235 53.3907 191.578 53.3907Z" fill="#A5A5A5"/>
<path opacity="0.13" d="M267.333 93.2956C268.676 93.2956 269.765 92.2007 269.765 90.85C269.765 89.4993 268.676 88.4043 267.333 88.4043C265.989 88.4043 264.9 89.4993 264.9 90.85C264.9 92.2007 265.989 93.2956 267.333 93.2956Z" fill="#A5A5A5"/>
<path opacity="0.13" d="M253.897 172.163C255.241 172.163 256.33 171.068 256.33 169.717C256.33 168.366 255.241 167.271 253.897 167.271C252.554 167.271 251.465 168.366 251.465 169.717C251.465 171.068 252.554 172.163 253.897 172.163Z" fill="#A5A5A5"/>
<path opacity="0.13" d="M179.569 194.764C180.912 194.764 182.001 193.669 182.001 192.318C182.001 190.968 180.912 189.873 179.569 189.873C178.225 189.873 177.136 190.968 177.136 192.318C177.136 193.669 178.225 194.764 179.569 194.764Z" fill="#A5A5A5"/>
</svg>
