<svg width="144" height="108" viewBox="0 0 144 108" fill="none" xmlns="http://www.w3.org/2000/svg">
<path d="M65.3112 24.6348L7.26122 58.4028C6.69746 58.7307 6.23048 59.202 5.90768 59.7687C5.58488 60.3354 5.41774 60.9775 5.42323 61.6296C5.42871 62.2818 5.60662 62.921 5.93891 63.4822C6.27119 64.0434 6.74602 64.5067 7.31522 64.8252L78.3756 104.591C79.2345 105.071 80.2007 105.327 81.1848 105.336C82.1689 105.344 83.1392 105.104 84.006 104.638L138.6 75.276C139.296 74.9016 139.88 74.3484 140.292 73.6733C140.704 72.9983 140.928 72.2258 140.942 71.4352C140.956 70.6447 140.759 69.8647 140.371 69.1756C139.984 68.4865 139.42 67.9131 138.737 67.5144L65.3112 24.6348Z" fill="#FFD6A9"/>
<path d="M25.2 48.1176L18.0252 52.2864C18.0252 52.2864 18.4248 58.374 25.7688 57.4308L39.006 50.1804" fill="url(#paint0_linear)"/>
<path d="M33.1741 51.4368C37.582 51.4368 41.1553 49.6703 41.1553 47.4912C41.1553 45.3122 37.582 43.5457 33.1741 43.5457C28.7662 43.5457 25.1929 45.3122 25.1929 47.4912C25.1929 49.6703 28.7662 51.4368 33.1741 51.4368Z" fill="#F3A71C"/>
<path d="M41.1517 36.9828V47.7108C41.1517 47.7108 35.2117 53.208 25.1929 47.8008V37.0008" fill="#F3A71C"/>
<path d="M26.388 40.8168C26.388 40.8168 25.0668 38.7936 23.8212 39.96C22.5756 41.1264 23.6664 45.1728 27.3204 45.5616V47.196C27.3204 47.196 22.7304 46.5732 22.1076 42.4512C21.4848 38.3292 24.444 37.692 25.92 38.826" fill="#F3A71C"/>
<path d="M71.5643 51.2604L64.6776 54.576C64.418 54.7005 64.1973 54.8933 64.0392 55.1338C63.881 55.3743 63.7914 55.6534 63.7799 55.941C63.7685 56.2286 63.8356 56.5139 63.9741 56.7662C64.1125 57.0186 64.3172 57.2284 64.566 57.3732L80.8919 66.8952C81.2446 67.1011 81.6631 67.1629 82.0602 67.0677C82.4573 66.9724 82.8023 66.7275 83.0231 66.384L86.9832 60.2136" fill="#56403D"/>
<path d="M55.9152 72.036L28.8144 57.7656L24.6744 60.4656L68.868 84.6576L74.952 80.6796" fill="url(#paint1_linear)"/>
<path d="M79.2756 85.5612L72.8243 89.3844C72.8243 89.3844 77.0543 93.438 81.9792 95.5044L87.966 91.5948" fill="url(#paint2_linear)"/>
<path d="M78.6564 82.8216V85.8384L87.966 91.5984L99.1367 84.7728V82.2024" fill="#6DE1FC"/>
<path d="M78.6564 82.8216V85.8384L87.966 91.5984L99.1367 84.7728V82.2024" fill="#E54C3C"/>
<path d="M99.1367 82.2024L89.6508 76.5288L78.6564 82.8216L88.1424 88.5852L99.1367 82.2024Z" fill="#F5604B"/>
<path d="M90.1332 84.2401C89.8874 83.9435 89.6782 83.6184 89.5104 83.2717C89.4708 83.0413 90.0324 81.9433 90.1368 81.9757C90.5136 82.1647 90.8665 82.3979 91.188 82.6705" fill="#C67445"/>
<path d="M90.234 82.4399C90.2556 82.5263 89.9244 84.1787 90.1332 84.2399C90.5751 84.2811 91.0198 84.2811 91.4616 84.2399C91.5451 83.6432 91.5956 83.0423 91.6128 82.4399" fill="#56403D"/>
<path d="M91.8 80.3304L90.1368 80.7948C90.1368 80.8344 89.8631 82.332 90.0719 82.5552C90.3376 82.7441 90.614 82.9172 90.9 83.0736C90.898 83.597 90.9281 84.12 90.99 84.6396C91.0887 84.6581 91.19 84.6581 91.2888 84.6396C91.3572 84.096 91.4508 82.9908 91.4508 82.9908C91.4508 82.9908 91.9368 82.8216 91.9656 82.6704C91.9944 82.5192 91.8 80.3304 91.8 80.3304Z" fill="#C67445"/>
<path d="M95.1877 92.0413C95.1877 92.0413 94.4677 91.1233 94.4101 90.8317C94.3525 90.5401 95.0617 89.1721 95.1949 89.2117C95.6646 89.4478 96.1045 89.739 96.5053 90.0793" fill="#C67445"/>
<path d="M95.3136 89.7876C95.3388 89.8956 94.9248 91.9476 95.1876 92.0412C95.7396 92.0927 96.2952 92.0927 96.8472 92.0412C96.9336 92.0412 97.0344 89.7876 97.0344 89.7876" fill="#56403D"/>
<path d="M97.2719 87.174L95.1947 87.7536C95.1947 87.804 94.8528 89.6724 95.112 89.9496C95.3712 90.2268 96.1631 90.5472 96.1451 90.5976C96.1426 91.2496 96.1799 91.9012 96.2567 92.5488C96.3758 92.5703 96.4977 92.5703 96.6167 92.5488C96.6995 91.8684 96.8183 90.4896 96.8183 90.4896C96.8183 90.4896 97.4267 90.2772 97.4591 90.09C97.4915 89.9028 97.2719 87.174 97.2719 87.174Z" fill="#C67445"/>
<path d="M109.037 35.3053L54.1008 3.65766C53.7231 3.43963 53.2946 3.32515 52.8586 3.32581C52.4225 3.32646 51.9944 3.44223 51.6174 3.66139C51.2405 3.88056 50.928 4.19537 50.7117 4.57399C50.4954 4.9526 50.3829 5.38162 50.3856 5.81766V38.7397C50.3826 39.104 50.4764 39.4625 50.6573 39.7787C50.8381 40.0949 51.0997 40.3575 51.4152 40.5397L109.973 74.3401C110.175 74.4572 110.404 74.5189 110.638 74.5191C110.871 74.5192 111.101 74.4578 111.303 74.341C111.505 74.2242 111.673 74.0561 111.79 73.8536C111.906 73.6512 111.968 73.4217 111.967 73.1881V40.3741C111.967 39.3462 111.696 38.3365 111.182 37.4467C110.667 36.5568 109.927 35.8182 109.037 35.3053Z" fill="#232742"/>
<path d="M54.108 6.1452L107.388 36.792C107.958 37.1196 108.431 37.5916 108.759 38.1605C109.088 38.7294 109.261 39.375 109.26 40.032V64.7136C109.26 64.9498 109.197 65.1819 109.079 65.3865C108.961 65.5911 108.791 65.7611 108.587 65.8795C108.382 65.9979 108.15 66.0606 107.914 66.0614C107.678 66.0621 107.446 66.0008 107.24 65.8836L52.92 34.7076C52.7168 34.5916 52.5479 34.4239 52.4303 34.2216C52.3127 34.0193 52.2506 33.7896 52.2504 33.5556V7.2288C52.2527 7.01214 52.3112 6.79979 52.4201 6.61249C52.529 6.42518 52.6847 6.26934 52.8718 6.16016C53.059 6.05098 53.2713 5.99222 53.4879 5.98959C53.7046 5.98697 53.9182 6.04058 54.108 6.1452Z" fill="white"/>
<path d="M50.868 42.66C51.8472 42.498 63.1908 49.5972 63.1908 49.5972V52.3728L58.5396 54.9828L45.8928 48.0456V44.784L50.868 42.66Z" fill="#6DE1FC"/>
<path d="M50.868 42.66C51.8472 42.498 63.1908 49.5972 63.1908 49.5972V52.3728L58.5396 54.9828L45.8928 48.0456V44.784L50.868 42.66Z" fill="#F1A317"/>
<path d="M43.2 49.5505L28.8 57.7657C28.6497 57.8521 28.5249 57.9767 28.4381 58.1268C28.3513 58.2769 28.3055 58.4473 28.3055 58.6207C28.3055 58.7941 28.3513 58.9644 28.4381 59.1145C28.5249 59.2646 28.6497 59.3892 28.8 59.4757L68.7276 82.4401C69.2121 82.7193 69.7615 82.8664 70.3207 82.8664C70.8798 82.8664 71.4292 82.7193 71.9136 82.4401L85.3596 74.6749C85.5201 74.5857 85.6539 74.4552 85.747 74.297C85.8401 74.1387 85.8892 73.9585 85.8892 73.7749C85.8892 73.5913 85.8401 73.411 85.747 73.2528C85.6539 73.0945 85.5201 72.964 85.3596 72.8749L44.9676 49.5433C44.6973 49.3923 44.3925 49.3137 44.0829 49.315C43.7733 49.3162 43.4692 49.3973 43.2 49.5505Z" fill="#974C26"/>
<path d="M52.4231 76.4316C52.392 76.242 52.315 76.063 52.1989 75.9099C52.0829 75.7568 51.9312 75.6344 51.7572 75.5532L49.626 74.322L46.3319 72.414L42.3971 70.1352L38.2103 67.7088L34.1603 65.3652L30.6395 63.3276L28.0367 61.8192L26.6687 61.0272C26.6687 61.056 26.6219 61.056 26.5931 61.0488C26.4286 61.0057 26.2557 61.0064 26.0916 61.0508C25.9274 61.0951 25.7777 61.1816 25.6573 61.3017C25.5369 61.4217 25.4499 61.5712 25.405 61.7352C25.3602 61.8992 25.359 62.0721 25.4015 62.2368C25.62 62.8616 26.0324 63.4002 26.5787 63.774C28.1719 64.9178 29.8348 65.9614 31.5575 66.8988V66.2832C30.3983 65.6496 27.8999 64.2168 26.8487 63.1368L27.3491 63.4284L28.7279 64.2348L30.8015 65.448L33.3899 66.96L36.3131 68.6664L39.3875 70.4664L42.4331 72.2484L45.2699 73.9044L47.7143 75.3444L49.5864 76.4244C50.1588 76.7592 50.7779 77.2128 51.4439 77.3424C51.5691 77.3513 51.6947 77.3343 51.813 77.2926C51.9312 77.2509 52.0397 77.1852 52.1315 77.0998C52.2234 77.0144 52.2966 76.911 52.3468 76.796C52.397 76.6811 52.423 76.557 52.4231 76.4316Z" fill="#6DE1FC"/>
<path d="M52.4231 76.4316C52.392 76.242 52.315 76.063 52.1989 75.9099C52.0829 75.7568 51.9312 75.6344 51.7572 75.5532L49.626 74.322L46.3319 72.414L42.3971 70.1352L38.2103 67.7088L34.1603 65.3652L30.6395 63.3276L28.0367 61.8192L26.6687 61.0272C26.6687 61.056 26.6219 61.056 26.5931 61.0488C26.4286 61.0057 26.2557 61.0064 26.0916 61.0508C25.9274 61.0951 25.7777 61.1816 25.6573 61.3017C25.5369 61.4217 25.4499 61.5712 25.405 61.7352C25.3602 61.8992 25.359 62.0721 25.4015 62.2368C25.62 62.8616 26.0324 63.4002 26.5787 63.774C28.1719 64.9178 29.8348 65.9614 31.5575 66.8988V66.2832C30.3983 65.6496 27.8999 64.2168 26.8487 63.1368L27.3491 63.4284L28.7279 64.2348L30.8015 65.448L33.3899 66.96L36.3131 68.6664L39.3875 70.4664L42.4331 72.2484L45.2699 73.9044L47.7143 75.3444L49.5864 76.4244C50.1588 76.7592 50.7779 77.2128 51.4439 77.3424C51.5691 77.3513 51.6947 77.3343 51.813 77.2926C51.9312 77.2509 52.0397 77.1852 52.1315 77.0998C52.2234 77.0144 52.2966 76.911 52.3468 76.796C52.397 76.6811 52.423 76.557 52.4231 76.4316Z" fill="#999A1C"/>
<path d="M76.5176 52.699C77.1463 52.5779 77.5437 51.8974 77.4054 51.1789C77.267 50.4604 76.6452 49.9761 76.0166 50.0972C75.3879 50.2183 74.9905 50.8988 75.1288 51.6173C75.2672 52.3358 75.889 52.8201 76.5176 52.699Z" fill="#AB643C"/>
<path d="M76.4748 23.5368L92.0016 32.5368C92.1608 32.629 92.2918 32.7629 92.3806 32.924C92.4695 33.0851 92.5126 33.2674 92.5056 33.4512L91.9692 47.3868C91.9626 47.561 91.9112 47.7305 91.8199 47.8789C91.7287 48.0273 91.6006 48.1497 91.4481 48.234C91.2957 48.3184 91.124 48.362 90.9497 48.3605C90.7755 48.359 90.6046 48.3126 90.4536 48.2256L75.4632 39.6108C75.3087 39.5221 75.1804 39.3941 75.0913 39.2399C75.0022 39.0856 74.9553 38.9106 74.9556 38.7324V24.4152C74.955 24.2372 75.0014 24.0622 75.0901 23.9078C75.1788 23.7534 75.3067 23.6252 75.4608 23.5361C75.6149 23.447 75.7898 23.4001 75.9679 23.4003C76.1459 23.4004 76.3208 23.4475 76.4748 23.5368Z" fill="#A8A93D"/>
<path d="M82.0368 25.9812C82.0377 25.9704 82.0377 25.9596 82.0368 25.9488L81.9792 25.4628C81.378 25.434 81.036 25.578 80.4348 25.5816C80.1376 25.8862 79.9405 26.2743 79.8696 26.694C79.8696 26.9928 79.9056 27.414 80.2728 27.3708C80.3304 27.648 80.4924 28.0116 80.82 27.936L80.8632 27.918C80.8848 28.1016 80.9424 28.278 81.1188 28.332C81.2952 28.386 81.4068 28.2888 81.4788 28.1268C81.5436 28.3716 81.6588 28.746 81.9072 28.7424C82.2456 28.7424 82.2672 28.242 82.1808 27.7452C82.1734 27.1546 82.1253 26.5652 82.0368 25.9812Z" fill="#FBB5AD"/>
<path d="M80.3591 26.5321C80.2638 26.8009 80.2222 27.0859 80.2367 27.3709C80.2367 27.4609 80.3771 27.4609 80.3735 27.3709C80.36 27.0981 80.4004 26.8253 80.4923 26.5681C80.5211 26.4853 80.3879 26.4493 80.3591 26.5321Z" fill="#56403D"/>
<path d="M80.8633 26.8055L80.8057 27.9611C80.8057 28.0511 80.9389 28.0511 80.9425 27.9611L81.0001 26.8055C81.0001 26.7191 80.8705 26.7191 80.8633 26.8055Z" fill="#56403D"/>
<path d="M81.36 26.6399V28.1699C81.36 28.1881 81.3672 28.2055 81.38 28.2183C81.3928 28.2311 81.4102 28.2383 81.4284 28.2383C81.4465 28.2383 81.4639 28.2311 81.4767 28.2183C81.4896 28.2055 81.4968 28.1881 81.4968 28.1699V26.6399C81.4968 26.6218 81.4896 26.6044 81.4767 26.5916C81.4639 26.5787 81.4465 26.5715 81.4284 26.5715C81.4102 26.5715 81.3928 26.5787 81.38 26.5916C81.3672 26.6044 81.36 26.6218 81.36 26.6399Z" fill="#56403D"/>
<path d="M81.972 25.4628C82.4191 25.9325 82.6878 26.5438 82.7317 27.1908L82.08 26.7804L81.972 25.4628Z" fill="#FBB5AD"/>
<path d="M88.0272 28.7244C88.0272 28.7244 87.5448 28.8108 87.534 28.8036C87.1164 29.0664 86.0544 29.61 85.6116 29.8224C85.3488 29.9484 84.6972 30.222 84.8412 30.618C84.9168 30.8304 85.1292 30.8664 85.4028 30.8052C85.3832 30.8616 85.384 30.9231 85.4051 30.979C85.4261 31.0349 85.4661 31.0817 85.518 31.1112C85.6031 31.1507 85.6974 31.1662 85.7906 31.1561C85.8839 31.1459 85.9726 31.1105 86.0472 31.0536C86.0611 31.1205 86.0981 31.1803 86.1516 31.2228C86.3784 31.4172 86.8104 31.2012 87.0588 31.086C87.0545 31.1315 87.0545 31.1773 87.0588 31.2228C87.0588 31.3668 87.2028 31.5072 87.336 31.4352C87.9732 31.0968 88.974 29.862 89.2656 29.2752C88.6608 29.0448 88.6212 28.9764 88.0272 28.7244Z" fill="#FBB5AD"/>
<path d="M87.5952 30.4632C87.4285 30.6963 87.2297 30.9048 87.0048 31.0824C86.94 31.1328 87.03 31.2192 87.0948 31.1724C87.3281 30.9875 87.5341 30.7706 87.7068 30.528C87.75 30.4632 87.642 30.3984 87.5952 30.4632Z" fill="#56403D"/>
<path d="M87.2172 30.1428C86.85 30.4356 86.4756 30.7188 86.094 30.9924C86.0292 31.0392 86.094 31.1472 86.1588 31.1004C86.5596 30.8196 86.9424 30.5328 87.3072 30.24C87.3684 30.1824 87.2784 30.0924 87.2172 30.1428Z" fill="#56403D"/>
<path d="M86.6231 29.9844C86.2305 30.2614 85.8136 30.5024 85.3775 30.7044C85.3055 30.7404 85.3775 30.8484 85.4423 30.8124C85.8784 30.6104 86.2953 30.3694 86.6879 30.0924C86.7599 30.0456 86.6879 29.9376 86.6231 29.9844Z" fill="#56403D"/>
<path d="M87.534 28.8C87.534 28.8 86.9257 28.3536 85.8997 29.0376L86.7601 29.574" fill="#FBB5AD"/>
<path d="M100.958 52.5924C100.951 52.5673 100.938 52.5439 100.921 52.5239C100.904 52.5039 100.883 52.4876 100.859 52.4761C100.835 52.4646 100.81 52.4582 100.783 52.4571C100.757 52.4561 100.731 52.4605 100.706 52.47C100.716 52.3502 100.716 52.2298 100.706 52.11C100.706 51.9408 100.674 51.6996 100.49 51.6276C100.437 51.6079 100.379 51.606 100.324 51.6222C100.27 51.6384 100.222 51.6719 100.188 51.7176C100.167 51.6072 100.137 51.4988 100.098 51.3936C100.086 51.3543 100.061 51.3199 100.028 51.2953C99.9955 51.2708 99.9555 51.2573 99.9144 51.2568C99.7092 51.2568 99.6048 51.4224 99.5544 51.6168C99.5544 51.5988 99.4788 51.5304 99.4608 51.5196C99.4272 51.4953 99.3871 51.4815 99.3456 51.48C99.2682 51.4754 99.1916 51.4983 99.1296 51.5448C99.0701 51.6031 99.0342 51.6813 99.0288 51.7644C99.0123 51.9019 99.0123 52.0409 99.0288 52.1784C99.0288 52.3476 99.0648 52.5132 99.0756 52.6824C99.0864 52.8516 99.0756 52.92 99.0756 53.0424C98.9172 52.7364 98.694 52.3548 98.4348 52.5348C98.1756 52.7148 98.4024 52.9596 98.4744 53.1288C98.6227 53.4644 98.7985 53.787 99 54.0936C98.9727 54.2447 98.9354 54.3939 98.8884 54.54C99.3701 54.7366 99.8358 54.9701 100.282 55.2384C100.424 54.7604 100.596 54.2915 100.796 53.8344C101.013 53.4582 101.071 53.0115 100.958 52.5924Z" fill="#FBB5AD"/>
<path d="M99.5185 51.6132C99.5041 52.0788 99.4789 52.5432 99.4429 53.0064C99.4429 53.046 99.5041 53.046 99.5041 53.0064C99.5401 52.5432 99.5653 52.0788 99.5797 51.6132C99.5833 51.57 99.5185 51.57 99.5185 51.6132Z" fill="#56403D"/>
<path d="M100.145 51.732C100.104 52.152 100.054 52.5696 99.9937 52.9848C99.9937 53.0244 100.048 53.0424 100.055 52.9848C100.117 52.5624 100.169 52.1388 100.21 51.714C100.21 51.6924 100.148 51.6924 100.145 51.732Z" fill="#56403D"/>
<path d="M100.692 52.5096C100.661 52.8024 100.615 53.0928 100.555 53.3808C100.555 53.4204 100.609 53.4384 100.616 53.3808C100.676 53.088 100.722 52.7928 100.753 52.4952C100.757 52.47 100.696 52.47 100.692 52.5096Z" fill="#56403D"/>
<path d="M86.4612 52.5204C86.418 52.4232 86.3748 52.326 86.3352 52.2252C86.3126 52.1731 86.3039 52.116 86.31 52.0596C86.3414 51.9075 86.363 51.7536 86.3748 51.5988C86.3654 51.1051 86.2666 50.6172 86.0832 50.1588C86.0606 50.0858 86.0213 50.019 85.9685 49.9638C85.9157 49.9086 85.8507 49.8664 85.7788 49.8406C85.7069 49.8148 85.63 49.806 85.5541 49.815C85.4782 49.824 85.4055 49.8504 85.3416 49.8924L85.2084 49.6512C84.96 49.212 84.6936 48.456 84.1284 48.3984C84.0848 48.3976 84.0417 48.4074 84.0027 48.427C83.9637 48.4465 83.9301 48.4752 83.9046 48.5106C83.8791 48.5459 83.8626 48.5869 83.8564 48.6301C83.8503 48.6733 83.8546 48.7173 83.8692 48.7584C83.9772 49.0428 84.0888 49.3236 84.204 49.6008C84.1797 49.5749 84.1505 49.5543 84.118 49.5403C84.0855 49.5262 84.0504 49.5189 84.015 49.5189C83.9796 49.5189 83.9445 49.5262 83.912 49.5403C83.8795 49.5543 83.8502 49.5749 83.826 49.6008C83.7596 49.6682 83.7154 49.7544 83.6993 49.8477C83.6832 49.941 83.696 50.0369 83.736 50.1228H83.6676C83.6072 50.092 83.5409 50.0748 83.4732 50.0724C83.4191 50.0757 83.3664 50.0905 83.3185 50.116C83.2707 50.1415 83.2289 50.1769 83.196 50.22C83.1585 50.2711 83.1338 50.3304 83.1237 50.393C83.1137 50.4556 83.1187 50.5197 83.1384 50.58H83.0916C83.0375 50.5999 82.989 50.6326 82.9502 50.6752C82.9113 50.7178 82.8833 50.7691 82.8684 50.8248C82.8487 50.9003 82.8487 50.9796 82.8684 51.0552C82.8396 51.336 84.3084 52.7112 84.3084 52.7112L85.1796 53.6652L86.6412 52.9704C86.6628 52.92 86.4792 52.56 86.4612 52.5204Z" fill="#FBB5AD"/>
<path d="M96.372 65.7756C93.7764 61.3404 91.332 65.6748 91.332 65.6748C90.3248 67.0517 89.5412 68.5789 89.01 70.2C88.4124 72.2376 88.416 78.84 88.7112 80.8056C89.7912 81.2232 92.2068 81.0972 93.3336 80.7768V72.8568C93.3379 72.8347 93.3498 72.8148 93.3672 72.8004C93.3846 72.7861 93.4065 72.7783 93.429 72.7783C93.4516 72.7783 93.4734 72.7861 93.4908 72.8004C93.5082 72.8148 93.5201 72.8347 93.5244 72.8568L93.5784 88.5852C95.4737 88.6555 97.3639 88.3446 99.1368 87.6708C99.1368 87.6708 98.8128 69.948 96.372 65.7756Z" fill="#F3A71C"/>
<path d="M86.4792 52.0776C85.698 52.2684 85.1652 52.6788 84.4884 53.1108C84.7368 53.982 87.4584 60.786 90.882 62.226L91.1556 57.384C91.1556 57.384 89.64 57.24 86.4792 52.0776Z" fill="#F5604B"/>
<path d="M98.4564 54.1909C98.3498 55.0333 98.0562 55.8413 97.5971 56.5557C97.1381 57.2701 96.5252 57.873 95.8032 58.3201L96.2676 62.7661C98.3448 61.4305 100.534 56.4661 100.854 55.1701C100.539 54.8569 100.164 54.6092 99.7529 54.4412C99.3415 54.2732 98.9008 54.1881 98.4564 54.1909Z" fill="#F5604B"/>
<path d="M90.4932 62.4997L90.9504 66.4849C90.9504 66.4849 94.2336 67.7269 96.6636 66.4849V62.4457" fill="#F5604B"/>
<path d="M98.208 61.3548C98.1417 61.1302 98.0316 60.9209 97.884 60.7392C97.6544 60.4725 97.404 60.2245 97.1352 59.9976C97.0692 59.9451 97.0173 59.877 96.984 59.7996C96.8724 59.4612 97.2684 58.9428 97.2144 58.5288C97.1316 57.9168 96.7428 57.7116 96.3612 57.3084C96.1543 57.1018 96.0193 56.8343 95.976 56.5452C95.757 56.1046 95.588 55.6409 95.472 55.1628C95.1948 54.3816 94.752 53.5176 93.9132 53.2332C93.4492 53.0846 92.9527 53.07 92.4808 53.191C92.009 53.312 91.5808 53.5637 91.2456 53.9172C90.6696 54.576 90.7812 55.4724 90.7164 56.2968C90.7537 56.3716 90.7792 56.4518 90.792 56.5344C90.9036 57.3336 89.8524 57.3696 89.7552 58.0032C89.7423 58.1234 89.7484 58.2449 89.7732 58.3632C89.855 58.8174 90.0507 59.2435 90.342 59.6016C91.062 60.5736 89.388 61.074 89.3952 61.974C89.4155 62.2984 89.521 62.6117 89.7012 62.8822C89.8813 63.1528 90.1297 63.371 90.4212 63.5148C91.8417 64.2203 93.4648 64.405 95.0076 64.0368C96.1596 63.774 98.604 62.8164 98.208 61.3548ZM91.8 59.8716C91.8 59.8536 91.8 59.832 91.8 59.814H91.8648L91.8 59.8716Z" fill="#56403D"/>
<path d="M93.3336 72.8496L89.6832 72.036L93.1536 74.7432L93.3336 72.8496Z" fill="#56403D"/>
<path d="M84.7151 50.4684C84.4289 49.9041 84.1882 49.3178 83.9951 48.7152C83.9663 48.6216 83.8151 48.6612 83.8475 48.7548C84.0392 49.373 84.28 49.9749 84.5675 50.5548C84.6251 50.634 84.7583 50.5548 84.7151 50.4684Z" fill="#56403D"/>
<path d="M84.1428 50.8284C84.0006 50.5855 83.8732 50.3342 83.7612 50.076C83.7216 49.986 83.5884 50.076 83.628 50.1552C83.74 50.4134 83.8674 50.6647 84.0096 50.9076C84.0201 50.9253 84.0372 50.938 84.0571 50.9431C84.077 50.9482 84.0981 50.9451 84.1158 50.9346C84.1335 50.9241 84.1462 50.907 84.1513 50.8871C84.1564 50.8672 84.1533 50.8461 84.1428 50.8284Z" fill="#56403D"/>
<path d="M83.5884 51.2281C83.4299 51.0225 83.3081 50.7911 83.2284 50.5441C83.1996 50.4505 83.0484 50.4901 83.0808 50.5837C83.1589 50.8424 83.2807 51.0859 83.4408 51.3036C83.52 51.3864 83.6496 51.3073 83.5884 51.2281Z" fill="#56403D"/>
<path d="M85.878 50.778C85.7292 50.4756 85.5924 50.1671 85.4676 49.8527C85.4316 49.7627 85.2804 49.8023 85.32 49.8923C85.4496 50.2187 85.5912 50.5391 85.7448 50.8535C85.788 50.9471 85.9212 50.868 85.878 50.778Z" fill="#56403D"/>
<path d="M51.624 23.0041C51.6464 22.9672 51.6577 22.9247 51.6565 22.8817C51.6582 22.6688 51.616 22.4578 51.5323 22.2621C51.4487 22.0663 51.3255 21.8899 51.1704 21.7441C51.1099 21.6892 51.0376 21.649 50.959 21.6266C50.8804 21.6041 50.7978 21.6001 50.7174 21.6147C50.637 21.6293 50.561 21.6622 50.4954 21.7108C50.4298 21.7595 50.3762 21.8226 50.3388 21.8953C50.0004 22.5901 50.7744 23.2849 51.3936 23.3677C51.5664 23.3893 51.6349 23.2453 51.6061 23.1085C51.6198 23.0755 51.626 23.0398 51.624 23.0041Z" fill="#FBB5AD"/>
<path d="M51.0084 35.0136L49.7628 34.3188L50.7996 37.1556L51.0084 35.0136Z" fill="#382624"/>
<path d="M64.9044 62.64L60.8004 65.07L63.846 66.8376C64.7064 66.3372 67.1688 64.8828 67.9608 64.4148L64.9044 62.64Z" fill="white"/>
<path d="M60.408 60.0336L56.304 62.4636L60.1596 64.7028C60.8328 64.314 63.3204 62.8452 64.278 62.28L60.408 60.0336Z" fill="white"/>
<path d="M44.0785 50.5511L39.9097 52.9452L43.6177 55.1052C44.2045 54.7668 46.7209 53.28 47.7361 52.6824L44.0785 50.5511Z" fill="white"/>
<path d="M52.8588 55.6488L48.7548 58.0788L51.8004 59.8464C52.5204 59.4288 54.9936 57.9672 55.9188 57.4236L52.8588 55.6488Z" fill="white"/>
<path d="M48.3624 53.0388L44.2584 55.4688L48.114 57.708C48.5676 57.4488 51.1488 55.908 52.2324 55.2852L48.3624 53.0388Z" fill="white"/>
<path d="M68.5872 64.8L64.4832 67.23L67.3956 68.922C68.2704 68.4108 70.7364 66.9564 71.5104 66.4992L68.5872 64.8Z" fill="white"/>
<path d="M56.5416 57.7872L52.4376 60.2172L55.6776 62.0892C56.4372 61.65 58.9176 60.192 59.796 59.6664L56.5416 57.7872Z" fill="white"/>
<path d="M72.1404 66.8448L68.04 69.2785L71.8956 71.5177C72.702 71.0497 75.1645 69.5952 76.0105 69.0948L72.1404 66.8448Z" fill="white"/>
<path d="M76.6368 69.4585L72.5364 71.8885L79.4556 75.9061L83.6208 73.5121L76.6368 69.4585Z" fill="white"/>
<path d="M39.3804 53.64L35.2115 56.034L40.6116 59.1624C41.3316 58.752 43.794 57.2904 44.73 56.7396L39.3804 53.64Z" fill="white"/>
<path d="M49.8384 59.7275L45.72 62.1575L48.7656 63.9251C49.5792 63.4499 52.0416 61.9991 52.8804 61.5023L49.8384 59.7275Z" fill="white"/>
<path d="M57.3876 64.1124L53.28 66.5424L57.1356 68.7816C57.9096 68.3316 60.3756 66.8772 61.254 66.3588L57.3876 64.1124Z" fill="white"/>
<path d="M53.5248 61.866L49.4208 64.296L52.6608 66.168C53.5068 65.6748 55.9692 64.2204 56.7756 63.7452L53.5248 61.866Z" fill="white"/>
<path d="M61.884 66.7224L57.78 69.1524L60.84 70.92C61.7796 70.3692 64.26 68.9076 64.9548 68.4972L61.884 66.7224Z" fill="white"/>
<path d="M65.5704 68.8607L61.4664 71.2799L64.3788 72.9719C65.3364 72.4139 67.8204 70.9487 68.4936 70.5491L65.5704 68.8607Z" fill="white"/>
<path d="M45.36 57.1176L41.256 59.5476L45.1116 61.7868C45.7236 61.4268 48.2292 59.9544 49.23 59.364L45.36 57.1176Z" fill="white"/>
<path d="M69.12 70.92L65.016 73.35L68.8752 75.6001C69.768 75.0817 72.2304 73.6237 72.99 73.1772L69.12 70.92Z" fill="white"/>
<path d="M69.516 75.9672L74.754 79.0092L78.9228 76.6152L73.6164 73.5372L69.516 75.9672Z" fill="white"/>
<path d="M66.4488 75.5496L63.396 77.364L66.9348 79.4124L70.0344 77.634L66.4488 75.5496Z" fill="white"/>
<path d="M67.6656 79.8372L70.6753 81.5796L73.7785 79.8084L70.7148 78.0264L67.6656 79.8372Z" fill="white"/>
<path d="M34.236 56.844L31.0428 58.6188L34.668 60.7176L37.8036 58.9176L34.236 56.844Z" fill="white"/>
<path d="M38.4804 59.3101L35.3988 61.1389L39.2688 63.3817L42.4008 61.5853L38.4804 59.3101Z" fill="white"/>
<path d="M43.0812 61.9812L40.0032 63.8064L62.658 76.9356L65.7648 75.1536L43.0812 61.9812Z" fill="white"/>
<path d="M58.4109 24.023C60.5335 23.963 62.1744 21.0948 62.076 17.6168C61.9777 14.1388 60.1773 11.368 58.0547 11.428C55.9321 11.4881 54.2912 14.3562 54.3895 17.8342C54.4879 21.3122 56.2883 24.083 58.4109 24.023Z" fill="#E2E2E2"/>
<path d="M61.2489 17.0029C61.5359 13.8138 60.0472 11.0735 57.9238 10.8824C55.8003 10.6913 53.8463 13.1217 53.5592 16.3108C53.2722 19.4999 54.7609 22.2401 56.8844 22.4312C59.0078 22.6223 60.9618 20.192 61.2489 17.0029Z" fill="#E35541"/>
<path d="M58.8511 16.1541C58.9374 15.2296 58.3301 14.417 57.4946 14.339C56.6592 14.2611 55.9121 14.9474 55.8258 15.8718C55.7396 16.7963 56.3469 17.609 57.1823 17.6869C58.0177 17.7648 58.7649 17.0786 58.8511 16.1541Z" fill="white"/>
<path d="M54.0396 19.7027C54.0396 19.7027 54.9396 17.7119 56.538 17.9639C58.1364 18.2159 59.1515 19.0439 59.8103 21.2939C59.4254 21.8564 58.8694 22.28 58.2249 22.5017C57.5804 22.7235 56.8815 22.7317 56.2319 22.5251C55.6639 22.2694 55.1671 21.8785 54.7849 21.3865C54.4027 20.8945 54.1468 20.3164 54.0396 19.7027Z" fill="white"/>
<path d="M62.3556 18.4356C62.3473 18.4129 62.3364 18.3911 62.3232 18.3708C62.3718 18.3247 62.4097 18.2687 62.4346 18.2066C62.4595 18.1444 62.4706 18.0777 62.4672 18.0108C62.4623 17.9662 62.4483 17.923 62.426 17.884C62.4037 17.8449 62.3736 17.8109 62.3376 17.784C62.3713 17.7461 62.3921 17.6984 62.3972 17.6479C62.4022 17.5974 62.3912 17.5466 62.3656 17.5027C62.3401 17.4588 62.3014 17.4241 62.255 17.4035C62.2086 17.383 62.1569 17.3775 62.1072 17.388C61.7472 17.4564 61.524 17.9172 61.3368 18.1908C61.1964 18.3924 61.0668 18.6012 60.9444 18.81C60.9228 18.5076 60.8796 18.2016 60.858 17.9172C60.8364 17.6328 60.3936 17.6148 60.3936 17.9172C60.4186 18.373 60.3712 18.8299 60.2532 19.2708C60.2075 19.2934 60.166 19.3239 60.1308 19.3608C58.8245 20.7308 57.1883 21.7423 55.3788 22.2984C55.2884 22.3288 55.2104 22.388 55.1568 22.467C55.1033 22.546 55.0771 22.6404 55.0825 22.7357C55.0878 22.831 55.1242 22.9219 55.1862 22.9944C55.2482 23.067 55.3323 23.1171 55.4256 23.1372C55.4318 23.2249 55.4649 23.3086 55.5203 23.3768C55.5757 23.4451 55.6507 23.4947 55.7352 23.5188C55.7486 23.586 55.7761 23.6496 55.8158 23.7055C55.8555 23.7613 55.9066 23.8081 55.9656 23.8428L55.6596 23.976C55.1628 24.1848 55.3824 25.0056 55.8864 24.7968C57.7841 24.0039 59.45 22.7431 60.7284 21.132C60.876 20.9916 61.02 20.8512 61.164 20.7036C61.3872 20.4768 62.4672 19.3932 62.2008 18.9288C62.28 18.7668 62.4348 18.6444 62.3556 18.4356Z" fill="#FBB5AD"/>
<path d="M54.8676 13.3884C54.36 13.59 53.9676 14.6844 54.0108 14.9148L54.4104 14.7132L54.4824 14.634C54.5536 14.2033 54.6832 13.7842 54.8676 13.3884Z" fill="#FBB5AD"/>
<path d="M54.936 14.2776C54.9087 14.2582 54.8783 14.2436 54.846 14.2344L54.8136 14.2056C54.6156 14.0508 54.3096 14.2524 54.1296 14.3496C53.8994 14.471 53.6823 14.6158 53.4816 14.7816C53.3903 14.9064 53.3254 15.0485 53.2908 15.1992C53.2152 15.3792 53.1396 15.5592 53.0532 15.7356C52.8778 16.1076 52.6794 16.4683 52.4592 16.8156C52.0293 17.4883 51.5218 18.1082 50.9472 18.6624C50.6808 18.9216 51.0876 19.3248 51.354 19.0656L51.5448 18.8748C51.5849 18.9013 51.6318 18.9154 51.6798 18.9154C51.7278 18.9154 51.7748 18.9013 51.8148 18.8748C51.862 18.8424 51.9066 18.8063 51.948 18.7668L52.0092 18.7164C52.0262 18.7604 52.0538 18.7994 52.0896 18.8301C52.1254 18.8607 52.1682 18.882 52.2143 18.892C52.2603 18.902 52.3081 18.9004 52.3534 18.8873C52.3987 18.8743 52.44 18.8502 52.4736 18.8172L52.668 18.612C52.73 18.5889 52.7805 18.5424 52.8084 18.4824C52.8084 18.4824 52.8372 18.8748 52.8444 18.864C53.1576 18.5328 53.5284 17.6148 53.8416 17.064C53.8395 17.0387 53.8458 17.0134 53.8596 16.992C54.0481 16.665 54.1322 16.2882 54.1008 15.912C54.1001 15.6537 54.1229 15.3958 54.1692 15.1416L54.6804 14.7456C54.8028 14.652 54.936 14.5116 54.9108 14.3856C54.926 14.3515 54.9345 14.3149 54.936 14.2776Z" fill="#FBB5AD"/>
<path d="M56.8403 21.492C55.0223 22.0248 54.7091 21.8232 53.8487 21.7944C52.9883 21.7656 52.0739 20.5596 52.0739 20.5596C52.0739 20.5596 51.8579 17.8632 50.2487 19.9728C49.0499 21.5496 48.5891 26.1144 48.4487 28.3248C49.0832 28.7606 49.8201 29.0236 50.5871 29.088C51.0809 29.1707 51.5805 29.2128 52.0811 29.214C52.389 29.2118 52.693 29.1455 52.9739 29.0196L53.8271 25.0596C55.1988 25.1339 56.5556 24.7446 57.6791 23.9544L56.8403 21.492Z" fill="#232742"/>
<path d="M52.9199 18.2484C52.9199 18.2484 54.0899 20.4948 52.9199 21.1284C51.7499 21.762 50.8572 20.7144 50.76 20.4444C50.7012 20.1466 50.7161 19.839 50.8033 19.5482C50.8904 19.2575 51.0472 18.9924 51.2601 18.776C51.4729 18.5596 51.7354 18.3984 52.0246 18.3065C52.3139 18.2145 52.6212 18.1946 52.9199 18.2484Z" fill="#FBB5AD"/>
<path d="M53.0208 17.9136C52.7255 17.7259 52.3931 17.6042 52.0464 17.557C51.6996 17.5098 51.3468 17.5381 51.012 17.64C50.4226 17.7479 49.88 18.033 49.4568 18.4572C49.3072 18.3563 49.1331 18.2978 48.9528 18.288C48.7345 18.2717 48.5166 18.3249 48.3303 18.44C48.1441 18.5551 47.9991 18.7262 47.916 18.9288C47.8482 19.1195 47.8468 19.3275 47.9122 19.519C47.9775 19.7105 48.1058 19.8743 48.276 19.9836C48.54 20.122 48.848 20.1504 49.1328 20.0628V20.1168C49.1724 20.5416 48.7728 20.754 48.6144 21.114C48.5379 21.2781 48.5164 21.4624 48.5532 21.6396C48.5928 21.816 48.7764 21.9996 48.7728 22.1868C48.7406 22.3203 48.6763 22.4438 48.5856 22.5468C48.5032 22.6692 48.4355 22.801 48.384 22.9392C49.2624 23.3455 50.2535 23.4382 51.192 23.202C52.1966 23.0262 53.1173 22.5298 53.8164 21.7872C53.7757 21.6951 53.7155 21.6128 53.64 21.546C53.4832 21.4406 53.3155 21.3525 53.1396 21.2832C52.8912 21.1392 53.1396 20.7036 53.1396 20.4696C53.1396 20.0664 52.83 19.8972 52.4952 19.7496C52.254 19.6488 52.2432 19.5012 52.2396 19.2564C52.2179 19.0618 52.2582 18.8652 52.3548 18.6948C52.4273 18.7053 52.5012 18.69 52.5636 18.6516C52.6888 18.5761 52.8231 18.5169 52.9632 18.4752C53.0336 18.45 53.0911 18.398 53.1234 18.3307C53.1558 18.2633 53.1603 18.1859 53.136 18.1152C53.136 18.0745 53.1254 18.0345 53.1052 17.9991C53.085 17.9638 53.0559 17.9343 53.0208 17.9136Z" fill="#56403D"/>
<path d="M52.1352 18.81C52.5101 18.7279 52.873 18.5985 53.2152 18.4248C53.2152 18.3888 53.3268 16.9848 50.8464 17.4744C48.366 17.964 49.5432 20.9268 49.5432 20.9268" fill="#56403D"/>
<path d="M75.654 21.9888L93.0132 32.2056C93.1916 32.3118 93.3379 32.4642 93.4367 32.6467C93.5356 32.8292 93.5833 33.035 93.5748 33.2424L92.9737 49.05C92.9687 49.246 92.9129 49.4374 92.8117 49.6053C92.7105 49.7732 92.5673 49.9119 92.3963 50.0077C92.2253 50.1036 92.0323 50.1533 91.8362 50.152C91.6402 50.1508 91.4478 50.0985 91.278 50.0004L74.52 40.23C74.3463 40.128 74.2024 39.9823 74.1026 39.8073C74.0028 39.6323 73.9506 39.4343 73.9512 39.2328V22.9824C73.949 22.7821 73.9999 22.5848 74.0987 22.4106C74.1975 22.2363 74.3406 22.0913 74.5137 21.9904C74.6867 21.8894 74.8833 21.8361 75.0836 21.8358C75.284 21.8355 75.4808 21.8883 75.654 21.9888Z" stroke="#56403D" stroke-miterlimit="10" stroke-linecap="round" stroke-dasharray="3.04 5.06"/>
<path d="M86.3568 17.5356C85.662 17.2152 84.0132 16.128 81.9324 17.1288C79.8516 18.1296 77.8788 19.98 80.028 25.4304C80.722 25.6967 81.4887 25.7043 82.188 25.452C82.188 25.452 81.7452 20.682 82.4148 20.1276L89.406 24.012C89.4834 24.92 89.294 25.8309 88.8611 26.6329C88.4281 27.4348 87.7704 28.0929 86.9688 28.5264L88.8948 30.294C90.4715 30.2688 93.9347 25.254 92.8547 21.69C91.7747 18.126 85.878 17.352 85.878 17.352" fill="#6DE1FC"/>
<path d="M86.3568 17.5356C85.662 17.2152 84.0132 16.128 81.9324 17.1288C79.8516 18.1296 77.8788 19.98 80.028 25.4304C80.722 25.6967 81.4887 25.7043 82.188 25.452C82.188 25.452 81.7452 20.682 82.4148 20.1276L89.406 24.012C89.4834 24.92 89.294 25.8309 88.8611 26.6329C88.4281 27.4348 87.7704 28.0929 86.9688 28.5264L88.8948 30.294C90.4715 30.2688 93.9347 25.254 92.8547 21.69C91.7747 18.126 85.878 17.352 85.878 17.352" fill="#BE6B3D"/>
<path d="M88.5852 17.2405C88.11 17.7661 87.1992 17.5285 86.598 17.3917C85.878 17.2261 85.032 16.7833 85.0968 15.9157C85.0968 15.7861 84.9024 15.7861 84.8916 15.9157C84.8232 16.8193 85.6476 17.3557 86.4288 17.5609C87.1236 17.7337 88.1748 17.9965 88.7292 17.3845C88.8156 17.2801 88.6716 17.1433 88.5852 17.2405Z" fill="#009245"/>
<path d="M84.6971 15.3685C84.6971 15.3685 84.6971 19.7929 86.3207 20.0809C88.1208 20.3977 89.1072 18.3709 89.1072 18.3709C89.1072 18.3709 89.3376 14.4613 87.5627 14.1193C85.7879 13.7773 84.7511 14.8033 84.6971 15.3685Z" fill="#FBB5AD"/>
<path d="M86.0617 18.36C86.0201 18.3624 85.9784 18.3562 85.9393 18.342C85.9738 17.929 86.0291 17.5181 86.1049 17.1108C86.1089 17.0812 86.1013 17.0513 86.0837 17.0273C86.0661 17.0032 86.0399 16.9869 86.0105 16.9818C85.9812 16.9767 85.951 16.9831 85.9263 16.9998C85.9016 17.0165 85.8843 17.042 85.8781 17.0712C85.7957 17.5069 85.7368 17.9467 85.7017 18.3888C85.6981 18.4139 85.7024 18.4395 85.714 18.4621C85.7256 18.4847 85.7439 18.5031 85.7665 18.5148C85.8613 18.5703 85.9699 18.5978 86.0797 18.594C86.2309 18.576 86.2129 18.36 86.0617 18.36Z" fill="#56403D"/>
<path d="M86.8103 18.4428C86.7463 18.5987 86.6239 18.7235 86.4693 18.7907C86.3148 18.8579 86.1401 18.8622 85.9823 18.8028C85.8887 18.7704 85.8491 18.918 85.9427 18.9504C86.1315 19.0193 86.3393 19.0147 86.5248 18.9373C86.7103 18.8599 86.8598 18.7154 86.9435 18.5328C86.9867 18.432 86.8535 18.36 86.8103 18.4428Z" fill="#56403D"/>
<path d="M86.6087 17.8164C86.5782 17.8164 86.5489 17.8285 86.5273 17.8501C86.5057 17.8718 86.4935 17.9011 86.4935 17.9316C86.4935 17.9622 86.5057 17.9915 86.5273 18.0131C86.5489 18.0347 86.5782 18.0468 86.6087 18.0468C86.6393 18.0468 86.6686 18.0347 86.6902 18.0131C86.7118 17.9915 86.7239 17.9622 86.7239 17.9316C86.7239 17.9011 86.7118 17.8718 86.6902 17.8501C86.6686 17.8285 86.6393 17.8164 86.6087 17.8164Z" fill="#56403D"/>
<path d="M85.1795 17.5068C85.149 17.5068 85.1197 17.519 85.0981 17.5406C85.0765 17.5622 85.0643 17.5915 85.0643 17.622C85.0643 17.6526 85.0765 17.6819 85.0981 17.7035C85.1197 17.7251 85.149 17.7372 85.1795 17.7372C85.2101 17.7372 85.2394 17.7251 85.261 17.7035C85.2826 17.6819 85.2947 17.6526 85.2947 17.622C85.2947 17.5915 85.2826 17.5622 85.261 17.5406C85.2394 17.519 85.2101 17.5068 85.1795 17.5068Z" fill="#56403D"/>
<path d="M87.84 17.9316C87.84 17.9316 88.2684 16.2324 88.7436 16.794C89.2187 17.3556 87.9732 18.576 87.9732 18.576" fill="#FBB5AD"/>
<path d="M88.2828 13.5685C88.2828 13.5685 89.8668 13.7377 90.3276 15.0085C90.7884 16.2793 89.6076 18.7777 88.7544 19.1701L89.784 16.9669L89.7336 15.4801L88.2828 13.5685Z" fill="#5C2E2E"/>
<path d="M90.3024 15.5664C90.1728 14.6844 89.5824 14.256 88.8228 13.8024L88.632 13.7016C88.7845 13.5822 88.9077 13.4295 88.992 13.2552C89.0021 13.2376 89.0075 13.2176 89.0074 13.1973C89.0074 13.177 89.002 13.1571 88.9917 13.1395C88.9815 13.122 88.9668 13.1074 88.9491 13.0974C88.9315 13.0874 88.9115 13.0822 88.8912 13.0824C88.7912 13.0864 88.6931 13.1111 88.6032 13.1552C88.5134 13.1992 88.4336 13.2614 88.3692 13.338C88.2789 13.1559 88.157 12.9914 88.0092 12.852C87.9946 12.8383 87.9767 12.8285 87.9573 12.8235C87.9379 12.8186 87.9175 12.8186 87.8981 12.8236C87.8787 12.8287 87.8609 12.8385 87.8463 12.8523C87.8317 12.8661 87.8209 12.8833 87.8148 12.9024C87.7801 12.9878 87.7646 13.0799 87.7696 13.172C87.7746 13.2641 87.7998 13.354 87.8436 13.4352C87.0469 13.2687 86.2168 13.3966 85.5072 13.7952C85.2447 13.9431 85.0204 14.1502 84.852 14.4C84.6357 14.3771 84.4173 14.4158 84.222 14.5116C84.0127 14.609 83.8411 14.7722 83.7332 14.9763C83.6253 15.1804 83.5871 15.4142 83.6244 15.642C83.6976 15.8769 83.86 16.0737 84.0767 16.1902C84.2935 16.3066 84.5473 16.3334 84.7836 16.2648C85.0298 16.2192 85.2603 16.1113 85.4532 15.9516C85.3092 16.1928 85.2372 16.5024 85.7052 16.6104C86.5188 16.7976 86.904 16.3116 86.9544 16.7184C86.9976 17.0496 87.4548 17.2332 87.7824 17.2404C87.8076 17.2908 87.8688 17.424 87.9408 17.6004C88.1045 17.5462 88.2796 17.5363 88.4484 17.5716C88.4614 17.557 88.4776 17.5458 88.4958 17.5388C88.514 17.5319 88.5336 17.5293 88.5529 17.5314C88.5723 17.5335 88.5909 17.5402 88.6071 17.551C88.6234 17.5617 88.6368 17.5762 88.6464 17.5932C88.9272 18.0756 88.8624 18.6012 88.7544 19.1592C89.199 18.7839 89.5659 18.3253 89.8344 17.8092C90.2067 17.1236 90.3695 16.3437 90.3024 15.5664ZM87.9984 13.194L88.0308 13.2444C88.0289 13.2563 88.0289 13.2684 88.0308 13.2804C88.0308 13.3164 88.0596 13.356 88.074 13.392C88.0325 13.3334 88.0064 13.2653 87.9984 13.194Z" fill="#5C2E2E"/>
<path d="M96.7572 36.72L107.086 42.7428C107.181 42.7988 107.26 42.8787 107.315 42.9747C107.37 43.0707 107.399 43.1794 107.399 43.29C107.399 43.4017 107.37 43.5113 107.314 43.6079C107.258 43.7046 107.177 43.7847 107.08 43.8402C106.984 43.8958 106.874 43.9247 106.762 43.9242C106.651 43.9237 106.541 43.8937 106.445 43.8372L96.12 37.8504C96.0239 37.795 95.9441 37.7152 95.8885 37.6192C95.8329 37.5231 95.8035 37.4142 95.8032 37.3032V37.2672C95.8031 37.1556 95.8325 37.0459 95.8884 36.9493C95.9443 36.8527 96.0247 36.7726 96.1216 36.717C96.2184 36.6615 96.3282 36.6325 96.4398 36.6331C96.5514 36.6336 96.6609 36.6636 96.7572 36.72Z" fill="#FDC49A"/>
<path d="M96.7573 39.9599L107.086 45.9827C107.181 46.0387 107.26 46.1186 107.315 46.2146C107.37 46.3106 107.399 46.4193 107.399 46.5299C107.399 46.6416 107.37 46.7512 107.314 46.8479C107.258 46.9445 107.177 47.0246 107.08 47.0801C106.984 47.1357 106.874 47.1646 106.762 47.1641C106.651 47.1636 106.541 47.1336 106.445 47.0772L96.1201 41.1083C96.024 41.0529 95.9441 40.9731 95.8885 40.8771C95.8329 40.7811 95.8035 40.6721 95.8033 40.5611V40.5251C95.7999 40.412 95.8269 40.3 95.8815 40.2009C95.9361 40.1017 96.0162 40.019 96.1136 39.9613C96.211 39.9036 96.3221 39.873 96.4353 39.8728C96.5484 39.8726 96.6596 39.9027 96.7573 39.9599Z" fill="#FDC49A"/>
<path d="M96.7572 43.2324L107.086 49.2552C107.181 49.3111 107.26 49.391 107.315 49.487C107.37 49.583 107.399 49.6918 107.399 49.8024C107.399 49.914 107.37 50.0237 107.314 50.1203C107.258 50.2169 107.177 50.297 107.08 50.3526C106.984 50.4081 106.874 50.4371 106.762 50.4365C106.651 50.436 106.541 50.406 106.445 50.3496L96.12 44.3628C96.0239 44.3073 95.9441 44.2275 95.8885 44.1315C95.8329 44.0355 95.8035 43.9265 95.8032 43.8156V43.7796C95.8031 43.6679 95.8325 43.5583 95.8884 43.4617C95.9443 43.365 96.0247 43.2849 96.1216 43.2294C96.2184 43.1738 96.3282 43.1449 96.4398 43.1454C96.5514 43.1459 96.6609 43.1759 96.7572 43.2324Z" fill="#FDC49A"/>
<path d="M96.7572 46.4868L107.086 52.5096C107.181 52.5655 107.26 52.6454 107.315 52.7414C107.37 52.8374 107.399 52.9462 107.399 53.0568C107.399 53.1684 107.37 53.2781 107.314 53.3747C107.258 53.4713 107.177 53.5514 107.08 53.607C106.984 53.6625 106.874 53.6915 106.762 53.6909C106.651 53.6904 106.541 53.6604 106.445 53.604L96.12 47.6208C96.0239 47.5653 95.9441 47.4855 95.8885 47.3895C95.8329 47.2935 95.8035 47.1845 95.8032 47.0736V47.0376C95.8025 46.9256 95.8314 46.8155 95.8871 46.7184C95.9427 46.6213 96.0231 46.5406 96.12 46.4847C96.2169 46.4287 96.327 46.3994 96.4389 46.3998C96.5508 46.4002 96.6607 46.4302 96.7572 46.4868Z" fill="#FAEDD4"/>
<path d="M70.8301 25.4592V35.8848L62.7625 31.2624V20.9268L70.8301 25.4592Z" fill="#E35541"/>
<path d="M63.6948 31.2625V33.8112L65.7504 32.022L63.6948 31.2625Z" fill="#E35541"/>
<path d="M65.9448 26.514L64.1448 27.6228C64.089 27.6558 64.0486 27.7096 64.0324 27.7724C64.0162 27.8351 64.0256 27.9018 64.0584 27.9576L65.4624 29.8692C65.646 30.1212 66.0708 29.8692 65.8836 29.6244L64.4616 27.72L64.3752 28.0548L66.1752 26.946C66.4416 26.784 66.1968 26.3592 65.9304 26.5248L65.9448 26.514Z" fill="white"/>
<path d="M67.1652 27.5004L68.6592 29.6136L68.7456 29.2788L66.9168 30.1932C66.636 30.3336 66.8844 30.7548 67.1616 30.6144L68.9904 29.7C69.0462 29.667 69.0866 29.6132 69.1028 29.5505C69.119 29.4877 69.1097 29.4211 69.0768 29.3652L67.5828 27.252C67.4028 26.9964 66.978 27.252 67.1616 27.4968L67.1652 27.5004Z" fill="white"/>
<path d="M107.053 39.1247C107.373 39.1247 107.633 38.8427 107.633 38.4947C107.633 38.1468 107.373 37.8647 107.053 37.8647C106.733 37.8647 106.474 38.1468 106.474 38.4947C106.474 38.8427 106.733 39.1247 107.053 39.1247Z" fill="#155A93"/>
<path d="M105.203 38.178C105.523 38.178 105.782 37.8959 105.782 37.548C105.782 37.2 105.523 36.918 105.203 36.918C104.883 36.918 104.623 37.2 104.623 37.548C104.623 37.8959 104.883 38.178 105.203 38.178Z" fill="#659FE4"/>
<path d="M103.352 37.26C103.673 37.26 103.932 36.9779 103.932 36.63C103.932 36.2821 103.673 36 103.352 36C103.032 36 102.773 36.2821 102.773 36.63C102.773 36.9779 103.032 37.26 103.352 37.26Z" fill="#C5E9FF"/>
<path d="M45.8892 44.7839L58.5684 51.9731L63.1908 49.5971" stroke="white" stroke-miterlimit="10"/>
<path d="M58.5288 52.0776V54.9828" stroke="white" stroke-miterlimit="10"/>
<path d="M49.428 49.68C49.1621 49.6313 48.9138 49.5133 48.708 49.338C48.5799 49.1001 48.5272 48.8289 48.5568 48.5604C48.5568 48.3204 48.5568 48.0696 48.5568 47.808C48.5428 47.7967 48.5313 47.7824 48.5232 47.7663C48.5151 47.7501 48.5106 47.7324 48.51 47.7144C48.4962 47.5106 48.4962 47.3062 48.51 47.1024L47.4804 47.0016C47.3024 47.6474 47.1594 48.3023 47.052 48.9636C47.0808 49.1652 48.06 50.5044 48.5604 50.5944C49.0608 50.6844 50.4432 50.2344 50.5584 50.058C50.184 49.9464 49.8024 49.8276 49.428 49.68Z" fill="#FBB5AD"/>
<path d="M56.5489 46.0224C55.9633 46.0267 55.3792 46.0809 54.8029 46.1844C54.8029 46.1844 54.6049 45.036 54.6337 44.9784L53.1685 45.0792C53.1685 45.0792 52.9849 47.2104 52.9849 47.4912C52.9849 48.006 53.6257 48.1716 53.7661 48.15C53.867 48.1155 53.9656 48.0746 54.0613 48.0276C54.0081 47.762 53.9803 47.492 53.9785 47.2212C53.9785 47.0988 54.0109 47.0088 54.1297 46.9656C54.4114 46.9291 54.6978 46.9549 54.9685 47.0412C55.2313 47.0916 55.4905 47.1528 55.7533 47.1996C56.1601 47.0245 56.5339 46.781 56.8585 46.4796C56.9521 46.1952 57.0709 46.1268 56.5489 46.0224Z" fill="#FBB5AD"/>
<path d="M57.0384 46.116L57.0024 46.0764C56.8908 45.9684 56.5956 45.9792 56.4588 45.972C55.9002 45.9757 55.3442 46.0471 54.8028 46.1844C54.8028 46.1844 56.1312 46.0044 56.1816 46.242C56.2031 46.3374 56.2022 46.4363 56.1791 46.5313C56.156 46.6262 56.1113 46.7145 56.0484 46.7892C55.494 47.2824 54.6264 46.7388 54.0864 46.5048L53.082 46.0728L53.0172 46.89C52.9824 47.2636 52.9824 47.6397 53.0172 48.0132C53.0856 48.1284 53.6796 48.4416 53.8056 48.3732C53.9316 48.3048 54.3204 48.0744 54.3204 48.0744L54.2412 47.0881C54.2412 47.0881 55.0692 47.4481 55.4616 47.3473C55.7604 47.2753 57.384 46.5769 57.0384 46.116Z" fill="#56403D"/>
<path d="M48.0059 49.0069C48.0059 49.0069 48.5459 50.6917 48.7259 50.8069C48.9059 50.9221 50.9939 50.2561 50.6843 49.8601C50.4863 49.6081 49.2443 49.6117 49.1255 49.5793C49.1255 49.5793 49.7843 49.7953 49.7843 49.8997C49.5393 50.1171 49.2369 50.2595 48.9131 50.3101C48.8699 50.2309 47.9699 48.7549 47.9699 48.7549L47.1239 48.4561L46.4399 50.0005L47.0303 50.2525C47.0303 50.2525 47.2103 50.7241 47.2715 50.7241C47.4742 50.4488 47.6559 50.1588 47.8151 49.8565C47.854 50.0704 47.9231 50.2776 48.0203 50.4721C48.1031 50.5333 48.7907 51.0985 49.1003 50.6665L48.5207 50.0149" fill="#56403D"/>
<path d="M46.4399 50.0004L46.5479 50.3856L47.2715 50.724V50.0004L46.8539 49.8564" fill="#56403D"/>
<path d="M52.3116 45.6588C52.9474 45.807 53.6089 45.8059 54.2442 45.6553C54.8794 45.5048 55.4711 45.209 55.9728 44.7912C55.9944 42.6312 56.196 40.662 56.1312 38.4948C56.0268 34.956 55.512 31.482 53.028 28.7208L48.5064 28.026C46.6704 31.518 46.296 47.4912 46.296 47.4912C46.296 47.4912 48.6 48.96 50.3532 48.24L51.0336 34.92C51.0336 34.92 52.2324 36.3384 52.4484 37.1304C52.6068 37.728 52.2828 42.984 52.3116 45.6588Z" fill="#999A1C"/>
<path d="M33.1741 40.9752C37.582 40.9752 41.1553 39.2087 41.1553 37.0296C41.1553 34.8505 37.582 33.084 33.1741 33.084C28.7662 33.084 25.1929 34.8505 25.1929 37.0296C25.1929 39.2087 28.7662 40.9752 33.1741 40.9752Z" fill="#6DE1FC"/>
<path d="M33.1741 40.9752C37.582 40.9752 41.1553 39.2087 41.1553 37.0296C41.1553 34.8505 37.582 33.084 33.1741 33.084C28.7662 33.084 25.1929 34.8505 25.1929 37.0296C25.1929 39.2087 28.7662 40.9752 33.1741 40.9752Z" fill="#663535"/>
<path d="M117.277 75.0204L110.826 78.84C110.826 78.84 112.824 82.3464 117.752 84.4164L125.28 80.3808" fill="url(#paint3_linear)"/>
<path d="M122.659 80.6833C125.964 80.6833 128.642 78.7959 128.642 76.4677C128.642 74.1395 125.964 72.2521 122.659 72.2521C119.355 72.2521 116.676 74.1395 116.676 76.4677C116.676 78.7959 119.355 80.6833 122.659 80.6833Z" fill="#232742"/>
<path d="M122.656 75.816C125.131 75.816 127.138 74.994 127.138 73.98C127.138 72.9661 125.131 72.144 122.656 72.144C120.18 72.144 118.174 72.9661 118.174 73.98C118.174 74.994 120.18 75.816 122.656 75.816Z" fill="#974C26"/>
<path d="M122.49 70.92C122.49 70.092 122.461 69.264 122.396 68.4396C122.38 68.226 122.36 68.0124 122.339 67.7988L122.292 67.3776C122.274 67.2552 122.227 66.9348 122.227 66.9492C122.198 66.7812 122.17 66.6132 122.141 66.4452C121.651 63.636 120.559 60.9661 118.94 58.6188C118.332 60.0691 118.03 61.6291 118.051 63.2016C118.051 63.6552 118.087 64.1088 118.127 64.5624C118.127 64.6848 118.127 64.7352 118.127 64.7532C118.127 64.7712 118.127 64.7244 118.145 64.8288C118.181 65.052 118.224 65.2752 118.267 65.4948C118.448 66.3389 118.688 67.169 118.987 67.9788C119.253 68.723 119.577 69.4452 119.956 70.1388C120.362 70.92 120.805 71.6832 121.28 72.4248C121.64 73.0044 122 73.5264 122.36 74.0196C122.44 72.99 122.49 71.9532 122.49 70.92ZM120.136 61.614C120.152 61.5069 120.144 61.3975 120.114 61.2936C120.229 61.4112 120.341 61.5312 120.449 61.6536C120.347 61.6243 120.241 61.6109 120.136 61.614Z" fill="#999A1C"/>
<path d="M124.034 71.5572C124.484 70.8624 124.906 70.1496 125.298 69.4188C125.399 69.2292 125.498 69.0384 125.597 68.8464L125.784 68.4648L125.96 68.0688C126.028 67.9128 126.094 67.7556 126.158 67.5972C127.264 64.9697 127.789 62.134 127.696 59.2848C126.395 60.1742 125.292 61.3225 124.456 62.658C124.214 63.0432 123.995 63.4392 123.782 63.8424L123.692 64.0116C123.692 64.0116 123.692 63.99 123.667 64.0872C123.577 64.296 123.491 64.5048 123.412 64.7136C123.105 65.5192 122.855 66.3457 122.666 67.1868C122.485 67.9574 122.365 68.741 122.306 69.5304C122.224 70.4088 122.188 71.2908 122.184 72.1692C122.184 72.8568 122.184 73.4868 122.227 74.0916C122.872 73.2744 123.48 72.4284 124.034 71.5572ZM127.08 62.4564C127.151 62.3751 127.204 62.2793 127.235 62.1756C127.268 62.3364 127.297 62.4984 127.321 62.6616C127.252 62.5811 127.171 62.5119 127.08 62.4564Z" fill="#999A1C"/>
<path d="M124.002 73.62C124.468 73.38 124.925 73.1316 125.374 72.8748L125.734 72.6624L125.957 72.5184L126.18 72.3636L126.439 72.1728C127.884 71.1121 129.083 69.7514 129.953 68.184C128.966 68.2473 128.003 68.5132 127.123 68.9652C126.868 69.0948 126.623 69.2388 126.378 69.3864L126.274 69.4476C126.274 69.4476 126.274 69.4476 126.238 69.48C126.122 69.5628 126.007 69.6492 125.896 69.7356C125.47 70.0666 125.068 70.4275 124.693 70.8156C124.347 71.1729 124.029 71.5568 123.743 71.964C123.415 72.4104 123.109 72.8748 122.825 73.35C122.602 73.71 122.407 74.07 122.227 74.4012C122.821 74.16 123.415 73.9116 124.002 73.62ZM128.585 69.6924C128.65 69.6721 128.71 69.6377 128.761 69.5916C128.728 69.69 128.692 69.7872 128.653 69.8832C128.641 69.8163 128.617 69.752 128.585 69.6924Z" fill="#999A1C"/>
<path d="M122.49 70.92C122.49 70.092 122.461 69.264 122.396 68.4396C122.38 68.226 122.36 68.0124 122.339 67.7988L122.292 67.3776C122.274 67.2552 122.227 66.9348 122.227 66.9492C122.198 66.7812 122.17 66.6132 122.141 66.4452C121.651 63.636 120.559 60.9661 118.94 58.6188C118.332 60.0691 118.03 61.6291 118.051 63.2016C118.051 63.6552 118.087 64.1088 118.127 64.5624C118.127 64.6848 118.127 64.7352 118.127 64.7532C118.127 64.7712 118.127 64.7244 118.145 64.8288C118.181 65.052 118.224 65.2752 118.267 65.4948C118.448 66.3389 118.688 67.169 118.987 67.9788C119.253 68.723 119.577 69.4452 119.956 70.1388C120.362 70.92 120.805 71.6832 121.28 72.4248C121.64 73.0044 122 73.5264 122.36 74.0196C122.44 72.99 122.49 71.9532 122.49 70.92ZM120.136 61.614C120.152 61.5069 120.144 61.3975 120.114 61.2936C120.229 61.4112 120.341 61.5312 120.449 61.6536C120.347 61.6243 120.241 61.6109 120.136 61.614Z" fill="#999A1C"/>
<path d="M124.034 71.5572C124.484 70.8624 124.906 70.1496 125.298 69.4188C125.399 69.2292 125.498 69.0384 125.597 68.8464L125.784 68.4648L125.96 68.0688C126.028 67.9128 126.094 67.7556 126.158 67.5972C127.264 64.9697 127.789 62.134 127.696 59.2848C126.395 60.1742 125.292 61.3225 124.456 62.658C124.214 63.0432 123.995 63.4392 123.782 63.8424L123.692 64.0116C123.692 64.0116 123.692 63.99 123.667 64.0872C123.577 64.296 123.491 64.5048 123.412 64.7136C123.105 65.5192 122.855 66.3457 122.666 67.1868C122.485 67.9574 122.365 68.741 122.306 69.5304C122.224 70.4088 122.188 71.2908 122.184 72.1692C122.184 72.8568 122.184 73.4868 122.227 74.0916C122.872 73.2744 123.48 72.4284 124.034 71.5572ZM127.08 62.4564C127.151 62.3751 127.204 62.2793 127.235 62.1756C127.268 62.3364 127.297 62.4984 127.321 62.6616C127.252 62.5811 127.171 62.5119 127.08 62.4564Z" fill="#999A1C"/>
<path d="M124.002 73.62C124.468 73.38 124.925 73.1316 125.374 72.8748L125.734 72.6624L125.957 72.5184L126.18 72.3636L126.439 72.1728C127.884 71.1121 129.083 69.7514 129.953 68.184C128.966 68.2473 128.003 68.5132 127.123 68.9652C126.868 69.0948 126.623 69.2388 126.378 69.3864L126.274 69.4476C126.274 69.4476 126.274 69.4476 126.238 69.48C126.122 69.5628 126.007 69.6492 125.896 69.7356C125.47 70.0666 125.068 70.4275 124.693 70.8156C124.347 71.1729 124.029 71.5568 123.743 71.964C123.415 72.4104 123.109 72.8748 122.825 73.35C122.602 73.71 122.407 74.07 122.227 74.4012C122.821 74.16 123.415 73.9116 124.002 73.62ZM128.585 69.6924C128.65 69.6721 128.71 69.6377 128.761 69.5916C128.728 69.69 128.692 69.7872 128.653 69.8832C128.641 69.8163 128.617 69.752 128.585 69.6924Z" fill="#999A1C"/>
<defs>
<linearGradient id="paint0_linear" x1="32.1372" y1="46.71" x2="25.74" y2="54.702" gradientUnits="userSpaceOnUse">
<stop stop-color="#D4A397"/>
<stop offset="0.99" stop-color="#FFD6A9"/>
</linearGradient>
<linearGradient id="paint1_linear" x1="7049.96" y1="5267.55" x2="6956.89" y2="5562.84" gradientUnits="userSpaceOnUse">
<stop stop-color="#D4A397"/>
<stop offset="0.99" stop-color="#FFD6A9"/>
</linearGradient>
<linearGradient id="paint2_linear" x1="3721.65" y1="2442.01" x2="3474.12" y2="2748.82" gradientUnits="userSpaceOnUse">
<stop stop-color="#D4A397"/>
<stop offset="0.99" stop-color="#FFD6A9"/>
</linearGradient>
<linearGradient id="paint3_linear" x1="4995.41" y1="2049.5" x2="4846.58" y2="2300.61" gradientUnits="userSpaceOnUse">
<stop stop-color="#D4A397"/>
<stop offset="0.99" stop-color="#FFD6A9"/>
</linearGradient>
</defs>
</svg>
