<svg width="1365" height="283" viewBox="0 0 1365 283" fill="none" xmlns="http://www.w3.org/2000/svg">
<path d="M-46 0H1406V223.073C1406 242.746 1387.38 257.095 1368.36 252.083L1229.5 215.5L983 244.5L722.5 196.5L517 244.5L293 215.5L-46 262V0Z" fill="#35385B"/>
<path d="M-46 0H1406V223.073C1406 242.746 1387.38 257.095 1368.36 252.083L1229.5 215.5L983 244.5L722.5 196.5L517 244.5L293 215.5L-46 262V0Z" fill="url(#paint0_linear)"/>
<path d="M260.716 121.331L-3.35135 194.087V259.263H1365V157.709L1095.6 121.331L799.521 172.866L604.805 145.583L394.084 157.709C355.852 145.583 275.654 121.331 260.716 121.331Z" fill="white"/>
<path d="M1307.42 241.058C1292.54 255.341 1178.16 254.728 1114.76 233.776C1051.35 212.824 1062.93 179.467 1077.81 165.184C1092.69 150.901 1181.8 160.35 1245.2 181.302C1308.61 202.254 1322.3 226.775 1307.42 241.058Z" fill="#EAEAEA"/>
<path d="M242.679 139.651C254.982 145.94 241.141 181.492 213.227 198.815C185.312 216.138 153.896 208.672 141.592 202.383C129.288 196.095 157.123 188.908 185.037 171.585C212.951 154.262 230.375 133.363 242.679 139.651Z" fill="#EAEAEA"/>
<path d="M565.794 178.139C568.742 168.93 615.2 165.749 656.078 169.9C696.957 174.051 677.891 168.93 674.943 178.138C671.994 187.347 670.892 201.945 630.014 197.794C589.136 193.643 562.846 187.347 565.794 178.139Z" fill="#EAEAEA"/>
<path d="M993.734 166.434C994.774 163.186 1013.35 162.286 1029.8 163.956C1046.25 165.627 1038.53 163.719 1037.49 166.967C1036.45 170.215 1036.23 175.382 1019.78 173.711C1003.33 172.041 992.694 169.682 993.734 166.434Z" fill="#EAEAEA"/>
<path d="M280.274 157.438C281.314 154.19 299.889 153.29 316.341 154.961C332.792 156.631 325.07 154.724 324.03 157.972C322.99 161.22 322.773 166.386 306.322 164.716C289.871 163.045 279.234 160.686 280.274 157.438Z" fill="#EAEAEA"/>
<defs>
<linearGradient id="paint0_linear" x1="680" y1="1.41906e-07" x2="680" y2="262" gradientUnits="userSpaceOnUse">
<stop offset="0.0416435" stop-color="#1F2034"/>
<stop offset="1" stop-color="#262962"/>
</linearGradient>
</defs>
</svg>
