<svg width="246" height="113" viewBox="0 0 246 113" fill="none" xmlns="http://www.w3.org/2000/svg">
<path d="M245.519 85V92.6285H-3V0H160.519C207.464 0 245.519 38.0558 245.519 85Z" fill="#35385B"/>
<path d="M245.519 85V92.6285H-3V0H160.519C207.464 0 245.519 38.0558 245.519 85Z" fill="url(#paint0_linear)"/>
<path d="M46.6043 76.4607L-1.07722 92.8063V107.449H246V84.6335L197.355 76.4607L143.894 88.0388L108.735 81.9092L70.6859 84.6335C63.7826 81.9092 49.3015 76.4607 46.6043 76.4607Z" fill="white"/>
<path d="M235.603 103.359C232.916 106.568 212.263 106.43 200.815 101.723C189.366 97.0157 191.456 89.5217 194.143 86.3128C196.83 83.1039 212.92 85.2267 224.369 89.9338C235.817 94.641 238.29 100.15 235.603 103.359Z" fill="#EAEAEA"/>
<path d="M43.3473 80.5765C45.569 81.9892 43.0697 89.9767 38.0293 93.8685C32.9889 97.7604 27.3162 96.0829 25.0945 94.6702C22.8729 93.2574 27.8989 91.6427 32.9393 87.7509C37.9796 83.859 41.1257 79.1637 43.3473 80.5765Z" fill="#EAEAEA"/>
<path d="M101.691 89.2232C102.223 87.1544 110.612 86.4397 117.993 87.3724C125.374 88.305 121.932 87.1544 121.399 89.2232C120.867 91.2921 120.668 94.5717 113.287 93.6391C105.906 92.7064 101.158 91.2921 101.691 89.2232Z" fill="#EAEAEA"/>
<path d="M178.962 86.5935C179.15 85.8638 182.504 85.6616 185.474 86.037C188.445 86.4123 187.051 85.9837 186.863 86.7134C186.675 87.4432 186.636 88.6039 183.665 88.2286C180.695 87.8533 178.774 87.3233 178.962 86.5935Z" fill="#EAEAEA"/>
<path d="M50.1358 84.5725C50.3236 83.8428 53.6776 83.6406 56.6481 84.016C59.6187 84.3913 58.2244 83.9627 58.0366 84.6924C57.8488 85.4222 57.8097 86.5829 54.8391 86.2076C51.8686 85.8323 49.9481 85.3023 50.1358 84.5725Z" fill="#EAEAEA"/>
<path d="M33.8106 53.2629C33.4912 52.8265 33.6875 52.1241 34.6174 51.7899C35.5472 51.4558 36.4759 51.7539 36.7953 52.1903C37.1147 52.6267 36.9184 53.3291 35.9885 53.6633C35.0587 53.9975 34.1301 53.6993 33.8106 53.2629Z" stroke="#F7F7F7"/>
<path d="M71.5171 25.1495C71.1976 24.7131 71.394 24.0107 72.3238 23.6765C73.2537 23.3424 74.1823 23.6405 74.5017 24.0769C74.8211 24.5133 74.6248 25.2157 73.695 25.5499C72.7651 25.8841 71.8365 25.5859 71.5171 25.1495Z" stroke="#F7F7F7"/>
<path d="M81.3468 40.2649C81.1466 39.9914 81.2462 39.4905 81.9375 39.2421C82.6288 38.9936 83.2674 39.2292 83.4676 39.5028C83.6678 39.7763 83.5682 40.2772 82.8769 40.5256C82.1856 40.7741 81.547 40.5385 81.3468 40.2649Z" stroke="#F7F7F7"/>
<mask id="path-12-inside-1" fill="white">
<ellipse rx="1.21129" ry="0.964471" transform="matrix(-0.941072 0.338207 -0.590632 -0.806941 133.027 57.5109)"/>
</mask>
<path d="M132.828 57.5824C132.852 57.615 132.861 57.6456 132.863 57.6653C132.865 57.6829 132.86 57.6841 132.866 57.6709C132.88 57.6416 132.931 57.5817 133.048 57.5396L131.867 55.9257C130.929 56.2628 130.187 57.2215 130.946 58.2588L132.828 57.5824ZM133.048 57.5396C133.165 57.4975 133.264 57.5038 133.306 57.5129C133.325 57.517 133.321 57.5189 133.301 57.5077C133.28 57.4952 133.25 57.4721 133.226 57.4395L135.108 56.763C134.349 55.7257 132.805 55.5886 131.867 55.9257L133.048 57.5396ZM133.226 57.4395C133.202 57.4068 133.193 57.3762 133.191 57.3565C133.189 57.3389 133.194 57.3377 133.187 57.351C133.173 57.3802 133.123 57.4401 133.006 57.4822L134.187 59.0961C135.125 58.759 135.867 57.8003 135.108 56.763L133.226 57.4395ZM133.006 57.4822C132.889 57.5244 132.79 57.518 132.748 57.509C132.729 57.5049 132.733 57.5029 132.752 57.5141C132.774 57.5266 132.804 57.5497 132.828 57.5824L130.946 58.2588C131.705 59.2961 133.249 59.4332 134.187 59.0961L133.006 57.4822Z" fill="#F7F7F7" mask="url(#path-12-inside-1)"/>
<defs>
<linearGradient id="paint0_linear" x1="121.26" y1="5.01701e-08" x2="121.26" y2="92.6285" gradientUnits="userSpaceOnUse">
<stop offset="0.0416435" stop-color="#1F2034"/>
<stop offset="1" stop-color="#262962"/>
</linearGradient>
</defs>
</svg>
