<svg width="81" height="75" viewBox="0 0 81 75" fill="none" xmlns="http://www.w3.org/2000/svg">
<path d="M1.10998 43.0145C1.82283 45.2593 2.62869 48.6259 3.55545 50.7977C3.92267 51.7385 7.56987 57.6402 7.96118 58.5809C8.71084 60.3832 8.72375 62.0938 10.0379 63.706C10.772 64.6067 11.7948 64.9424 12.8424 65.3602C13.9134 65.7873 14.8682 66.4339 15.9187 66.8996C17.5886 67.6401 20.9358 68.9554 20.9358 68.9554C20.9358 68.9554 26.8129 70.9621 29.8248 71.5466C29.8248 71.5466 38.8624 73 43.4399 73C47.5902 73 60.6489 72.2069 64.5758 71.0303C66.7545 70.3775 68.9675 69.8565 70.5924 68.2191C71.4296 67.3754 76.5643 51.927 77.2301 50.7594C77.8959 49.5918 78.4548 47.8448 79.0933 46.3419C80.1209 43.9232 80.1895 41.884 79.7241 39.3619C79.5183 38.2469 78.4916 37.5468 78.4916 36.2639C77.7118 34.6463 76.3078 25.9273 75.0758 24.7133C74.1709 23.8217 72.9446 23.2828 72.0383 22.3898C71.0758 21.4414 70.6365 20.1516 69.9228 19.0528C69.1599 17.8783 68.1034 17.0655 67.1668 16.0504C66.6674 15.5091 65.9444 14.8265 65.1289 14.8265C64.3046 14.8265 62.8575 13.3136 62.4214 12.7612C61.2164 11.2346 60.3268 9.52445 59.549 7.75084C58.7597 5.95101 58.5245 3.89876 56.9288 2.56839C56.4289 2.15157 55.7316 1.83779 55.2985 1.36361C54.2202 0.183128 52.5478 2.21797 51.378 2.64488C50.4293 2.99108 50.2649 3.28344 49.8059 4.15563C49.2172 5.27435 48.294 6.19987 47.3992 7.08152C45.656 8.79919 42.5935 11.6815 42.0328 12.0154C41.472 12.3492 37.8835 15.2981 36.8507 16.5285C35.6183 17.782 34.4082 19.0588 33.037 20.1715C30.9964 21.8273 28.581 22.638 26.0014 21.9691C25.0349 21.7185 24.1124 21.3884 23.1289 21.1946C22.0353 20.9791 20.4937 20.6715 19.5286 20.0663C18.4549 19.3931 16.9156 19.6999 15.7052 19.4831C14.3965 19.2486 12.8876 19.1683 11.5906 19.4735C11.1061 19.5875 10.2899 19.4885 9.8438 19.6839C9.22449 19.9551 8.61094 20.5161 8.13585 20.9843C6.75339 22.3464 5.37681 24.136 4.30267 25.7364C3.19067 27.3933 1.79331 28.816 1.3623 30.785C1.42799 32.0148 0.739881 41.849 1.10998 43.0145Z" fill="#5769DF"/>
<path d="M1.10998 43.0145C1.82283 45.2593 2.62869 48.6259 3.55545 50.7977C3.92267 51.7385 7.56987 57.6402 7.96118 58.5809C8.71084 60.3832 8.72375 62.0938 10.0379 63.706C10.772 64.6067 11.7948 64.9424 12.8424 65.3602C13.9134 65.7873 14.8682 66.4339 15.9187 66.8996C17.5886 67.6401 20.9358 68.9554 20.9358 68.9554C20.9358 68.9554 26.8129 70.9621 29.8248 71.5466C29.8248 71.5466 38.8624 73 43.4399 73C47.5902 73 60.6489 72.2069 64.5758 71.0303C66.7545 70.3775 68.9675 69.8565 70.5924 68.2191C71.4296 67.3754 76.5643 51.927 77.2301 50.7594C77.8959 49.5918 78.4548 47.8448 79.0933 46.3419C80.1209 43.9232 80.1895 41.884 79.7241 39.3619C79.5183 38.2469 78.4916 37.5468 78.4916 36.2639C77.7118 34.6463 76.3078 25.9273 75.0758 24.7133C74.1709 23.8217 72.9446 23.2828 72.0383 22.3898C71.0758 21.4414 70.6365 20.1516 69.9228 19.0528C69.1599 17.8783 68.1034 17.0655 67.1668 16.0504C66.6674 15.5091 65.9444 14.8265 65.1289 14.8265C64.3046 14.8265 62.8575 13.3136 62.4214 12.7612C61.2164 11.2346 60.3268 9.52445 59.549 7.75084C58.7597 5.95101 58.5245 3.89876 56.9288 2.56839C56.4289 2.15157 55.7316 1.83779 55.2985 1.36361C54.2202 0.183128 52.5478 2.21797 51.378 2.64488C50.4293 2.99108 50.2649 3.28344 49.8059 4.15563C49.2172 5.27435 48.294 6.19987 47.3992 7.08152C45.656 8.79919 42.5935 11.6815 42.0328 12.0154C41.472 12.3492 37.8835 15.2981 36.8507 16.5285C35.6183 17.782 34.4082 19.0588 33.037 20.1715C30.9964 21.8273 28.581 22.638 26.0014 21.9691C25.0349 21.7185 24.1124 21.3884 23.1289 21.1946C22.0353 20.9791 20.4937 20.6715 19.5286 20.0663C18.4549 19.3931 16.9156 19.6999 15.7052 19.4831C14.3965 19.2486 12.8876 19.1683 11.5906 19.4735C11.1061 19.5875 10.2899 19.4885 9.8438 19.6839C9.22449 19.9551 8.61094 20.5161 8.13585 20.9843C6.75339 22.3464 5.37681 24.136 4.30267 25.7364C3.19067 27.3933 1.79331 28.816 1.3623 30.785C1.42799 32.0148 0.739881 41.849 1.10998 43.0145Z" fill="url(#paint0_linear)"/>
<path d="M1.10998 43.0145C1.82283 45.2593 2.62869 48.6259 3.55545 50.7977C3.92267 51.7385 7.56987 57.6402 7.96118 58.5809C8.71084 60.3832 8.72375 62.0938 10.0379 63.706C10.772 64.6067 11.7948 64.9424 12.8424 65.3602C13.9134 65.7873 14.8682 66.4339 15.9187 66.8996C17.5886 67.6401 20.9358 68.9554 20.9358 68.9554C20.9358 68.9554 26.8129 70.9621 29.8248 71.5466C29.8248 71.5466 38.8624 73 43.4399 73C47.5902 73 60.6489 72.2069 64.5758 71.0303C66.7545 70.3775 68.9675 69.8565 70.5924 68.2191C71.4296 67.3754 76.5643 51.927 77.2301 50.7594C77.8959 49.5918 78.4548 47.8448 79.0933 46.3419C80.1209 43.9232 80.1895 41.884 79.7241 39.3619C79.5183 38.2469 78.4916 37.5468 78.4916 36.2639C77.7118 34.6463 76.3078 25.9273 75.0758 24.7133C74.1709 23.8217 72.9446 23.2828 72.0383 22.3898C71.0758 21.4414 70.6365 20.1516 69.9228 19.0528C69.1599 17.8783 68.1034 17.0655 67.1668 16.0504C66.6674 15.5091 65.9444 14.8265 65.1289 14.8265C64.3046 14.8265 62.8575 13.3136 62.4214 12.7612C61.2164 11.2346 60.3268 9.52445 59.549 7.75084C58.7597 5.95101 58.5245 3.89876 56.9288 2.56839C56.4289 2.15157 55.7316 1.83779 55.2985 1.36361C54.2202 0.183128 52.5478 2.21797 51.378 2.64488C50.4293 2.99108 50.2649 3.28344 49.8059 4.15563C49.2172 5.27435 48.294 6.19987 47.3992 7.08152C45.656 8.79919 42.5935 11.6815 42.0328 12.0154C41.472 12.3492 37.8835 15.2981 36.8507 16.5285C35.6183 17.782 34.4082 19.0588 33.037 20.1715C30.9964 21.8273 28.581 22.638 26.0014 21.9691C25.0349 21.7185 24.1124 21.3884 23.1289 21.1946C22.0353 20.9791 20.4937 20.6715 19.5286 20.0663C18.4549 19.3931 16.9156 19.6999 15.7052 19.4831C14.3965 19.2486 12.8876 19.1683 11.5906 19.4735C11.1061 19.5875 10.2899 19.4885 9.8438 19.6839C9.22449 19.9551 8.61094 20.5161 8.13585 20.9843C6.75339 22.3464 5.37681 24.136 4.30267 25.7364C3.19067 27.3933 1.79331 28.816 1.3623 30.785C1.42799 32.0148 0.739881 41.849 1.10998 43.0145Z" stroke="#EAECFF" stroke-width="2" stroke-linecap="round" stroke-linejoin="round"/>
<path d="M40.8685 26.8849C40.8079 26.9544 39.1968 28.4739 40.1435 28.4739C40.5104 28.4739 41.0982 28.3815 41.408 28.1118C42.0967 27.5123 40.6911 27.1368 40.447 27.1062C39.8977 27.0372 39.1939 27.1199 38.9296 27.79C38.3938 29.1482 40.3567 28.7224 40.8685 28.4336C41.1682 28.2645 42.2587 27.3131 41.5598 26.8849C40.9137 26.4892 39.8164 26.6348 39.233 27.1062C38.9035 27.3725 37.9945 28.6626 38.8453 28.9163C39.764 29.1903 41.2051 28.7559 41.9897 28.1319C42.5617 27.677 42.8014 26.6217 41.9644 26.4425C41.1522 26.2685 40.3674 26.2482 39.663 26.7944C39.3259 27.0558 38.711 27.8804 38.9211 28.4236C39.1817 29.0971 40.3906 28.915 40.8601 28.856C42.6017 28.6373 42.7943 25.7055 40.7167 26.4726C39.887 26.779 39.2821 28.3879 40.565 28.3029C41.028 28.2722 42.1499 27.428 41.172 27.428" stroke="#162AB1" stroke-width="2" stroke-linecap="round" stroke-linejoin="round"/>
<path d="M47.8644 29C48.0881 29 49.0789 29 49.2034 29" stroke="#162AB1" stroke-width="2" stroke-linecap="round" stroke-linejoin="round"/>
<path d="M25.1017 63.6666C25.1017 64.5795 25.1017 65.4321 25.1017 66.3333" stroke="#162AB1" stroke-width="2" stroke-linecap="round" stroke-linejoin="round"/>
<path d="M18.4068 37C18.5599 40.6049 18.5416 44.2906 18.9367 47.8774C19.0515 48.92 19.2514 50.0085 19.7193 50.9289C20.0053 51.4916 20.3769 52.0072 20.7872 52.4684C21.2755 53.0173 22.0436 52.9999 22.6866 52.9999C24.8306 52.9999 26.9746 52.9999 29.1186 52.9999" stroke="#EAECFF" stroke-width="3" stroke-linecap="round" stroke-linejoin="round"/>
<path d="M30.4576 34.3334C30.4944 38.4838 31.0277 42.5636 31.2438 46.6969C31.4037 49.7545 31.2267 52.792 31.518 55.845C31.7415 58.1866 31.566 60.5559 31.6186 62.9037C31.6463 64.1399 31.774 65.3726 31.774 66.6093" stroke="#EAECFF" stroke-width="3" stroke-linecap="round" stroke-linejoin="round"/>
<path d="M38.4915 35.6667C38.4915 45.1087 38.4915 54.5774 38.4915 64.0091C38.4915 66.3972 38.4915 73.5777 38.4915 71.1854" stroke="#EAECFF" stroke-width="3" stroke-linecap="round" stroke-linejoin="round"/>
<path d="M38.4915 34.6135C42.852 34.1229 47.4693 34.252 51.7811 35.1977C52.7145 35.4024 54.5593 35.4875 54.5593 36.9316C54.5593 38.9833 53.9665 41.1163 53.6214 43.1253C53.1686 45.7619 52.933 48.3684 52.6305 51.0252C52.043 56.1842 51.357 61.3322 50.7813 66.491C50.517 68.8592 50.2955 70.9215 49.1621 73" stroke="#EAECFF" stroke-width="3" stroke-linecap="round" stroke-linejoin="round"/>
<path d="M61.2542 42.3334C61.2542 43.2223 61.2542 44.1112 61.2542 45" stroke="#162AB1" stroke-width="3" stroke-linecap="round" stroke-linejoin="round"/>
<path d="M59.9153 51.6666C59.6598 55.5708 58.7893 59.4109 58.1125 63.2578C57.7794 65.1507 57.73 67.1593 57.2373 69" stroke="#162AB1" stroke-width="3" stroke-linecap="round" stroke-linejoin="round"/>
<path d="M71.7473 45.9086C70.7661 50.8601 69.9009 55.9967 68.6242 60.7616C68.4812 61.2951 67.106 64.6886 68.2723 63.6543C69.6566 62.4267 70.1833 61.0894 70.8895 58.9868C71.6488 56.7258 72.5304 54.7282 72.9928 52.2407C73.4497 49.7823 73.9599 47.6829 73.3734 44.9494C72.6967 41.7954 71.6849 45.7346 71.4804 46.5621" stroke="#162AB1" stroke-width="2" stroke-linecap="round" stroke-linejoin="round"/>
<path d="M6.35593 44.1653C6.93533 43.9687 8.25021 43.3781 8.89029 43.8376C9.27211 44.1116 8.79304 44.54 8.60157 44.8015C8.15613 45.4098 7.36635 44.4474 7.06972 44.2135C6.29127 43.5995 7.05453 44.5752 7.36646 44.7725C7.76964 45.0276 6.75441 44.0907 7.2221 44.5123" stroke="#162AB1" stroke-width="2" stroke-linecap="round" stroke-linejoin="round"/>
<path d="M62.467 20.5902C62.467 22.4311 56.4218 13.9235 53.0941 13.9235C49.7663 13.9235 39.7043 22.4311 39.7043 20.5902C39.7043 18.7492 49.7663 9.25684 53.0941 9.25684C56.4218 9.25684 65.8144 23.9235 62.467 20.5902Z" fill="#EAECFF"/>
<path d="M20.9639 27.0239C21.3983 28.1917 15.5103 24.2264 13.3742 25.0144C11.2381 25.8023 6.78688 33.5816 6.35245 32.4138C5.91802 31.246 10.1368 22.8421 12.2729 22.0541C14.409 21.2661 23.8992 28.3458 20.9639 27.0239Z" fill="#EAECFF"/>
<defs>
<linearGradient id="paint0_linear" x1="40.5" y1="1" x2="40.5" y2="73" gradientUnits="userSpaceOnUse">
<stop offset="0.244758" stop-color="#243ACE"/>
<stop offset="1" stop-color="white" stop-opacity="0"/>
</linearGradient>
</defs>
</svg>
