<svg width="141" height="106" viewBox="0 0 141 106" fill="none" xmlns="http://www.w3.org/2000/svg">
<path d="M8.68916 66.9531L65.417 100.205C66.4525 100.812 67.6329 101.126 68.8324 101.113C70.0318 101.1 71.2052 100.76 72.2273 100.131L134.69 61.6955C135.014 61.4959 135.279 61.2139 135.458 60.8783C135.638 60.5427 135.725 60.1654 135.712 59.7848C135.699 59.4042 135.585 59.034 135.383 58.7117C135.18 58.3895 134.896 58.1267 134.56 57.9502L75.1601 26.9381C74.8434 26.7729 74.4908 26.6893 74.1338 26.6948C73.7769 26.7004 73.427 26.7949 73.1156 26.9699L8.72088 63.2149C8.39118 63.4009 8.11628 63.6708 7.92393 63.9973C7.73158 64.3239 7.6286 64.6956 7.62538 65.0748C7.62216 65.454 7.71882 65.8274 7.9056 66.1572C8.09238 66.487 8.36266 66.7615 8.68916 66.9531Z" fill="#9FBAFF"/>
<path d="M41.4963 58.3883L17.7061 72.239C17.7061 72.239 54.3343 93.6474 61.0636 97.6507L81.5896 85.5844" fill="url(#paint0_linear)"/>
<path d="M83.2076 25.2209C83.2076 25.2209 81.5967 14.4266 85.1076 13.2429C88.6185 12.0592 93.6064 14.84 94.6709 18.1401C95.7355 21.4402 97.5262 33.98 95.9893 35.1213C94.4524 36.2626 83.6518 34.4606 82.8939 31.4537" fill="#F23DB4"/>
<path d="M63.4782 81.0546L32.9411 63.3809L66.2347 17.6666L96.7718 35.3404L63.4782 81.0546Z" fill="#FFB9AD"/>
<path d="M32.9552 37.4321L32.9411 44.2762V63.3809L66.2347 43.891V17.6666L32.9552 37.4321Z" fill="#FF8C79"/>
<path d="M47.7003 28.673L43.9039 26.4753C43.7593 26.3905 32.9411 33.1497 32.9411 33.1497V38.2766" fill="#FF8C79"/>
<path d="M89.0662 16.0449C89.461 15.8894 89.8628 15.7551 90.24 15.635C91.2376 15.3135 92.2633 15.0909 93.275 14.8329C93.0882 10.3456 90.3563 5.29292 85.5941 5.72045C84.9021 5.75408 84.2374 6.00086 83.6906 6.42712C82.841 7.13379 82.5203 8.29979 82.6331 9.66012C82.6815 10.2886 82.8772 10.8968 83.2043 11.4353C83.5314 11.9737 83.9806 12.4272 84.5154 12.7589C87.2861 14.5326 88.4775 15.0591 89.0662 16.0449Z" fill="#581B7A"/>
<path d="M83.3768 8.86159C83.3768 8.86159 83.5742 15.2216 85.7773 15.5749C87.9805 15.9283 89.535 12.5963 89.535 12.5963C89.535 12.5963 90.73 9.68132 89.535 8.86159C88.34 8.04185 85.1111 6.69565 83.3768 8.86159Z" fill="#FFB9AD"/>
<path d="M88.4775 17.0131C88.1955 18.6066 88.0827 20.6135 89.535 21.67C90.4838 21.518 91.4099 21.2474 92.2915 20.8644C93.2577 20.3695 94.1461 19.735 94.9282 18.9811C94.9477 18.6965 94.9477 18.4108 94.9282 18.1261C94.8225 16.3594 92.6158 1.44875 85.8901 7.25048L86.9794 9.51181C87.5046 10.6071 88.1215 11.7378 88.4281 12.9427C88.7259 14.2814 88.7427 15.6675 88.4775 17.0131Z" fill="#581B7A"/>
<path d="M83.3768 6.83705C83.3556 6.77345 84.3356 4.96438 87.9346 5.14105C92.0413 5.34598 92.4925 10.1619 92.4925 10.1619" fill="#581B7A"/>
<path d="M83.1407 8.1267C83.0737 8.2645 82.8974 10.2467 83.3768 10.8191C83.3768 10.8191 85.9501 12.1335 87.4024 12.19C87.4024 12.19 87.4024 10.5117 87.5963 10.3421C87.7901 10.1725 87.4905 7.2257 85.5905 6.8335" fill="#581B7A"/>
<path d="M35.384 70.6172C32.9552 69.2038 30.5441 67.7198 28.0907 66.3312C27.0947 65.7019 25.9614 65.3237 24.7878 65.2288C23.2932 65.1829 21.365 66.257 22.2815 67.9601C22.7363 68.8046 23.6598 69.3734 24.4459 69.8504C26.0392 70.8504 27.6642 71.8079 29.2646 72.7972C31.1857 73.9809 33.6602 76.0196 36.0854 75.7193C37.4954 75.5462 38.4507 74.4332 37.365 73.246C36.801 72.6312 35.9233 72.246 35.2042 71.8326L26.7019 66.992C26.6009 66.9329 26.4807 66.9165 26.3676 66.9463C26.2546 66.9761 26.158 67.0498 26.0991 67.151C26.0402 67.2522 26.0238 67.3727 26.0536 67.486C26.0833 67.5993 26.1568 67.6961 26.2577 67.7552L33.3994 71.822C34.1643 72.2566 34.9504 72.6736 35.7012 73.1329C35.9374 73.2778 36.3815 73.4474 36.5296 73.677C37.3544 74.9561 35.4368 74.8925 34.7424 74.737C33.4029 74.4084 32.1868 73.5887 31.0306 72.8679C29.6453 72.0058 28.2529 71.1613 26.8605 70.3133C26.0039 69.7904 21.4778 67.7587 23.8854 66.2146C24.9782 65.508 26.9134 66.6846 27.9145 67.2746C30.2645 68.6432 32.6051 70.0189 34.9363 71.4016C35.0373 71.4606 35.1575 71.477 35.2705 71.4472C35.3836 71.4174 35.4802 71.3438 35.5391 71.2426C35.598 71.1414 35.6143 71.0208 35.5846 70.9075C35.5548 70.7942 35.4814 70.6974 35.3804 70.6384L35.384 70.6172Z" fill="#2E3192"/>
<path d="M91.8685 32.5067C91.8685 32.5067 93.7403 30.7612 94.611 28.9521L94.2585 33.8988L91.8685 32.5067Z" fill="#581B7A"/>
<path d="M72.3612 23.8429L71.205 23.009C71.0105 22.8574 70.7749 22.7682 70.5289 22.753C70.283 22.7379 70.0382 22.7976 69.8267 22.9242L39.2967 41.0538C39.0233 41.2157 38.7967 41.4461 38.6391 41.7224C38.4815 41.9987 38.3983 42.3114 38.3978 42.6296V48.4314V66.197C38.3977 66.3085 38.4223 66.4187 38.4699 66.5195C38.5174 66.6203 38.5867 66.7093 38.6728 66.78L38.775 66.8506L39.9629 67.6774L40.4952 66.6457L40.0863 66.5256L71.6668 48.0533V23.9842L72.3612 23.8429Z" fill="#232742"/>
<path opacity="0.5" d="M72.3612 23.8429L71.205 23.009C71.0105 22.8574 70.7749 22.7682 70.5289 22.753C70.283 22.7379 70.0382 22.7976 69.8267 22.9242L39.2967 41.0538C39.0233 41.2157 38.7967 41.4461 38.6391 41.7224C38.4815 41.9987 38.3983 42.3114 38.3978 42.6296V48.4314V66.197C38.3977 66.3085 38.4223 66.4187 38.4699 66.5195C38.5174 66.6203 38.5867 66.7093 38.6728 66.78L38.775 66.8506L39.9629 67.6774L40.4952 66.6457L40.0863 66.5256L71.6668 48.0533V23.9842L72.3612 23.8429Z" fill="black"/>
<path d="M47.3442 43.9723C49.7271 42.8027 52.8961 43.4105 54.4224 45.6647C55.0746 46.6293 55.4412 47.866 56.4352 48.4702C56.8445 48.688 57.2996 48.8051 57.763 48.8119C58.2263 48.8186 58.6847 48.7148 59.1001 48.5091C61.6593 47.3572 62.5299 44.4599 63.4993 42.0749C64.5885 39.3931 66.0549 36.1141 68.6846 34.6549C70.0191 34.0336 71.3906 33.4955 72.7912 33.0437V24.7792C72.7911 24.5616 72.7335 24.3479 72.6244 24.1598C72.5152 23.9717 72.3583 23.8159 72.1696 23.7082C71.9809 23.6006 71.7672 23.5449 71.5501 23.5468C71.333 23.5487 71.1203 23.6082 70.9335 23.7192L40.4035 41.8487C40.1301 42.0106 39.9035 42.2411 39.7459 42.5174C39.5883 42.7937 39.5052 43.1063 39.5046 43.4246V49.2263V58.5473C40.141 55.6126 41.1034 52.7587 42.374 50.039C43.4421 47.6999 44.9508 45.1453 47.3442 43.9723Z" fill="#7162D9"/>
<path d="M72.7948 48.8412V33.0331C71.3941 33.4849 70.0226 34.023 68.6882 34.6443C66.055 36.1106 64.5886 39.3895 63.5029 42.0643C62.5335 44.4528 61.6628 47.3466 59.1037 48.4985C58.6882 48.7043 58.2299 48.8081 57.7666 48.8013C57.3032 48.7945 56.8481 48.6774 56.4388 48.4596C55.4447 47.8589 55.0781 46.6188 54.426 45.6542C52.9032 43.3999 49.7307 42.7921 47.3478 43.9617C44.9649 45.1312 43.4421 47.6999 42.3705 50.039C41.1 52.7588 40.1375 55.6127 39.5012 58.5473V66.992C39.5016 67.1269 39.5375 67.2594 39.6052 67.3761C39.6728 67.4928 39.7699 67.5896 39.8866 67.6569C40.0033 67.7242 40.1357 67.7595 40.2703 67.7594C40.405 67.7593 40.5372 67.7237 40.6538 67.6562L72.7948 48.8412Z" fill="#232742"/>
<path d="M60.2819 40.6754C60.7148 38.9978 60.2574 37.4282 59.2603 37.1698C58.2633 36.9113 57.1041 38.0618 56.6713 39.7394C56.2384 41.4171 56.6958 42.9866 57.6928 43.2451C58.6899 43.5036 59.8491 42.3531 60.2819 40.6754Z" fill="#E0FF4B"/>
<path d="M75.7452 29.1182L45.2152 47.2478C44.9418 47.4097 44.7152 47.6401 44.5575 47.9164C44.3999 48.1927 44.3168 48.5054 44.3163 48.8236V54.6254V72.391C44.3162 72.5025 44.3408 72.6126 44.3883 72.7135C44.4359 72.8143 44.5052 72.9033 44.5912 72.974L44.6935 73.0446L45.8814 73.8714L46.4137 72.8397L46.0048 72.7196L77.5993 54.2226V30.1782C77.5988 29.9611 77.5412 29.748 77.4322 29.5604C77.3232 29.3728 77.1667 29.2174 76.9786 29.1098C76.7905 29.0023 76.5773 28.9464 76.3608 28.9479C76.1442 28.9494 75.9318 29.0081 75.7452 29.1182Z" fill="#232742"/>
<path d="M77.1234 29.203L78.2973 30.0369L76.8732 30.3195" fill="#006DA8"/>
<path opacity="0.5" d="M75.7452 29.1182L45.2152 47.2478C44.9418 47.4097 44.7152 47.6401 44.5575 47.9164C44.3999 48.1927 44.3168 48.5054 44.3163 48.8236V54.6254V72.391C44.3162 72.5025 44.3408 72.6126 44.3883 72.7135C44.4359 72.8143 44.5052 72.9033 44.5912 72.974L44.6935 73.0446L45.8814 73.8714L46.4137 72.8397L46.0048 72.7196L77.5993 54.2226V30.1782C77.5988 29.9611 77.5412 29.748 77.4322 29.5604C77.3232 29.3728 77.1667 29.2174 76.9786 29.1098C76.7905 29.0023 76.5773 28.9464 76.3608 28.9479C76.1442 28.9494 75.9318 29.0081 75.7452 29.1182Z" fill="black"/>
<path d="M53.2804 50.1734C55.6633 49.0039 58.8323 49.6116 60.3586 51.8659C61.0107 52.8305 61.3773 54.0672 62.3714 54.6714C62.7807 54.8892 63.2358 55.0063 63.6992 55.0131C64.1625 55.0198 64.6208 54.916 65.0363 54.7102C67.5954 53.5584 68.4661 50.661 69.4355 48.276C70.5247 45.5942 71.9911 42.3153 74.6208 40.856C75.9547 40.2263 77.3262 39.68 78.7274 39.2201V30.9768C78.7273 30.7592 78.6697 30.5455 78.5605 30.3574C78.4513 30.1693 78.2945 30.0135 78.1058 29.9059C77.9171 29.7982 77.7034 29.7425 77.4863 29.7444C77.2692 29.7464 77.0565 29.8058 76.8697 29.9168L46.3432 48.0534C46.0698 48.2153 45.8432 48.4458 45.6856 48.7221C45.528 48.9984 45.4448 49.311 45.4443 49.6293V55.431V64.752C46.0734 61.8158 47.0288 58.9595 48.2925 56.2366C49.3782 53.8976 50.8869 51.343 53.2804 50.1734Z" fill="#7162D9"/>
<path d="M78.7274 55.0352V39.22C77.3267 39.6718 75.9552 40.2099 74.6207 40.8312C71.9876 42.2975 70.5212 45.5764 69.4355 48.2512C68.4661 50.6397 67.5954 53.5335 65.0363 54.6854C64.6208 54.8912 64.1625 54.995 63.6991 54.9882C63.2358 54.9814 62.7807 54.8643 62.3714 54.6465C61.3773 54.0458 61.0107 52.8056 60.3586 51.841C58.8358 49.5868 55.6633 48.979 53.2804 50.1486C50.8975 51.3181 49.3782 53.8974 48.2925 56.2365C47.022 58.9562 46.0595 61.8101 45.4232 64.7448V73.1894C45.4236 73.3244 45.4595 73.4569 45.5272 73.5736C45.5948 73.6903 45.6919 73.7871 45.8086 73.8544C45.9253 73.9217 46.0576 73.957 46.1923 73.9569C46.327 73.9568 46.4592 73.9212 46.5758 73.8537L78.7274 55.0352Z" fill="#232742"/>
<path d="M66.2164 46.8722C66.6492 45.1945 66.1918 43.625 65.1948 43.3665C64.1977 43.1081 63.0385 44.2586 62.6057 45.9362C62.1729 47.6139 62.6302 49.1834 63.6273 49.4419C64.6243 49.7003 65.7835 48.5499 66.2164 46.8722Z" fill="#E0FF4B"/>
<path d="M85.8972 31.8565L55.3672 49.986C55.0938 50.1479 54.8672 50.3784 54.7096 50.6547C54.552 50.931 54.4688 51.2436 54.4683 51.5619V57.3637V75.1292C54.4682 75.2408 54.4928 75.3509 54.5403 75.4518C54.5879 75.5526 54.6572 75.6416 54.7433 75.7122L54.8455 75.7829L56.0334 76.6097L56.5657 75.578L56.1568 75.4578L87.7514 56.9609V32.9165C87.7509 32.6994 87.6932 32.4863 87.5842 32.2987C87.4752 32.1111 87.3188 31.9557 87.1306 31.8481C86.9425 31.7406 86.7294 31.6847 86.5128 31.6862C86.2962 31.6877 86.0839 31.7464 85.8972 31.8565Z" fill="#232742"/>
<path d="M87.272 31.9377L88.4458 32.7751L87.0252 33.0543" fill="#006DA8"/>
<path opacity="0.5" d="M85.8972 31.8565L55.3672 49.986C55.0938 50.1479 54.8672 50.3784 54.7096 50.6547C54.552 50.931 54.4688 51.2436 54.4683 51.5619V57.3637V75.1292C54.4682 75.2408 54.4928 75.3509 54.5403 75.4518C54.5879 75.5526 54.6572 75.6416 54.7433 75.7122L54.8455 75.7829L56.0334 76.6097L56.5657 75.578L56.1568 75.4578L87.7514 56.9609V32.9165C87.7509 32.6994 87.6932 32.4863 87.5842 32.2987C87.4752 32.1111 87.3188 31.9557 87.1306 31.8481C86.9425 31.7406 86.7294 31.6847 86.5128 31.6862C86.2962 31.6877 86.0839 31.7464 85.8972 31.8565Z" fill="black"/>
<path d="M63.4288 52.9045C65.8117 51.735 68.9807 52.3427 70.507 54.597C71.1592 55.5616 71.5258 56.7983 72.5198 57.4025C72.9291 57.6203 73.3842 57.7374 73.8476 57.7441C74.3109 57.7509 74.7693 57.6471 75.1847 57.4413C77.7439 56.2895 78.6145 53.3921 79.5839 51.0071C80.6731 48.3253 82.1395 45.0464 84.7692 43.5871C86.1037 42.9658 87.4751 42.4277 88.8758 41.9759V33.7114C88.8757 33.4938 88.8181 33.2801 88.7089 33.092C88.5998 32.9039 88.4429 32.7481 88.2542 32.6405C88.0655 32.5328 87.8518 32.4771 87.6347 32.4791C87.4176 32.481 87.2049 32.5405 87.0181 32.6514L56.4881 50.781C56.2147 50.9429 55.9881 51.1733 55.8305 51.4496C55.6729 51.7259 55.5897 52.0386 55.5892 52.3568V58.1586V67.4866C56.2256 64.552 57.188 61.6981 58.4586 58.9783C59.5267 56.6322 61.0354 54.0776 63.4288 52.9045Z" fill="#7162D9"/>
<path d="M88.8794 57.7699V41.9653C87.4787 42.4171 86.1072 42.9552 84.7728 43.5765C82.1396 45.0429 80.6732 48.3218 79.5875 50.9965C78.6181 53.3851 77.7474 56.2789 75.1883 57.4307C74.7728 57.6365 74.3145 57.7403 73.8512 57.7336C73.3878 57.7268 72.9327 57.6097 72.5234 57.3919C71.5293 56.7912 71.1627 55.551 70.5106 54.5864C68.9878 52.3321 65.8153 51.7244 63.4324 52.8939C61.0495 54.0635 59.5302 56.6216 58.4586 58.9607C57.1856 61.6859 56.222 64.5458 55.5858 67.4866V75.9313C55.5862 76.0662 55.6221 76.1987 55.6898 76.3154C55.7574 76.4321 55.8545 76.529 55.9712 76.5962C56.0879 76.6635 56.2202 76.6989 56.3549 76.6987C56.4896 76.6986 56.6218 76.663 56.7384 76.5955L88.8794 57.7699Z" fill="#232742"/>
<path d="M76.3664 49.6052C76.7992 47.9276 76.3418 46.358 75.3448 46.0996C74.3477 45.8411 73.1886 46.9916 72.7557 48.6692C72.3229 50.3469 72.7803 51.9164 73.7773 52.1749C74.7744 52.4334 75.9335 51.2829 76.3664 49.6052Z" fill="#E0FF4B"/>
<path d="M92.57 78.221L85.1851 83.3938L77.6487 77.3482L83.4685 72.4404L92.57 78.221Z" fill="url(#paint1_linear)"/>
<path d="M64.0774 54.7667C63.8982 54.8733 63.7497 55.0248 63.6465 55.2063C63.5433 55.3878 63.4889 55.5931 63.4888 55.802V61.9606V81.0653L96.7824 61.5719V35.3334L64.0774 54.7667Z" fill="#FF8C79"/>
<path d="M102.412 59.7841V72.5253L92.57 78.221L84.5507 73.4439V61.6073" fill="#FFAF68"/>
<path d="M92.57 78.221V65.6529L84.5507 62.0913V73.4439L92.57 78.221Z" fill="#F49E5D"/>
<path d="M84.5507 60.943V62.0913L85.3121 62.3245L85.8197 61.5472" fill="#EA8E50"/>
<path d="M94.3079 56.1163L102.415 60.9287L92.2775 66.7799C91.9778 66.9531 84.5507 62.0735 84.5507 62.0735L94.3079 56.1163Z" fill="#EA8E50"/>
<path d="M102.412 60.9324V59.784L100.956 59.0597L101.132 61.0949" fill="#EA8E50"/>
<path d="M94.3079 54.9717L102.415 59.7841L92.2775 65.6494C91.9778 65.8225 84.5507 60.943 84.5507 60.943L94.3079 54.9717Z" fill="#FFB883"/>
<path d="M100.998 63.3774V66.0168L93.624 70.2321V67.6457L100.998 63.3774Z" fill="#EA8E50"/>
<path d="M101.097 67.317V69.9564L93.7227 74.1717V71.5853L101.097 67.317Z" fill="#EA8E50"/>
<path d="M97.9743 66.7036C97.9989 66.4452 97.8712 66.2216 97.689 66.2042C97.5068 66.1868 97.3392 66.3821 97.3146 66.6405C97.29 66.8988 97.4178 67.1224 97.5999 67.1398C97.7821 67.1572 97.9497 66.9619 97.9743 66.7036Z" fill="#FFB883"/>
<path d="M98.275 70.5071C98.2996 70.2488 98.1719 70.0252 97.9897 70.0078C97.8075 69.9904 97.6399 70.1857 97.6153 70.4441C97.5907 70.7024 97.7185 70.926 97.9007 70.9434C98.0828 70.9608 98.2504 70.7655 98.275 70.5071Z" fill="#FFB883"/>
<path d="M86.7996 66.9496L73.3553 59.3141L68.4978 62.3704L74.5749 68.5149L82.3722 72.0588" fill="#232742"/>
<path opacity="0.5" d="M86.7996 66.9496L73.3553 59.3141L68.4978 62.3704L74.5749 68.5149L82.3722 72.0588" fill="white"/>
<path d="M81.4769 70.013L68.4978 62.3704V64.3066V65.2677V78.3481L81.4769 85.5879V85.5243L81.5897 85.5879L86.7996 82.4079V69.6844V66.9496L81.4769 70.013Z" fill="#232742"/>
<path d="M82.4074 71.172V77.857L86.1686 75.6416V69.0308L82.4074 71.172Z" fill="#FFECB3"/>
<path opacity="0.2" d="M81.4768 70.013V85.5879L68.4978 78.3481V62.3704L81.4768 70.013Z" fill="black"/>
<path d="M85.4056 79.8206C85.5635 79.1422 85.318 78.5049 84.8573 78.3971C84.3966 78.2894 83.8952 78.7521 83.7373 79.4305C83.5794 80.109 83.8249 80.7463 84.2856 80.854C84.7463 80.9617 85.2478 80.499 85.4056 79.8206Z" fill="#FFECB3"/>
<path d="M92.1929 53.8833C92.1929 53.8833 90.871 59.9642 90.9732 60.314C91.2306 61.2079 94.9107 61.7273 95.9964 60.314L94.6604 53.8833H92.1929Z" fill="#F23DB4"/>
<path d="M93.3984 54.6784C94.1012 54.6784 94.671 54.3573 94.671 53.9612C94.671 53.565 94.1012 53.2439 93.3984 53.2439C92.6956 53.2439 92.1259 53.565 92.1259 53.9612C92.1259 54.3573 92.6956 54.6784 93.3984 54.6784Z" fill="#934600"/>
<path d="M95.9576 41.393C95.9576 41.393 93.4901 40.0716 91.9919 42.8064C90.4938 45.5412 92.697 46.8556 95.1468 46.9545C97.5967 47.0534 98.0303 42.3152 95.9576 41.393Z" fill="#E0FF4B"/>
<path d="M95.4852 41.393C93.4654 45.1418 93.1551 49.4666 92.9824 53.643C92.9824 53.8621 93.3138 53.8621 93.3349 53.643C93.5041 49.5302 93.8002 45.2584 95.8024 41.5661C95.88 41.3718 95.5874 41.1986 95.4852 41.393Z" fill="#1A892D"/>
<path d="M96.9375 48.382C96.9375 48.382 93.5253 48.2442 93.9201 50.5232C94.3149 52.8022 97.223 52.3428 97.6531 51.1132C98.0831 49.8836 96.9375 48.382 96.9375 48.382Z" fill="#E0FF4B"/>
<path d="M96.8811 48.4985C95.5558 50.2498 94.5291 52.209 93.8425 54.2967C93.8327 54.329 93.8361 54.3639 93.852 54.3937C93.8679 54.4236 93.8949 54.4458 93.9271 54.4557C93.9594 54.4655 93.9942 54.4621 94.024 54.4462C94.0537 54.4303 94.076 54.4032 94.0858 54.3709C94.766 52.3046 95.7832 50.3656 97.0961 48.6328C97.1948 48.5056 96.9798 48.3677 96.8811 48.4985Z" fill="#1A892D"/>
<path d="M89.4997 46.6153C89.4997 46.6153 87.6667 49.502 89.8311 50.3041C91.9954 51.1061 93.06 48.3537 92.2175 47.3643C91.375 46.375 89.4997 46.6153 89.4997 46.6153Z" fill="#E0FF4B"/>
<path d="M93.1516 54.0353C92.1998 51.3843 91.0106 48.8252 89.5984 46.3892C89.5816 46.3597 89.5538 46.338 89.521 46.3291C89.4883 46.3202 89.4534 46.3246 89.4239 46.3415C89.3945 46.3583 89.3729 46.3862 89.364 46.419C89.3551 46.4518 89.3595 46.4869 89.3763 46.5164C90.7772 48.9321 91.957 51.47 92.9013 54.0989C92.9577 54.2508 93.2045 54.1908 93.1516 54.0353Z" fill="#1A892D"/>
<path d="M87.0146 32.86C86.9591 32.8301 86.8977 32.813 86.8348 32.81C86.7718 32.8069 86.709 32.818 86.6509 32.8424C86.5928 32.8668 86.5409 32.9038 86.4989 32.9509C86.4569 32.998 86.426 33.0538 86.4083 33.1144C86.3695 33.2452 86.3237 33.3759 86.2779 33.5066C86.1754 33.5546 86.0957 33.6409 86.0558 33.7469C86.0029 33.8812 85.95 34.0119 85.8936 34.1426L85.8584 34.0826C86.0205 33.7045 85.5306 33.2911 85.2098 33.5667C85.169 33.5509 85.1263 33.5402 85.0829 33.5349C85.2873 33.4006 85.4894 33.2628 85.6892 33.1215C86.1333 32.8035 85.7068 32.0615 85.2591 32.383C84.0888 33.2169 82.6506 33.7469 81.7341 34.9306C81.6002 35.1037 80.8917 35.9552 80.9798 36.1708C81.01 36.2449 81.058 36.3105 81.1194 36.3616C81.1809 36.4128 81.254 36.4479 81.3323 36.464C81.9492 36.5488 82.2453 35.8669 82.7176 35.4712C82.4074 36.2732 81.8399 36.9516 81.7341 37.8456C81.7325 37.9054 81.7439 37.9649 81.7676 38.0199C81.7914 38.0749 81.8268 38.1239 81.8715 38.1637C81.9162 38.2034 81.969 38.2329 82.0263 38.2499C82.0836 38.267 82.1439 38.2713 82.203 38.2625L82.1113 38.4568C81.8716 38.9515 82.6083 39.3826 82.848 38.8879L82.9961 38.577C83.0237 38.642 83.0661 38.6996 83.1199 38.7452C83.1737 38.7909 83.2374 38.8232 83.306 38.8397C83.3745 38.8562 83.446 38.8564 83.5146 38.8402C83.5832 38.824 83.6471 38.792 83.7011 38.7466C83.831 38.6359 83.9546 38.5179 84.0712 38.3932C84.1094 38.4329 84.1551 38.4644 84.2057 38.486C84.2562 38.5075 84.3106 38.5186 84.3656 38.5186C84.4205 38.5186 84.4749 38.5075 84.5255 38.486C84.576 38.4644 84.6218 38.4329 84.6599 38.3932C85.4565 37.6194 85.7879 36.5594 86.3061 35.609C86.8417 34.9386 87.2939 34.2054 87.6526 33.4254C87.8747 32.9554 87.2931 32.5597 87.0146 32.86Z" fill="#FFB9AD"/>
<path d="M83.0525 36.3439L82.1325 38.1601C82.0584 38.3085 82.2805 38.4357 82.3545 38.2908L83.2569 36.4817C83.345 36.3263 83.123 36.1955 83.0525 36.3439Z" fill="#0D0D0D"/>
<path d="M83.7363 37.0082C83.5013 37.557 83.2522 38.1 82.989 38.6371C82.9185 38.7855 83.1371 38.9162 83.2111 38.7678C83.472 38.2307 83.7211 37.6878 83.9584 37.1389C84.0183 36.9905 83.7998 36.8598 83.7363 37.0082Z" fill="#0D0D0D"/>
<path d="M84.6 36.7467L83.895 38.3862C83.8315 38.5346 84.0501 38.6653 84.117 38.5169L84.822 36.8774C84.8925 36.7467 84.674 36.6089 84.6 36.7467Z" fill="#0D0D0D"/>
<path d="M88.7771 22.8218C88.7771 22.8218 85.7315 29.3726 82.8939 31.4466C82.8939 31.4466 85.3191 37.2201 88.2202 35.7608C89.2777 35.2379 94.262 30.7011 95.4817 27.1289" fill="#F23DB4"/>
<path d="M72.3401 30.2913C71.9188 30.6636 71.5263 31.0676 71.1662 31.4997C70.9054 31.8141 70.5282 32.1675 70.5987 32.6056C70.6199 32.7363 70.8208 32.6833 70.7996 32.5491C70.7327 32.1427 71.3354 31.6092 71.5892 31.3265C71.872 31.0142 72.1721 30.7181 72.4881 30.4397C72.5868 30.3513 72.4388 30.2029 72.3401 30.2913Z" fill="#0D0D0D"/>
<path d="M78.255 26.9699C78.2496 26.8729 78.2119 26.7806 78.148 26.7076C78.0841 26.6346 77.9977 26.5851 77.9025 26.5671L78.0928 26.447C78.1786 26.3892 78.2399 26.3014 78.2646 26.2008C78.2894 26.1002 78.2759 25.994 78.2268 25.9028C76.2246 27.0936 74.1096 28.097 72.1039 29.2807C71.5348 29.6886 70.9932 30.1336 70.4824 30.6128C70.1792 30.899 70.5211 31.4749 70.9089 31.2417C71.2355 31.0462 71.5598 30.8471 71.8818 30.6446C71.6104 30.9767 71.346 31.3124 71.0887 31.6551C70.8772 31.9378 70.4189 32.7434 70.9265 32.6833C71.1204 32.5844 71.6844 32.1639 71.984 31.9766L72.0898 31.9095L72.0016 31.9696C72.0757 31.9307 72.3541 31.7576 72.3541 31.7682C72.5868 31.641 72.8159 31.5067 73.0591 31.3724C73.0624 31.39 73.0709 31.4061 73.0835 31.4187C73.096 31.4313 73.1121 31.4398 73.1296 31.4431H73.1896C73.1852 31.4584 73.1844 31.4745 73.1873 31.4901C73.1902 31.5058 73.1967 31.5205 73.2063 31.5332C73.2159 31.5459 73.2283 31.5562 73.2425 31.5632C73.2567 31.5703 73.2724 31.5739 73.2883 31.5738C73.41 31.5627 73.5291 31.5317 73.6408 31.482C73.7769 31.4283 73.8979 31.3422 73.9933 31.2311C74.0005 31.2226 74.0065 31.2131 74.0109 31.2028C74.0697 31.1341 74.1194 31.0581 74.1589 30.9767C74.1661 30.9624 74.1698 30.9467 74.1698 30.9308C74.1698 30.9148 74.1661 30.8991 74.1589 30.8848L74.2224 30.7965C74.3105 30.7082 74.3881 30.6163 74.4727 30.5244L75.5478 29.8602L75.6923 29.8001L76.5066 29.528C76.5293 29.5174 76.5475 29.499 76.558 29.4762C76.5684 29.4533 76.5704 29.4275 76.5637 29.4033C76.5569 29.3791 76.5418 29.3582 76.521 29.3441C76.5002 29.3301 76.4751 29.3239 76.4502 29.3266L76.3832 29.3478L76.6018 29.21L76.9543 28.9415C77.551 28.5309 78.1049 28.0609 78.6075 27.5388C78.8507 27.2596 78.5581 26.9558 78.255 26.9699Z" fill="#FFB9AD"/>
<path d="M76.8133 29.2736C76.3832 29.6054 75.8785 29.8262 75.3434 29.9167C75.1671 29.945 74.8322 29.899 74.6736 30.0086C74.5869 30.0865 74.5255 30.1886 74.4974 30.3019C74.4044 30.5411 74.2862 30.7697 74.1449 30.9838C73.9968 31.1958 73.6267 31.5915 73.3235 31.5244C72.9005 31.429 73.5562 30.1358 73.676 29.9308C73.685 29.9074 73.6853 29.8816 73.6771 29.858C73.6688 29.8343 73.6524 29.8143 73.6309 29.8016C73.6093 29.7889 73.584 29.7843 73.5593 29.7885C73.5347 29.7928 73.5123 29.8057 73.4963 29.8249C73.3356 30.1069 73.2056 30.4054 73.1085 30.7152C73.0007 30.9632 72.9535 31.2333 72.971 31.5032C73.0768 31.9413 73.7254 31.6622 73.9475 31.5032C74.1542 31.341 74.3237 31.1362 74.4445 30.9025C74.5185 30.7647 74.5679 30.6163 74.6419 30.4785C74.6735 30.396 74.7256 30.323 74.7935 30.2665C74.9168 30.1535 74.9803 30.1711 75.146 30.157C75.7939 30.0941 76.4109 29.8491 76.9261 29.4503C77.0248 29.3726 76.919 29.1924 76.8133 29.2736Z" fill="#0D0D0D"/>
<path d="M83.2429 15.9459C83.2429 15.9459 81.1843 21.2 79.8236 22.3907C78.463 23.5815 74.1308 26.4753 74.1308 26.4753C74.1308 26.4753 74.092 29.9238 77.6558 30.5033C77.6558 30.5033 84.9455 26.3693 86.5564 25.2033" fill="#F23DB4"/>
<path d="M83.7751 21.7052L83.3098 27.6236C83.2922 27.8497 83.6447 27.8497 83.6623 27.6236L84.1276 21.7052C84.1453 21.4791 83.7928 21.4791 83.7751 21.7052Z" fill="#581B7A"/>
<defs>
<linearGradient id="paint0_linear" x1="58.6771" y1="64.2642" x2="46.8421" y2="83.3758" gradientUnits="userSpaceOnUse">
<stop stop-color="#7A7FF1"/>
<stop offset="1" stop-color="#9FBAFF"/>
</linearGradient>
<linearGradient id="paint1_linear" x1="3793.21" y1="2349.64" x2="3686.5" y2="2584.88" gradientUnits="userSpaceOnUse">
<stop stop-color="#7A7FF1"/>
<stop offset="1" stop-color="#9FBAFF"/>
</linearGradient>
</defs>
</svg>
