<svg width="152" height="114" viewBox="0 0 152 114" fill="none" xmlns="http://www.w3.org/2000/svg">
<path d="M11.4304 76.38L66.5 109.003C67.4175 109.546 68.4642 109.833 69.5305 109.833C70.5968 109.833 71.6435 109.546 72.561 109.003L141.786 68.0694C142.177 67.8377 142.501 67.5062 142.723 67.1087C142.945 66.7112 143.057 66.262 143.049 65.8068C143.04 65.3517 142.911 64.907 142.674 64.518C142.438 64.1291 142.102 63.8099 141.702 63.593L81.7494 31.1068L11.4494 72.7092C11.1275 72.8945 10.8598 73.161 10.673 73.4821C10.4863 73.8032 10.387 74.1677 10.385 74.5391C10.3831 74.9106 10.4786 75.2761 10.6621 75.5991C10.8455 75.9221 11.1104 76.1914 11.4304 76.38Z" fill="#B1A9FF"/>
<path d="M55.9436 4.07359C60.0286 6.63099 70.3076 12.578 73.8036 14.7136C74.5978 15.2 74.7194 15.9258 74.7308 16.8568V60.363C74.5149 60.6145 74.2161 60.7803 73.8885 60.8305C73.5609 60.8807 73.2261 60.8119 72.9448 60.6366L55.7004 50.8934C54.8416 50.388 54.1804 49.8674 54.1804 48.8718L54.3286 4.86399C54.3172 3.90639 55.1342 3.56819 55.9436 4.07359Z" fill="#232742"/>
<path d="M95.6498 4.74242C91.3672 7.28082 80.769 13.5546 77.5998 15.3824C77.3294 15.5394 77.1053 15.7652 76.9505 16.0369C76.7957 16.3085 76.7155 16.6163 76.7182 16.929V60.458C76.6536 61.3472 77.6568 62.168 78.4738 61.7006L96.2958 51.5546C96.6421 51.3923 96.9357 51.1359 97.1433 50.8148C97.3509 50.4936 97.4641 50.1206 97.47 49.7382V5.77982C97.4703 5.5669 97.4142 5.35768 97.3074 5.17349C97.2006 4.9893 97.0469 4.83672 96.8619 4.73129C96.6769 4.62585 96.4672 4.57134 96.2543 4.57329C96.0414 4.57525 95.8328 4.63361 95.6498 4.74242Z" fill="#232742"/>
<path d="M55.328 40.7057L70.9992 49.7421C73.1234 50.9657 75.0386 47.6825 72.8992 46.4627L57.2432 37.4225C55.119 36.1989 53.2038 39.4821 55.3432 40.7019L55.328 40.7057Z" fill="#F2F2F2"/>
<path d="M55.328 42.7347L70.9992 51.7711C73.1234 52.9947 75.0386 49.7115 72.8992 48.4917L57.228 39.4553C55.1038 38.2317 53.1886 41.5149 55.328 42.7347Z" fill="#F2F2F2"/>
<path d="M55.328 44.5626C57.988 46.1396 60.7012 47.6596 63.384 49.2138C65.5044 50.4412 67.4196 47.158 65.284 45.9344C62.6012 44.3802 59.8994 42.8602 57.228 41.2832C55.1152 40.0368 53.2038 43.32 55.328 44.5626Z" fill="#F2F2F2"/>
<path d="M54.0398 18.7568C54.0752 18.6581 54.0897 18.5531 54.0825 18.4485C54.0753 18.3438 54.0466 18.2418 53.998 18.1488C53.9291 18.0244 53.8207 17.9266 53.6899 17.8709C53.5591 17.8151 53.4135 17.8046 53.276 17.841C53.2769 17.8246 53.2769 17.8081 53.276 17.7916C53.273 17.7093 53.2603 17.6277 53.238 17.5484C53.1908 17.3983 53.0994 17.2659 52.9758 17.1684C52.9305 17.1329 52.8806 17.1035 52.8276 17.081C53.0746 16.7694 53.3216 16.4578 53.5382 16.1272C53.7548 15.7966 53.9828 15.219 53.5382 15.0214C53.0936 14.8238 52.7364 15.5078 52.516 15.7624C52.1183 16.2235 51.7256 16.6871 51.338 17.1532C51.1368 17.084 50.9205 17.0708 50.7124 17.115C50.5042 17.1591 50.312 17.2591 50.1562 17.404C49.5028 17.9863 48.8896 18.6122 48.3208 19.2774C48.2716 19.3352 48.2445 19.4086 48.2445 19.4845C48.2445 19.5604 48.2716 19.6339 48.3208 19.6916C48.282 19.7595 48.2686 19.839 48.2828 19.9158C48.3094 20.0602 48.3398 20.2008 48.374 20.3414C48.4248 20.5748 48.4908 20.8045 48.5716 21.0292C48.597 21.1059 48.6499 21.1705 48.72 21.2105C48.7902 21.2505 48.8727 21.2631 48.9516 21.2458C48.9308 21.2918 48.9225 21.3424 48.9273 21.3926C48.9322 21.4428 48.9501 21.4909 48.9793 21.532C49.0085 21.5731 49.048 21.6059 49.0938 21.627C49.1396 21.6481 49.1902 21.6569 49.2404 21.6524C50.2132 21.5612 51.1822 21.4358 52.1436 21.2724C52.9036 21.1432 53.7662 20.9684 53.998 20.1324C54.011 20.0813 54.011 20.0277 53.998 19.9766C54.1386 19.8543 54.237 19.6907 54.2792 19.5092C54.3121 19.3739 54.3071 19.2322 54.2649 19.0995C54.2227 18.9668 54.1448 18.8483 54.0398 18.7568Z" fill="#F7931E"/>
<path d="M53.0898 17.7916C52.7594 17.8927 52.4429 18.0344 52.1474 18.2134C51.9975 17.8013 51.7676 17.4229 51.471 17.1C51.3684 16.986 51.1974 17.157 51.3 17.271C51.6154 17.6206 52.06 18.2324 52.0372 18.7302C52.0144 19.323 51.4596 19.3572 51.129 18.943C50.9542 18.7264 50.8136 18.4718 50.6578 18.24C50.5704 18.1108 50.3614 18.24 50.4488 18.3616L50.92 19.0608C51.0062 19.2282 51.1379 19.3678 51.3 19.4636C51.4463 19.5054 51.601 19.5085 51.7489 19.4726C51.8968 19.4366 52.0328 19.3628 52.1436 19.2584C52.2326 19.1446 52.2885 19.0085 52.3052 18.8651C52.322 18.7217 52.2989 18.5764 52.2386 18.4452H52.269C52.5509 18.2723 52.8535 18.1357 53.1696 18.0386C53.3026 17.9778 53.238 17.746 53.0898 17.7916Z" fill="#42210B"/>
<path d="M52.4856 19.2319C52.6739 19.1191 52.8813 19.0419 53.0974 19.0039L53.7662 18.8063C53.7929 18.7944 53.8145 18.7734 53.8269 18.747C53.8394 18.7206 53.8419 18.6906 53.8341 18.6624C53.8263 18.6343 53.8086 18.61 53.7842 18.5938C53.7599 18.5776 53.7306 18.5708 53.7016 18.5745C53.3038 18.6712 52.9118 18.7905 52.5274 18.9317C52.4071 18.9699 52.3013 19.0438 52.224 19.1436C52.1466 19.2433 52.1014 19.3642 52.0942 19.4903C52.0894 19.5722 52.1112 19.6535 52.1564 19.722C52.2016 19.7905 52.2678 19.8425 52.345 19.8703C52.2843 19.9274 52.2358 19.9962 52.2025 20.0727C52.1692 20.1491 52.1517 20.2315 52.1512 20.3149C52.1555 20.3943 52.1845 20.4704 52.2343 20.5324C52.284 20.5944 52.352 20.6393 52.4286 20.6607C52.4576 20.6643 52.4869 20.6575 52.5112 20.6413C52.5356 20.6252 52.5533 20.6008 52.5611 20.5727C52.5689 20.5445 52.5664 20.5145 52.5539 20.4881C52.5415 20.4617 52.5199 20.4407 52.4932 20.4289C52.269 20.3719 52.4666 20.0945 52.5502 20.0071C52.5717 19.986 52.584 19.9573 52.5844 19.9273C52.961 19.9337 53.3361 19.8772 53.694 19.7601C53.7207 19.7482 53.7423 19.7272 53.7547 19.7008C53.7672 19.6744 53.7697 19.6444 53.7619 19.6162C53.7541 19.5881 53.7364 19.5638 53.712 19.5476C53.6877 19.5314 53.6584 19.5246 53.6294 19.5283C53.3936 19.5944 53.1517 19.6364 52.9074 19.6537C52.8088 19.6611 52.7097 19.6611 52.611 19.6537C52.326 19.6537 52.288 19.3801 52.4856 19.2319Z" fill="#42210B"/>
<path d="M32.2506 23.4346C32.2506 23.4346 28.88 23.7994 27.74 27.74C26.4328 32.3684 27.2916 33.4096 28.7356 34.6104" fill="#C3EA75"/>
<path d="M24.4606 84.0105C25.1269 84.431 25.797 84.8452 26.4708 85.2531L40.0444 75.7151L33.82 71.326L19.798 80.7501C21.2883 81.9255 22.8451 83.0141 24.4606 84.0105Z" fill="url(#paint0_linear)"/>
<path d="M43.0008 93.8334L58.1096 83.6607L44.327 80.5295L33.288 87.7799C36.6016 89.6799 39.71 91.9029 43.0008 93.8334Z" fill="url(#paint1_linear)"/>
<path d="M109.919 85.3063L81.5328 102.71L77.4744 98.5455L103.683 80.9135L109.919 85.3063Z" fill="url(#paint2_linear)"/>
<path d="M131.134 66.2226L102.931 82.9768L98.3022 78.6486L126.194 62.7418L131.134 66.2226Z" fill="url(#paint3_linear)"/>
<path d="M31.4678 70.3988C31.2955 71.4744 31.2648 72.568 31.3766 73.6516C31.4108 73.8872 31.4412 74.138 31.4906 74.3926L28.7356 73.929V70.3988H31.4678Z" fill="#F7931E"/>
<path d="M28.6178 73.1044C29.3474 73.625 29.8946 73.9328 29.8946 73.9328C30.476 73.9328 31.559 74.0696 31.2246 73.2488C31.604 73.9257 32.086 74.5397 32.6534 75.069C33.2842 75.6542 36.8334 77.539 35.3514 78.5346C34.2494 79.2756 28.8382 76.2888 28.6862 75.4946C28.5953 74.7012 28.5724 73.9016 28.6178 73.1044Z" fill="#56403D"/>
<path d="M36.537 68.2745C36.3647 69.3502 36.334 70.4437 36.4458 71.5273C36.48 71.7629 36.5104 72.0137 36.5598 72.2683L33.82 71.8199V68.2897L36.537 68.2745Z" fill="#F7931E"/>
<path d="M33.687 70.9763C34.4166 71.4969 34.96 71.8199 34.96 71.8199C35.5414 71.8199 36.6244 71.9567 36.29 71.1359C36.6694 71.8128 37.1513 72.4269 37.7188 72.9561C38.3496 73.5413 41.8988 75.4261 40.4168 76.4217C39.3148 77.1627 33.9036 74.1759 33.7516 73.3817C33.6611 72.5833 33.6395 71.7785 33.687 70.9763Z" fill="#56403D"/>
<path d="M38.494 35.967C38.494 35.967 39.3566 59.3788 37.6504 69.2208C37.6504 69.2208 37.3122 70.3152 33.2424 69.6806L32.9688 71.7288C32.9688 71.7288 30.1112 72.6028 27.4056 71.3488C27.4056 71.3488 26.2656 48.6096 29.6666 35.3932" fill="#311E69"/>
<path d="M49.2214 21.8728L48.1232 17.7992C48.1232 17.7992 42.3282 24.0654 35.2792 23.1192C34.276 23.2218 33.2386 23.256 32.2392 23.4308C31.7454 23.521 31.2702 23.6931 30.8332 23.94C29.4424 25.8932 28.9598 28.3252 28.8116 30.6888C28.7318 31.9922 28.7394 33.307 28.7432 34.6104C28.7351 35.4447 28.7808 36.2786 28.88 37.107C28.8925 37.2041 28.9272 37.297 28.9812 37.3787C29.0352 37.4604 29.1071 37.5286 29.1916 37.5782C29.6843 37.8739 30.2407 38.0472 30.8142 38.0836C33.269 38.1824 36.2368 38.0836 38.152 36.4876C38.2727 36.3202 38.3843 36.1464 38.4864 35.967L38.1748 28.747C38.1748 28.747 46.1662 26.258 49.2214 21.8728Z" fill="#C3EA75"/>
<path d="M36.347 19.38C36.347 19.38 37.4262 23.3206 35.644 24.1832C33.8618 25.0458 32.604 23.7614 32.072 22.5834C31.54 21.4054 31.7376 18.6504 34.0366 18.3692C36.0468 18.1412 36.347 19.38 36.347 19.38Z" fill="#F7931E"/>
<path d="M36.6966 18.6466C36.8866 18.164 36.9626 17.3052 36.4002 17.0392C36.1879 16.9567 35.9569 16.9346 35.7328 16.9755C35.5088 17.0165 35.3004 17.1188 35.131 17.271C34.9292 17.1149 34.6958 17.0047 34.447 16.948C34.0008 16.8159 33.5285 16.7981 33.0736 16.8964C32.6187 16.9947 32.1959 17.2059 31.844 17.5104C31.8132 17.5417 31.7772 17.5674 31.7376 17.5864C31.6835 17.603 31.6269 17.6094 31.5704 17.6054C30.172 17.6282 29.868 19.2128 30.1112 20.292C30.354 21.4089 30.9447 22.42 31.7984 23.18C32.1671 23.4868 32.5973 23.711 33.06 23.8374C33.0764 23.8426 33.0938 23.8437 33.1107 23.8404C33.1276 23.8371 33.1434 23.8296 33.1566 23.8187C33.1699 23.8077 33.1802 23.7936 33.1865 23.7776C33.1929 23.7616 33.1951 23.7443 33.193 23.7272C33.2082 23.7179 33.2213 23.7057 33.2317 23.6912C33.2421 23.6767 33.2494 23.6603 33.2533 23.643C33.2572 23.6256 33.2576 23.6076 33.2544 23.5901C33.2512 23.5726 33.2446 23.5559 33.2348 23.541C33.1161 23.3065 33.0736 23.0408 33.1132 22.781C33.1165 22.7624 33.115 22.7433 33.1091 22.7254C33.1031 22.7075 33.0928 22.6913 33.079 22.6784C33.0958 22.6598 33.1066 22.6366 33.1101 22.6118C33.1135 22.587 33.1095 22.5617 33.0984 22.5392C33.0874 22.5167 33.0699 22.498 33.0481 22.4856C33.0264 22.4732 33.0014 22.4675 32.9764 22.4694C32.8269 22.4879 32.6752 22.4718 32.5329 22.4224C32.3906 22.373 32.2615 22.2916 32.1556 22.1844C32.0264 22.0476 31.92 21.7816 32.1556 21.717C32.2045 21.7058 32.2555 21.7069 32.3039 21.7201C32.3523 21.7334 32.3967 21.7584 32.433 21.793C32.4704 21.8586 32.515 21.9198 32.566 21.9754C32.5852 21.9958 32.6106 22.0091 32.6382 22.0134C32.7332 22.0438 32.8548 21.9678 32.794 21.8614C32.7637 21.7902 32.7254 21.7227 32.68 21.66C32.5944 21.5171 32.5609 21.3489 32.5852 21.1841C32.6094 21.0192 32.6899 20.8679 32.813 20.7556C33.1398 20.463 33.4438 20.6226 33.82 20.6378C33.935 20.654 34.052 20.6279 34.1492 20.5643C34.2464 20.5007 34.3171 20.4039 34.3482 20.292C34.3498 20.1344 34.3306 19.9772 34.2912 19.8246C34.2856 19.707 34.3165 19.5904 34.3798 19.4911C34.4431 19.3917 34.5356 19.3144 34.6446 19.2698C35.0246 19.114 35.302 19.4522 35.5946 19.6498C35.7165 19.7394 35.8566 19.8012 36.005 19.8308C36.1534 19.8603 36.3065 19.8569 36.4534 19.8208C36.5705 19.793 36.6786 19.7358 36.7674 19.6546C36.8562 19.5733 36.9228 19.4708 36.9608 19.3566C36.9989 19.2424 37.0071 19.1204 36.9848 19.0022C36.9626 18.8839 36.9104 18.7733 36.8334 18.6808C36.817 18.6616 36.795 18.648 36.7705 18.6419C36.746 18.6357 36.7202 18.6374 36.6966 18.6466ZM34.2722 19.2052C34.3156 19.1343 34.381 19.0796 34.4584 19.0494C34.4841 19.0385 34.5084 19.0244 34.5306 19.0076H34.5534H34.5914C34.4712 19.0481 34.362 19.1157 34.2722 19.2052ZM36.5256 18.373C36.5447 18.331 36.5612 18.2878 36.575 18.2438C36.5484 18.2818 36.5408 18.3274 36.5256 18.3692V18.373Z" fill="#935542"/>
<path d="M34.7548 43.4872C34.5521 50.7503 34.1848 58.0045 33.6528 65.2498C33.5033 67.2765 33.3412 69.3108 33.1664 71.3526C33.1664 71.5274 33.4248 71.5274 33.44 71.3526C34.0632 64.1149 34.523 56.8658 34.8194 49.6052C34.903 47.5659 34.9727 45.5253 35.0284 43.4834C35.0279 43.4471 35.013 43.4125 34.987 43.3872C34.961 43.3619 34.926 43.348 34.8897 43.3485C34.8534 43.349 34.8188 43.3639 34.7935 43.3899C34.7682 43.4159 34.7543 43.4509 34.7548 43.4872Z" fill="white"/>
<path d="M52.2652 27.7894C51.7811 28.0037 51.3807 28.3708 51.1252 28.8344V28.8686C50.407 29.4538 50.2968 30.5254 49.533 31.0536C49.533 31.0764 48.8148 31.578 48.8072 31.597C48.7996 31.616 48.8756 30.6166 48.8718 30.6242C48.6248 31.3006 48.3816 31.9808 48.1688 32.6686C48.203 32.6902 48.2401 32.7069 48.279 32.718L48.1992 32.756L48.1308 32.7978C48.1211 32.8319 48.1038 32.8634 48.0801 32.8897C48.0563 32.9161 48.0269 32.9366 47.994 32.9498C47.9651 33.0507 47.966 33.1579 47.9967 33.2583C48.0274 33.3587 48.0865 33.4481 48.1668 33.5156C48.2472 33.5831 48.3455 33.6259 48.4497 33.6388C48.5539 33.6517 48.6596 33.6341 48.754 33.5882L51.0606 32.4482C51.3681 32.383 51.6703 32.2954 51.965 32.186C51.965 31.9466 52.003 31.7034 52.0258 31.464C52.206 31.1846 52.3145 30.865 52.3417 30.5335C52.3689 30.2021 52.3139 29.8691 52.1816 29.564C52.1935 29.5482 52.2076 29.5342 52.2234 29.5222V29.4956C52.4137 29.363 52.5758 29.1939 52.7004 28.9983C52.825 28.8026 52.9095 28.5842 52.9492 28.3556C52.9606 28.0364 52.63 27.6184 52.2652 27.7894Z" fill="#F7931E"/>
<path d="M45.4328 78.3749V80.4611C45.4328 80.4611 49.8408 78.8233 50.692 79.5529C51.9612 80.6397 48.336 82.8171 44.612 83.5429C43.9204 83.6759 43.092 83.8469 42.4156 83.6075C41.3174 83.2275 41.781 81.5631 41.7772 80.7081C41.7734 79.8531 41.7316 78.9107 41.7126 78.0139" fill="#56403D"/>
<path d="M51.87 81.2782V83.3644C51.87 83.3644 56.278 81.7266 57.1292 82.4562C58.3984 83.543 54.7732 85.7204 51.0492 86.4462C50.3576 86.5792 49.5292 86.7502 48.8528 86.5108C47.7546 86.1308 48.2182 84.4664 48.2144 83.6114C48.2106 82.7564 48.1688 81.814 48.1498 80.9172" fill="#56403D"/>
<path d="M51.9612 44.46C51.9612 44.46 56.1412 72.58 55.6776 79.0894C55.6776 79.0894 54.5908 83.4404 45.163 81.9888C45.163 81.9888 44.346 78.7246 44.7108 73.1956C45.0756 67.6666 46.0674 44.46 46.0674 44.46H51.9612Z" fill="#FF6161"/>
<path d="M49.6508 77.6834L48.2296 44.1522L41.8988 43.567C41.8988 43.567 40.0862 52.269 40.6296 56.4414C41.173 60.6138 39.995 66.1428 39.7214 69.0422C39.4782 71.6452 39.3794 76.1444 40.28 78.1622C43.32 79.04 46.6184 78.7284 49.6508 77.6834Z" fill="#FF6161"/>
<path d="M49.3316 29.9668C49.3316 29.9668 51.9612 31.597 52.231 32.9574C52.231 32.9574 50.3842 36.9664 50.5096 37.1374C52.5958 39.8582 46.3296 35.416 46.3296 35.416C46.3296 35.416 47.6102 31.6008 49.3316 29.9668Z" fill="#6DE2FC"/>
<path d="M55.3166 30.9662C55.5332 32.7826 53.219 35.3096 52.2424 35.7998C50.92 36.48 50.3804 30.9016 44.498 30.9244C44.118 30.9244 42.218 30.1112 41.2072 32.6192C40.1964 35.1272 41.2072 42.313 41.876 43.567C42.465 44.6728 46.3904 47.329 51.9878 44.4866L52.0714 41.895C52.0714 41.895 55.3774 41.8228 57.1254 39.3908C58.7556 37.1108 59.7284 33.7174 59.5726 32.0492C58.2502 31.4792 56.62 30.5368 55.3166 30.9662Z" fill="#6DE2FC"/>
<path d="M49.3316 29.9668C49.3316 29.9668 51.9612 31.597 52.231 32.9574C52.231 32.9574 50.3842 36.9664 50.5096 37.1374C52.5958 39.8582 46.3296 35.416 46.3296 35.416C46.3296 35.416 47.6102 31.6008 49.3316 29.9668Z" fill="#8787D1"/>
<path d="M99.7158 82.4866C99.7158 82.5702 97.9944 86.4956 97.6068 86.7388C97.2192 86.982 96.026 86.2144 95.6194 86.6514C95.2128 87.0884 94.6884 88.008 95.589 88.3956C96.4896 88.7832 99.1762 89.1556 99.6626 88.9352C100.133 88.6797 100.577 88.3794 100.989 88.0384C100.989 88.0384 101.243 85.9332 101.521 86.222C101.798 86.5108 101.699 88.7794 101.901 88.844C102.168 88.854 102.434 88.8153 102.687 88.73L102.433 82.08" fill="#311E69"/>
<path d="M107.16 78.9602C107.16 79.0438 105.298 82.9046 104.899 83.1402C104.5 83.3758 103.337 82.5626 102.915 82.9806C102.494 83.3986 101.935 84.303 102.824 84.721C103.713 85.139 106.381 85.5988 106.875 85.405C107.354 85.1657 107.808 84.8807 108.232 84.5538C108.232 84.5538 108.558 82.46 108.828 82.7564C109.098 83.0528 108.916 85.3214 109.113 85.3936C109.38 85.4127 109.648 85.383 109.904 85.3062L109.9 78.66" fill="#311E69"/>
<path d="M100.613 46.417C100.613 46.417 95.1254 74.537 95.5814 81.0464C95.5814 81.0464 96.6682 85.3974 106.096 83.9458C106.096 83.9458 106.913 80.6816 106.548 75.1526C106.183 69.6236 105.188 46.417 105.188 46.417H100.613Z" fill="#614CD4"/>
<path d="M101.608 79.629L103.029 46.0978L108.703 45.5734C108.703 45.5734 111.173 54.2146 110.629 58.3832C110.086 62.5518 111.264 68.0846 111.538 70.984C111.781 73.587 111.88 78.0862 110.979 80.104C107.92 80.9666 104.641 80.674 101.608 79.629Z" fill="#614CD4"/>
<path d="M106.495 82.3536C106.933 80.2519 107.25 78.1267 107.445 75.9886C107.525 74.9441 107.533 73.8954 107.468 72.8498C107.371 71.7721 107.218 70.7003 107.008 69.6388C106.683 67.7342 106.596 65.7965 106.75 63.8704C106.894 61.8944 107.198 59.9336 107.388 57.9576C107.601 55.7346 107.662 53.485 107.171 51.2924C107.107 51.0074 107.551 50.8858 107.608 51.1708C108.486 55.1114 107.639 59.1014 107.27 63.0496C107.043 65.0878 107.081 67.1469 107.384 69.1752C107.548 70.167 107.764 71.1512 107.859 72.1544C107.968 73.2263 107.993 74.3049 107.935 75.3806C107.763 77.7606 107.428 80.1259 106.932 82.46C106.879 82.7602 106.442 82.6424 106.495 82.3536Z" fill="white"/>
<g opacity="0.79">
<path opacity="0.79" d="M90.573 23.18C90.438 23.1806 90.3032 23.1691 90.1702 23.1458C89.2848 22.9862 88.559 22.3288 88.1258 21.2876C87.7062 20.1985 87.6034 19.0127 87.8294 17.8676C88.3006 15.2076 90.0676 13.4064 91.8536 13.7218C92.739 13.8814 93.4648 14.5388 93.898 15.58C94.3177 16.6692 94.4204 17.8549 94.1944 19C94.0076 20.1561 93.4963 21.2354 92.72 22.1122C92.4552 22.4287 92.1277 22.687 91.7582 22.8707C91.3887 23.0545 90.9852 23.1598 90.573 23.18ZM91.4584 14.5008C90.2424 14.5008 88.9884 16.0208 88.6312 18.0082C88.4312 18.9994 88.5155 20.0269 88.8744 20.9722C89.1974 21.7322 89.7104 22.2338 90.3108 22.3402C90.9112 22.4466 91.5572 22.1692 92.131 21.5536C92.7952 20.7906 93.2299 19.8552 93.385 18.8556C93.5851 17.8645 93.5007 16.8369 93.1418 15.8916C92.8188 15.1316 92.3058 14.63 91.7054 14.5236C91.6238 14.5101 91.5411 14.5038 91.4584 14.5046V14.5008Z" fill="#F2F2F2"/>
</g>
<path d="M106.142 31.9466C105.575 31.7186 96.9342 21.4434 96.5124 21.6372C96.0906 21.831 93.7574 25.1332 94.9468 26.9344C96.1362 28.7356 104.093 36.993 104.093 36.993" fill="#F25555"/>
<path d="M94.4718 39.748L96.3984 38.931L94.7264 28.7356L89.2202 31.312L89.8662 36.1076L90.6718 41.0286L94.4718 39.748L93.8752 38.9804L94.4718 39.748Z" fill="#124577"/>
<path d="M52.8694 23.0774L59.85 24.6202L58.6682 34.409L51.9612 32.2354" fill="#124577"/>
<path d="M60.0742 28.7508C60.0548 28.6724 60.0186 28.5992 59.9681 28.5361C59.9176 28.4731 59.8541 28.4217 59.7818 28.3856C59.7096 28.3495 59.6304 28.3294 59.5496 28.3269C59.4689 28.3243 59.3886 28.3393 59.3142 28.3708C59.2821 28.2308 59.203 28.1061 59.09 28.0174C58.9992 27.9496 58.8901 27.9107 58.7768 27.906C58.6636 27.9012 58.5515 27.9308 58.4554 27.9908C58.3941 28.026 58.3389 28.0709 58.292 28.1238L58.2578 28.0858C58.1811 27.9961 58.0793 27.9314 57.9655 27.9003C57.8516 27.8691 57.7311 27.8728 57.6194 27.911C57.5531 27.9421 57.4937 27.986 57.4446 28.0402C57.3798 27.7205 57.2973 27.4046 57.1976 27.094C57.1064 26.7824 56.9506 26.2086 56.5668 26.1402C56.316 26.0946 56.1868 26.277 56.1488 26.4936C56.0849 26.6414 56.0755 26.807 56.1222 26.961C56.1394 27.1717 56.1698 27.3812 56.2134 27.588C56.2476 27.8844 56.278 28.177 56.3084 28.4734C56.2563 28.4719 56.2058 28.4911 56.1678 28.5266C55.9842 28.6615 55.8485 28.8514 55.7801 29.0687C55.7118 29.286 55.7145 29.5194 55.7878 29.735C55.9558 30.3527 56.1876 30.9513 56.4794 31.521C56.491 31.5462 56.5078 31.5687 56.5285 31.5872C56.5493 31.6056 56.5737 31.6195 56.6001 31.6281C56.6265 31.6366 56.6544 31.6397 56.682 31.6369C56.7096 31.6342 56.7364 31.6258 56.7606 31.6122L56.791 31.7224C56.8027 31.7718 56.8314 31.8154 56.872 31.8458C56.9127 31.8762 56.9627 31.8913 57.0133 31.8886C57.064 31.8859 57.1121 31.8655 57.1492 31.831C57.1864 31.7964 57.2102 31.7499 57.2166 31.6996V31.654C57.2379 31.6714 57.2624 31.6843 57.2888 31.692V31.9314C57.2888 32.1518 57.6384 32.1518 57.703 31.9694L57.722 32.1442C57.7486 32.3874 58.1362 32.3608 58.1476 32.1214V31.9276C58.1837 31.9264 58.2191 31.9172 58.2512 31.9008C58.2834 31.8844 58.3116 31.8611 58.3338 31.8326C58.3713 31.8802 58.4258 31.9115 58.4858 31.92C58.5144 31.9439 58.5491 31.9594 58.586 31.9648C58.6229 31.9702 58.6606 31.9652 58.6948 31.9504V32.0036C58.7125 32.0621 58.7519 32.1115 58.8048 32.1419C58.8578 32.1723 58.9204 32.1813 58.9798 32.167C58.9798 32.1898 58.9798 32.2164 58.9798 32.2392C58.9798 32.5128 59.413 32.5508 59.4092 32.2734C59.4092 31.7237 59.394 31.1727 59.3636 30.6204C59.3865 30.6091 59.4071 30.5937 59.4244 30.5748C59.9032 30.115 60.287 29.374 60.0742 28.7508ZM57.76 28.3366C57.7785 28.3281 57.7986 28.3237 57.8189 28.3237C57.8392 28.3237 57.8593 28.3281 57.8778 28.3366C57.8668 28.3532 57.8579 28.3711 57.8512 28.3898H57.722L57.76 28.3366Z" fill="#F7931E"/>
<path d="M104.329 31.7794C103.793 31.977 101.464 31.977 100.715 34.1392C100.186 35.7528 99.7404 37.3928 99.3814 39.0526L93.803 35.891C93.803 35.891 93.4686 40.8044 94.1374 42.0508C94.8062 43.2972 98.04 46.0446 100.7 44.46C100.7 44.46 100.449 46.36 100.7 46.9566C100.951 47.5532 107.08 48.2448 108.498 46.4132C109.915 44.5816 108.942 35.8834 108.942 35.8834" fill="#FF6161"/>
<path d="M47.6102 24.32C47.6102 24.3808 47.9902 28.0554 47.1504 28.88C46.3106 29.7046 44.1408 29.355 43.5974 28.4696C43.054 27.5842 42.389 26.4176 42.9704 25.0496C43.5518 23.6816 47.5 23.3966 47.6102 24.32Z" fill="#F7931E"/>
<path d="M46.436 26.695C46.4606 26.632 46.468 26.5636 46.4573 26.4968C46.4466 26.43 46.4183 26.3672 46.3752 26.315C46.1233 26.0041 45.7739 25.7872 45.3834 25.6994C45.2065 25.6609 45.0216 25.6868 44.862 25.7725C44.7025 25.8582 44.5788 25.998 44.5132 26.1668C44.2624 26.999 45.6152 27.246 46.17 27.3068C46.2708 27.3068 46.3675 27.2668 46.4387 27.1955C46.51 27.1243 46.55 27.0276 46.55 26.9268C46.5476 26.8825 46.5362 26.8392 46.5166 26.7993C46.497 26.7595 46.4696 26.724 46.436 26.695Z" fill="#FFE8E6"/>
<path d="M59.3522 28.253C59.0744 28.671 58.9733 29.1819 59.071 29.6742C59.082 29.7073 59.1047 29.7353 59.1348 29.753C59.165 29.7707 59.2005 29.7769 59.2348 29.7704C59.2692 29.7639 59.3 29.7452 59.3216 29.7177C59.3431 29.6902 59.354 29.6559 59.3522 29.621C59.3094 29.4138 59.3085 29.2001 59.3497 28.9925C59.3908 28.785 59.473 28.5878 59.5916 28.4126C59.609 28.3809 59.6138 28.3438 59.6052 28.3087C59.5966 28.2736 59.5752 28.243 59.5451 28.223C59.515 28.2029 59.4785 28.1949 59.4428 28.2004C59.4071 28.206 59.3748 28.2247 59.3522 28.253Z" fill="#42210B"/>
<path d="M58.4478 28.006C58.2207 28.4226 58.1092 28.8923 58.1248 29.3664C58.1248 29.5488 58.4174 29.5754 58.4098 29.3892C58.3917 28.9656 58.4861 28.5448 58.6834 28.1694C58.7708 28.006 58.52 27.8426 58.4478 28.006Z" fill="#42210B"/>
<path d="M57.57 27.8198C57.3243 28.2225 57.2237 28.6972 57.285 29.165C57.3078 29.3474 57.589 29.2942 57.5662 29.1118C57.513 28.7156 57.5975 28.3131 57.8056 27.9718C57.9044 27.8236 57.6688 27.664 57.57 27.8198Z" fill="#42210B"/>
<path d="M44.764 79.3515C44.3258 77.2498 44.0086 75.1247 43.814 72.9865C43.7339 71.9421 43.7263 70.8933 43.7912 69.8477C43.8876 68.77 44.0411 67.6982 44.251 66.6367C44.576 64.7321 44.6628 62.7944 44.5094 60.8683C44.365 58.8923 44.061 56.9315 43.871 54.9555C43.6582 52.7325 43.5974 50.4829 44.0876 48.2903C44.1522 48.0053 43.7076 47.8837 43.6506 48.1687C42.7728 52.1093 43.6202 56.0993 43.9888 60.0475C44.2161 62.0857 44.1778 64.1448 43.8748 66.1731C43.7114 67.1649 43.4948 68.1491 43.3998 69.1523C43.2914 70.2242 43.266 71.3028 43.3238 72.3785C43.4951 74.7649 43.8303 77.1366 44.327 79.4769C44.3802 79.7581 44.8172 79.6365 44.764 79.3515Z" fill="white"/>
<path d="M93.898 38.3458C93.9892 37.6428 94.012 36.936 94.0842 36.2292C93.891 36.0782 93.714 35.9075 93.556 35.72C93.366 35.5148 93.176 35.302 93.0012 35.0854C92.8872 34.8498 92.7694 34.618 92.644 34.39L92.5034 34.1012C92.3286 33.7212 92.169 33.1626 91.7434 32.9992C91.6664 32.9648 91.5825 32.9488 91.4982 32.9524C91.414 32.9561 91.3317 32.9793 91.258 33.0202C91.1843 33.0611 91.1211 33.1186 91.0734 33.1882C91.0258 33.2578 90.9949 33.3375 90.9834 33.421C90.915 34.0556 91.9904 35.4084 90.7174 35.3704C90.4778 35.3591 90.2376 35.3667 89.9992 35.3932C89.5128 35.4578 89.0682 35.6972 89.2392 36.252C89.2652 36.3304 89.3023 36.4046 89.3494 36.4724C89.2655 36.5021 89.1885 36.5487 89.1233 36.6093C89.0582 36.67 89.0061 36.7434 88.9705 36.825C88.9349 36.9066 88.9164 36.9946 88.9162 37.0837C88.916 37.1727 88.9341 37.2608 88.9694 37.3426C89.0061 37.4371 89.0623 37.5228 89.1343 37.5942C89.2063 37.6656 89.2926 37.721 89.3874 37.7568C89.3162 37.8381 89.2753 37.9417 89.2719 38.0498C89.2684 38.1579 89.3025 38.2638 89.3684 38.3496C89.4768 38.4961 89.6373 38.5954 89.8168 38.627C89.8033 38.723 89.8138 38.8209 89.8472 38.912C90.0068 39.3452 90.5768 39.4972 90.9872 39.5656C91.8868 39.6825 92.7959 39.7067 93.7004 39.6378C93.7688 39.2122 93.841 38.7828 93.898 38.3458Z" fill="#F7931E"/>
<path d="M91.6142 20.52C91.0594 21.0292 91.1278 21.774 91.3216 22.515C91.3771 22.5169 91.4305 22.5369 91.4736 22.572C91.9016 22.8668 92.3484 23.1334 92.8112 23.37C93.1721 23.5687 93.5467 23.7414 93.9322 23.8868C94.3297 24.0352 94.693 24.2627 95 24.5556C95.2109 23.8813 95.4647 23.2213 95.76 22.5796C94.4414 21.3636 93.3204 20.4896 92.2222 19.0684C92.1044 18.9164 91.8422 18.4186 91.6788 18.4376C91.5796 18.4245 91.4793 18.4512 91.3997 18.5116C91.32 18.5721 91.2674 18.6615 91.2532 18.7606C91.1582 19.3914 91.6788 19.9006 92.0626 20.3604C92.093 20.387 91.58 20.52 91.6142 20.52Z" fill="#F7931E"/>
<path d="M91.8232 21.0861C91.9562 20.9721 91.7624 20.7821 91.6294 20.8923C91.5171 20.9865 91.4163 21.0936 91.3292 21.2115C91.1949 21.366 91.0951 21.5474 91.0366 21.7435C91.0278 21.79 91.0215 21.837 91.0176 21.8841C91.0132 21.9042 91.0132 21.9249 91.0176 21.9449C91.0077 22.043 91.0363 22.1411 91.0974 22.2185C91.2342 22.3439 91.409 22.2185 91.5002 22.1045C91.6277 21.948 91.7186 21.7649 91.7662 21.5687C91.808 21.4243 91.884 21.2381 91.7662 21.1127L91.8232 21.0861Z" fill="#F7931E"/>
<path d="M94.8328 24.1794C94.5206 23.8562 94.1266 23.6238 93.6928 23.5068C93.1114 23.351 92.4958 23.332 92.2678 22.6556C92.131 22.249 92.2678 21.8614 92.0284 21.4814C91.9715 21.4011 91.9106 21.3237 91.846 21.2496C91.7928 21.1812 91.7472 21.1356 91.7168 21.0976C91.6742 21.065 91.6389 21.0238 91.6134 20.9766C91.5878 20.9295 91.5726 20.8774 91.5686 20.824C91.5711 20.7795 91.5838 20.7362 91.6057 20.6974C91.6275 20.6586 91.6579 20.6253 91.6945 20.6C91.7312 20.5747 91.7731 20.5581 91.8171 20.5515C91.8612 20.5449 91.9061 20.5484 91.9486 20.5618C92.0588 20.6081 92.1574 20.6782 92.2374 20.767L92.2602 20.7898C92.4312 20.9076 92.5908 21.0406 92.7466 21.1698C92.9024 21.299 93.0734 21.09 92.9404 20.976C92.625 20.7062 91.96 20.0146 91.5002 20.349C91.4345 20.3877 91.3804 20.4435 91.3436 20.5103C91.3069 20.5772 91.2888 20.6527 91.2912 20.729C91.1451 20.9523 91.018 21.1874 90.9112 21.432C90.8127 21.597 90.7638 21.787 90.7706 21.9792C90.7912 22.0937 90.8475 22.1987 90.9314 22.2793C91.0154 22.3598 91.1227 22.4117 91.238 22.4276C91.2296 22.4868 91.2296 22.5469 91.238 22.6062C91.2924 22.7556 91.4 22.8797 91.5403 22.9547C91.6805 23.0298 91.8435 23.0504 91.998 23.0128C92.022 23.0111 92.0447 23.0011 92.062 22.9844C92.0794 22.9677 92.0904 22.9455 92.093 22.9216C92.1855 23.0991 92.3151 23.2546 92.473 23.3776C92.7505 23.5575 93.0672 23.6683 93.3964 23.7006C93.8604 23.7857 94.2866 24.0128 94.6162 24.3504C94.6274 24.3646 94.6413 24.3764 94.6572 24.3853C94.673 24.3941 94.6904 24.3998 94.7084 24.4019C94.7264 24.404 94.7446 24.4026 94.762 24.3976C94.7795 24.3927 94.7958 24.3844 94.81 24.3732C94.8242 24.3619 94.8361 24.348 94.8449 24.3322C94.8538 24.3164 94.8594 24.299 94.8615 24.281C94.8636 24.263 94.8622 24.2447 94.8573 24.2273C94.8523 24.2099 94.844 24.1936 94.8328 24.1794ZM91.2988 22.1616H91.2684C91.143 22.2224 91.0632 21.8652 91.0632 21.8158C91.0901 21.6802 91.143 21.5512 91.219 21.4358C91.2798 21.3066 91.352 21.1812 91.4242 21.0558C91.496 21.1718 91.5746 21.2835 91.6598 21.3902C91.5139 21.6345 91.3929 21.893 91.2988 22.1616ZM91.9448 22.7658C91.5648 22.819 91.4964 22.4846 91.6028 22.1844C91.6674 22.0018 91.7448 21.824 91.8346 21.6524C91.8501 21.6781 91.864 21.7047 91.8764 21.7322C92.0284 22.0666 91.9258 22.4466 92.0474 22.7924C92.022 22.774 91.9913 22.7646 91.96 22.7658H91.9448Z" fill="#42210B"/>
<path d="M124.325 55.0468C124.325 55.0468 124.61 67.507 128.885 67.8034C133.16 68.0998 133.445 55.0468 133.445 55.0468" fill="#6DE2FC"/>
<path d="M124.325 55.0468C124.325 55.0468 124.61 67.507 128.885 67.8034C133.16 68.0998 133.445 55.0468 133.445 55.0468" fill="#232742"/>
<path d="M128.869 57.4066C131.379 57.4066 133.414 56.3501 133.414 55.0468C133.414 53.7435 131.379 52.687 128.869 52.687C126.359 52.687 124.325 53.7435 124.325 55.0468C124.325 56.3501 126.359 57.4066 128.869 57.4066Z" fill="#311E69"/>
<path d="M127.631 56.6542C126.824 51.7033 125.394 46.8744 123.375 42.2826C123.211 41.9026 122.664 42.2332 122.827 42.6018C124.814 47.1466 126.219 51.9243 127.007 56.8214C127.087 57.2242 127.68 57.0532 127.631 56.6542Z" fill="#311E69"/>
<path d="M130.23 57.4446C129.918 51.4128 129.377 45.3999 128.607 39.406C128.558 39.007 127.919 39.0032 127.973 39.406C128.733 45.3847 129.272 51.3874 129.591 57.4142C129.804 57.418 130.017 57.4294 130.23 57.4446Z" fill="#311E69"/>
<path d="M121.98 41.1084C121.234 40.9095 120.443 40.9725 119.738 41.287C119.229 41.5112 118.169 42.1572 118.378 42.8488C118.587 43.5404 119.867 43.434 120.38 43.2782C120.772 43.1466 121.132 42.9327 121.435 42.6509C121.737 42.3691 121.977 42.0259 122.136 41.6442C122.146 41.6198 122.154 41.5943 122.159 41.5682C122.185 41.5278 122.201 41.4817 122.206 41.4338C122.211 41.3859 122.204 41.3375 122.187 41.2926C122.17 41.2476 122.142 41.2075 122.106 41.1755C122.07 41.1435 122.027 41.1205 121.98 41.1084Z" fill="#C3EA75"/>
<path d="M123.166 40.3673C123.033 39.5465 122.979 38.5927 122.406 37.9353C121.98 37.4451 121.22 37.1487 120.623 37.5135C120.027 37.8783 120.145 38.7561 120.487 39.2805C120.977 40.0405 121.843 40.3521 122.539 40.8613C122.573 40.8886 122.614 40.9071 122.657 40.9151C122.7 40.9231 122.745 40.9204 122.787 40.9073C122.829 40.8942 122.867 40.871 122.898 40.8398C122.929 40.8087 122.951 40.7704 122.964 40.7283C123.033 40.6994 123.091 40.6481 123.127 40.5827C123.164 40.5172 123.177 40.4414 123.166 40.3673ZM122.197 38.8093C122.057 38.5708 121.879 38.3576 121.668 38.1785V38.0987C121.905 38.2859 122.087 38.5324 122.197 38.8131V38.8093Z" fill="#C3EA75"/>
<path d="M124.815 39.064C123.789 38.6042 123.614 40.3598 123.587 40.964C123.581 41.0298 123.599 41.0957 123.637 41.1495C123.676 41.2033 123.732 41.2413 123.796 41.2566C123.856 41.3133 123.935 41.3449 124.017 41.3449C124.099 41.3449 124.178 41.3133 124.237 41.2566C124.583 40.945 125.02 40.6524 125.126 40.1736C125.214 39.805 125.214 39.2426 124.815 39.064Z" fill="#C3EA75"/>
<path d="M128.907 35.3096C128.691 34.6028 127.973 33.9606 127.201 34.2988C126.43 34.637 126.559 35.6972 126.707 36.385C126.855 37.0728 127.251 38.3078 128.045 38.4256C128.274 38.4163 128.498 38.3539 128.698 38.2432C129.071 37.3108 129.144 36.2855 128.907 35.3096ZM128.227 37.2096C128.241 37.0949 128.249 36.9794 128.25 36.8638C128.271 37.0329 128.271 37.2039 128.25 37.373C128.254 37.3008 128.239 37.24 128.227 37.202V37.2096Z" fill="#C3EA75"/>
<path d="M131.309 37.734C130.549 37.9392 129.766 38.2774 129.436 39.0526C129.41 39.1105 129.402 39.1744 129.411 39.237C129.42 39.2995 129.447 39.3581 129.489 39.406C129.515 40.1356 131.009 39.767 131.412 39.6872C132.08 39.558 132.886 39.2236 132.859 38.4142C132.829 37.5288 131.944 37.563 131.309 37.734ZM132.198 38.6536C132.194 38.6031 132.18 38.554 132.156 38.5092C132.187 38.4683 132.215 38.4251 132.24 38.38C132.262 38.4244 132.269 38.4744 132.262 38.5233C132.254 38.5722 132.232 38.6176 132.198 38.6536Z" fill="#C3EA75"/>
<path d="M127.3 38.608C127.007 38.228 125.883 36.9702 125.4 37.7036C125.312 37.8707 125.283 38.0621 125.316 38.2478C125.349 38.4335 125.443 38.603 125.582 38.7296C125.924 39.0175 126.341 39.2009 126.783 39.2578C126.863 39.2749 126.946 39.2617 127.016 39.221C127.086 39.1803 127.139 39.1148 127.163 39.0374C127.206 39.0246 127.244 39.0016 127.276 38.9704C127.307 38.9393 127.331 38.9009 127.344 38.8587C127.358 38.8164 127.361 38.7715 127.353 38.7279C127.345 38.6842 127.327 38.6431 127.3 38.608ZM125.997 38.2508L126.316 38.4674L126.263 38.4446C126.165 38.3988 126.078 38.3328 126.008 38.2508H125.997Z" fill="#C3EA75"/>
<path d="M101.08 24.8861C100.73 25.1065 100.746 30.6165 102.315 31.3005C104.359 32.1897 106.005 29.7805 106.199 28.4657C106.392 27.1509 105.123 22.3249 101.08 24.8861Z" fill="#F7931E"/>
<path d="M111.876 33.763C111.582 33.5731 111.333 33.3216 111.146 33.0258C111.036 32.6564 110.993 32.2704 111.017 31.8858C110.968 30.9548 110.724 29.9858 109.877 29.4576C109.33 29.1308 108.551 29.4196 108.095 28.918C107.578 28.3518 107.745 27.5158 107.677 26.8242C107.297 23.2218 102.003 22.5682 100.297 25.5056C100.019 25.9689 99.9287 26.521 100.045 27.0488C100.16 27.5765 100.474 28.04 100.92 28.3442C101.174 28.5148 101.462 28.6276 101.764 28.6748C102.205 28.7432 102.634 28.7318 102.824 29.2106C103.105 29.9212 102.585 30.6546 102.33 31.2892C101.95 32.2734 101.806 33.687 102.763 34.4014C103.244 34.6784 103.768 34.8724 104.314 34.9752C104.545 35.0265 104.756 35.144 104.922 35.3134C105.18 35.6326 105.017 36.0734 104.964 36.4534C104.932 36.6459 104.932 36.8423 104.964 37.0348C104.933 37.2162 104.943 37.4023 104.993 37.5792C105.044 37.7562 105.134 37.9194 105.256 38.057C105.83 38.7562 106.89 38.779 107.726 38.7372C108.699 38.6862 109.653 38.4516 110.538 38.0456C111.317 37.6922 112.282 37.145 112.685 36.3546C113.156 35.3894 112.621 34.3976 111.876 33.763Z" fill="#42210B"/>
<path d="M55.3166 30.9662C55.5332 32.7826 53.219 35.3096 52.2424 35.7998C50.92 36.48 50.3804 30.9016 44.498 30.9244C44.118 30.9244 42.218 30.1112 41.2072 32.6192C40.1964 35.1272 41.2072 42.313 41.876 43.567C42.465 44.6728 46.3904 47.329 51.9878 44.4866L52.0714 41.895C52.0714 41.895 55.3774 41.8228 57.1254 39.3908C58.7556 37.1108 59.7284 33.7174 59.5726 32.0492C58.2502 31.4792 56.62 30.5368 55.3166 30.9662Z" fill="#8787D1"/>
<path d="M54.853 41.2604C53.3266 41.8101 51.6597 41.8314 50.1197 41.3208C48.5797 40.8103 47.2557 39.7974 46.36 38.4446C46.2422 38.266 45.9534 38.4446 46.0712 38.6118C47.0064 40.0243 48.3867 41.0839 49.9929 41.6223C51.5991 42.1607 53.3391 42.147 54.9366 41.5834C55.1456 41.5112 55.0582 41.1882 54.853 41.2604Z" fill="white"/>
<path d="M51.5508 35.1766C51.251 34.4784 50.8068 33.8516 50.2474 33.3374C49.6052 32.7522 48.8148 32.3798 48.146 31.8174C48.013 31.7072 47.8192 31.8972 47.9522 32.0112C48.583 32.528 49.3278 32.8852 49.9472 33.4172C50.542 33.938 51.0099 34.5879 51.3152 35.3172C51.3836 35.473 51.6192 35.34 51.5508 35.1766Z" fill="white"/>
<path d="M47.6938 24.8216L46.5234 25.4372C46.5234 25.4372 47.4316 28.8838 47.7014 29.7882C47.9712 30.6926 46.8844 31.9656 43.3504 32.0682C39.8164 32.1708 39.995 26.809 40.812 24.8178C41.629 22.8266 44.0762 21.9184 46.0712 22.4618C46.5959 22.5661 47.0591 22.8711 47.3622 23.3119C47.6653 23.7527 47.7843 24.2944 47.6938 24.8216Z" fill="#B24D16"/>
<path d="M39.52 27.7932C39.6389 27.7212 39.7328 27.6145 39.7892 27.4874C39.8456 27.3604 39.8617 27.2191 39.8354 27.0826C39.7632 26.5772 39.0754 26.8242 39.0754 26.8242C39.0754 26.8242 39.0222 26.1288 38.513 26.106C38.0038 26.0832 36.271 27.246 36.271 27.246L36.3052 26.429C36.2862 26.2846 36.195 26.2542 36.0278 26.3036C35.5642 26.4442 35.4882 27.1282 35.4654 27.5348C35.4533 27.6873 35.47 27.8408 35.5148 27.987C35.5528 28.0972 35.6554 28.2378 35.5756 28.367C35.2421 28.5685 34.8895 28.7365 34.523 28.8686L34.6218 29.0586C34.7181 29.1726 34.8118 29.2879 34.903 29.4044C35.2964 29.833 35.6289 30.3138 35.891 30.8332L36.7384 30.5102C36.7384 30.5102 39.6948 30.02 39.8316 29.64C39.9053 29.3921 39.9053 29.128 39.8316 28.88L40.0026 28.4392C40.1736 27.9794 39.52 27.7932 39.52 27.7932Z" fill="#F7931E"/>
<path d="M36.7688 27.664C37.553 27.4089 38.3154 27.0912 39.0488 26.714C39.1248 26.676 39.1742 26.7976 39.0982 26.8394C38.3648 27.2166 37.6024 27.5343 36.8182 27.7894C36.7384 27.8122 36.689 27.6906 36.7688 27.664Z" fill="#42210B"/>
<path d="M36.9816 28.5266C37.8878 28.385 38.7742 28.1375 39.6226 27.7894C39.6384 27.7861 39.6548 27.7885 39.669 27.7962C39.6832 27.8039 39.6942 27.8163 39.7001 27.8313C39.706 27.8463 39.7064 27.8629 39.7013 27.8781C39.6961 27.8934 39.6858 27.9064 39.672 27.9148C38.818 28.2708 37.9253 28.5259 37.012 28.6748C36.9132 28.671 36.898 28.5418 36.9816 28.5266Z" fill="#42210B"/>
<path d="M37.4452 29.3398C38.257 29.241 39.0582 29.0694 39.8392 28.8268C39.855 28.8236 39.8714 28.826 39.8856 28.8337C39.8997 28.8414 39.9107 28.8538 39.9166 28.8688C39.9225 28.8838 39.923 28.9004 39.9178 28.9156C39.9127 28.9309 39.9024 28.9439 39.8886 28.9522C39.0966 29.1998 38.2839 29.3754 37.4604 29.4766C37.3768 29.488 37.3616 29.355 37.4452 29.3398Z" fill="#42210B"/>
<path d="M36.4116 31.7908L36.6548 31.5742C36.0406 30.4322 35.2932 29.3671 34.428 28.4012C34.2912 28.2492 34.067 28.4734 34.2038 28.6254C35.0644 29.5879 35.8057 30.6507 36.4116 31.7908Z" fill="#311E69"/>
<path d="M33.8466 28.4999C32.927 29.2067 31.9909 29.892 31.0384 30.5557C31.0976 29.96 31.2005 29.3694 31.3462 28.7887C31.3554 28.7485 31.3487 28.7063 31.3275 28.671C31.3063 28.6356 31.2723 28.6098 31.2325 28.599C31.1927 28.5882 31.1502 28.5932 31.1141 28.613C31.0779 28.6328 31.0508 28.6658 31.0384 28.7051C30.8668 29.3886 30.7524 30.0851 30.6964 30.7875L30.0998 31.1979C29.9326 31.3119 30.0998 31.5779 30.2594 31.4715C31.5261 30.6102 32.7737 29.7109 34.0024 28.7735C34.1658 28.6481 34.01 28.3707 33.8466 28.4999Z" fill="#311E69"/>
<path d="M36.6548 31.5742C36.6548 31.5742 33.0334 36.67 28.7432 34.6142L28.8002 36.3128C28.8002 36.3128 34.2494 36.4382 36.6548 31.5742Z" fill="#311E69"/>
<path opacity="0.7" d="M102.843 38.6346C102.829 39.7568 102.655 40.8714 102.326 41.9444C102.057 42.9297 101.419 43.7735 100.544 44.3004C100.369 44.4068 100.544 44.6804 100.704 44.574C101.58 44.0572 102.238 43.2384 102.554 42.2712C102.949 41.099 103.154 39.8714 103.162 38.6346C103.162 38.5922 103.146 38.5517 103.116 38.5217C103.086 38.4918 103.045 38.475 103.003 38.475C102.96 38.475 102.92 38.4918 102.89 38.5217C102.86 38.5517 102.843 38.5922 102.843 38.6346Z" fill="#124577"/>
<path opacity="0.6" d="M56.5554 11.7078V15.2419C56.5554 15.4079 56.5989 15.5711 56.6815 15.7151C56.7642 15.8591 56.8832 15.979 57.0266 16.0627L69.1866 23.1459C69.329 23.2281 69.4902 23.2721 69.6546 23.2733C69.819 23.2746 69.9809 23.2332 70.1245 23.1532C70.2681 23.0732 70.3885 22.9572 70.4739 22.8167C70.5593 22.6762 70.6067 22.516 70.6116 22.3517L70.7028 18.8671C70.7076 18.6965 70.6664 18.5278 70.5835 18.3787C70.5006 18.2296 70.379 18.1056 70.2316 18.0196L57.9842 10.8871C57.8398 10.8028 57.6758 10.7581 57.5086 10.7576C57.3415 10.757 57.1771 10.8006 57.0322 10.8838C56.8873 10.9671 56.7669 11.0871 56.6831 11.2318C56.5994 11.3765 56.5554 11.5407 56.5554 11.7078Z" fill="white"/>
<g opacity="0.79">
<path opacity="0.79" d="M61.712 37.3351C60.9404 36.4579 60.4332 35.3802 60.249 34.2267C60.023 33.0815 60.1257 31.8958 60.5454 30.8067C60.9786 29.7655 61.7082 29.1081 62.5898 28.9485C64.372 28.6293 66.139 30.4685 66.614 33.0943C66.84 34.2394 66.7372 35.4251 66.3176 36.5143C65.8844 37.5555 65.1548 38.2129 64.2732 38.3725C64.1402 38.3958 64.0054 38.4072 63.8704 38.4067C63.456 38.3875 63.05 38.2824 62.6785 38.0979C62.3069 37.9134 61.9777 37.6536 61.712 37.3351ZM62.7342 29.7351C62.1338 29.8415 61.6246 30.3279 61.2978 31.1031C60.9388 32.0484 60.8545 33.0759 61.0546 34.0671C61.2097 35.0667 61.6444 36.002 62.3086 36.7651C62.8824 37.3807 63.5284 37.6581 64.1288 37.5517C64.7292 37.4453 65.2384 36.9589 65.5652 36.1837C65.9241 35.2384 66.0084 34.2108 65.8084 33.2197C65.455 31.2361 64.1972 29.7123 62.9812 29.7123C62.8979 29.7176 62.8152 29.7304 62.7342 29.7503V29.7351Z" fill="#F2F2F2"/>
</g>
<path opacity="0.6" d="M80.256 20.064V56.5972L84.189 54.093V17.7954L80.256 20.064Z" fill="white"/>
<path d="M97.3522 5.25921L91.6788 8.53481V9.74701C91.6807 9.85048 91.6549 9.95258 91.6041 10.0428C91.5534 10.1329 91.4794 10.2079 91.39 10.26L87.0504 12.768C86.9924 12.8024 86.9264 12.8207 86.859 12.8211C86.7916 12.8216 86.7253 12.8041 86.6669 12.7704C86.6085 12.7368 86.5601 12.6882 86.5266 12.6297C86.4932 12.5712 86.4759 12.5048 86.4766 12.4374V11.5368L78.3294 16.3134C78.252 16.359 78.1878 16.424 78.1431 16.5019C78.0985 16.5799 78.0749 16.6682 78.0748 16.758V60.249C78.0742 60.311 78.0901 60.3721 78.1209 60.426C78.1517 60.4798 78.1962 60.5245 78.25 60.5555C78.3038 60.5864 78.3648 60.6025 78.4268 60.6021C78.4889 60.6016 78.5497 60.5847 78.603 60.553L97.47 49.6166C97.5019 49.9543 97.4413 50.2944 97.2947 50.6003C97.1481 50.9062 96.921 51.1665 96.6378 51.3532C95.6612 51.9764 78.4738 61.7006 78.4738 61.7006C78.4738 61.7006 77.1134 62.3162 76.7182 60.6936V16.9404C76.7176 16.6574 76.7841 16.3783 76.9122 16.1259C77.0403 15.8736 77.2265 15.6552 77.4554 15.4888C78.242 14.9188 95.6498 4.74241 95.6498 4.74241C95.7947 4.66086 95.9546 4.60949 96.1198 4.59141C96.2851 4.57333 96.4523 4.5889 96.6114 4.6372C96.7705 4.68549 96.9181 4.7655 97.0454 4.8724C97.1728 4.9793 97.2771 5.11088 97.3522 5.25921Z" fill="#124577"/>
<path d="M54.34 4.55995L59.9488 7.79755V9.00975C59.9489 9.1113 59.9757 9.21104 60.0263 9.29904C60.077 9.38704 60.1498 9.46024 60.2376 9.51135L64.6 12.0079C64.658 12.0423 64.724 12.0607 64.7914 12.0611C64.8588 12.0615 64.9251 12.044 64.9835 12.0104C65.0419 11.9767 65.0903 11.9281 65.1237 11.8696C65.1572 11.8111 65.1744 11.7447 65.1738 11.6773V10.7919L73.3096 15.5799C73.387 15.6255 73.4512 15.6905 73.4959 15.7685C73.5405 15.8464 73.5641 15.9347 73.5642 16.0245V59.5042C73.5648 59.5662 73.5489 59.6273 73.5181 59.6811C73.4873 59.735 73.4428 59.7797 73.389 59.8106C73.3352 59.8416 73.2742 59.8577 73.2122 59.8572C73.1501 59.8568 73.0893 59.8398 73.036 59.8082L54.169 48.8717C54.1371 49.2095 54.1977 49.5495 54.3443 49.8554C54.4909 50.1614 54.718 50.4216 55.0012 50.6083C55.9778 51.2315 73.1652 60.9558 73.1652 60.9558C73.1652 60.9558 74.5256 61.5714 74.9208 59.9487V16.1955C74.9214 15.9125 74.8549 15.6334 74.7268 15.3811C74.5986 15.1287 74.4125 14.9104 74.1836 14.7439C73.397 14.1739 55.86 3.98235 55.86 3.98235C55.86 3.98235 54.6326 3.41995 54.34 4.55995Z" fill="#124577"/>
<defs>
<linearGradient id="paint0_linear" x1="45.8584" y1="69.8212" x2="21.3256" y2="83.0414" gradientUnits="userSpaceOnUse">
<stop offset="0.01" stop-color="#A368DD"/>
<stop offset="1" stop-color="#B1A9FF"/>
</linearGradient>
<linearGradient id="paint1_linear" x1="4247.5" y1="2739.43" x2="3038.61" y2="3954.7" gradientUnits="userSpaceOnUse">
<stop offset="0.01" stop-color="#A368DD"/>
<stop offset="1" stop-color="#B1A9FF"/>
</linearGradient>
<linearGradient id="paint2_linear" x1="9956.47" y1="4633.39" x2="8311.78" y2="5952.63" gradientUnits="userSpaceOnUse">
<stop offset="0.01" stop-color="#A368DD"/>
<stop offset="1" stop-color="#B1A9FF"/>
</linearGradient>
<linearGradient id="paint3_linear" x1="11946.7" y1="3294.88" x2="10398.4" y2="4648.38" gradientUnits="userSpaceOnUse">
<stop offset="0.01" stop-color="#A368DD"/>
<stop offset="1" stop-color="#B1A9FF"/>
</linearGradient>
</defs>
</svg>
