<svg width="185" height="138" preserveAspectRatio="xMidY" viewBox="0 0 185 138" fill="none" xmlns="http://www.w3.org/2000/svg">
<path d="M157.895 80.6426L86.48 121.964C84.9972 122.819 83.3156 123.27 81.604 123.27C79.8923 123.27 78.2108 122.819 76.728 121.964L26.542 93.1546C25.8655 92.7655 25.3035 92.2049 24.9127 91.5294C24.522 90.8538 24.3162 90.0872 24.3162 89.3067C24.3162 88.5263 24.522 87.7596 24.9127 87.0841C25.3035 86.4085 25.8655 85.8479 26.542 85.4588L101.2 42.343L157.826 73.8116C158.434 74.1474 158.942 74.6387 159.299 75.2353C159.655 75.8318 159.846 76.5123 159.853 77.207C159.86 77.9017 159.682 78.5859 159.338 79.1895C158.994 79.7931 158.496 80.2946 157.895 80.6426Z" fill="#FF8E31"/>
<path d="M79.028 75.1686L59.1192 87.1608C59.1192 87.1608 84.4192 101.66 94.277 107.516L114.94 95.8134" fill="url(#paint0_linear)"/>
<path d="M60.4716 88.527L40.5674 100.515C40.5674 100.515 46.7452 104.567 56.58 110.4L77.6526 97.4602" fill="url(#paint1_linear)"/>
<path d="M63.7376 74.0692V75.4262L64.4276 76.2726" fill="#ADCEE1"/>
<path d="M91.08 57.5L64.5196 73.9588C64.2764 74.1092 64.0765 74.3205 63.9397 74.5717C63.8029 74.8229 63.7339 75.1053 63.7395 75.3913C63.7451 75.6773 63.825 75.9568 63.9715 76.2025C64.118 76.4482 64.3259 76.6515 64.5748 76.7924L104.88 99.5946C105.442 99.9127 106.078 100.077 106.724 100.072C107.37 100.066 108.003 99.8903 108.56 99.5624L134.996 84.019C136.919 82.4412 136.772 79.4696 134.996 79.3454L94.9302 57.4402C94.3432 57.1005 93.6749 56.9267 92.9968 56.9372C92.3187 56.9478 91.6562 57.1423 91.08 57.5Z" fill="#88D3D8"/>
<path d="M91.08 56.373L64.5196 72.8318C64.2764 72.9823 64.0765 73.1935 63.9397 73.4447C63.8029 73.6959 63.7339 73.9784 63.7395 74.2643C63.7451 74.5503 63.825 74.8299 63.9715 75.0755C64.118 75.3212 64.3259 75.5245 64.5748 75.6654L104.88 98.44C105.442 98.7581 106.078 98.9226 106.724 98.917C107.37 98.9113 108.003 98.7357 108.56 98.4078L134.996 82.8644C135.307 82.6845 135.564 82.4262 135.743 82.1154C135.922 81.8046 136.017 81.4521 136.017 81.0934C136.017 80.7347 135.922 80.3822 135.743 80.0714C135.564 79.7606 135.307 79.5023 134.996 79.3224L94.9302 56.281C94.3403 55.9461 93.6705 55.7778 92.9924 55.794C92.3142 55.8102 91.6532 56.0104 91.08 56.373Z" fill="white"/>
<path d="M92.161 54.1236C92.161 54.1236 103.201 18.5288 103.123 18.5288C103.045 18.5288 103.468 16.9464 105.423 17.8388L147.743 42.7524C147.743 42.7524 149.794 43.585 149.394 45.5124C148.994 47.4398 138.612 80.3435 138.612 80.3435C138.395 80.6564 138.084 80.892 137.724 81.0161C137.364 81.1402 136.974 81.1463 136.611 81.0336C135.323 80.6334 93.1316 56.1246 93.1316 56.1246C92.7449 55.978 92.4289 55.6891 92.2484 55.317C92.0679 54.945 92.0366 54.518 92.161 54.1236Z" fill="#053855"/>
<path d="M103.822 21.114L147.168 46.3818L138.175 76.5624L94.277 52.0444L103.822 21.114Z" fill="#232742"/>
<path d="M89.447 60.145L79.7364 66.194C79.5651 66.3019 79.4247 66.4522 79.3287 66.6304C79.2327 66.8085 79.1844 67.0085 79.1886 67.2109C79.1928 67.4132 79.2492 67.611 79.3525 67.7851C79.4557 67.9592 79.6022 68.1036 79.7778 68.2043L114.632 88.0717C115.153 88.3724 115.744 88.5308 116.346 88.5308C116.947 88.5308 117.538 88.3724 118.059 88.0717C120.299 86.7653 124.159 84.3917 126.518 82.9657C126.733 82.8386 126.911 82.6574 127.034 82.4401C127.157 82.2229 127.22 81.9772 127.219 81.7276C127.217 81.478 127.149 81.2332 127.023 81.0178C126.897 80.8024 126.717 80.6239 126.5 80.5001C119.453 76.4015 96.4528 63.0201 91.4158 60.1036C91.1153 59.9295 90.7728 59.8413 90.4256 59.8486C90.0784 59.8559 89.7399 59.9584 89.447 60.145Z" fill="#232742"/>
<path d="M89.9668 76.5624L102.143 83.4118C102.33 83.5179 102.485 83.6714 102.592 83.8569C102.7 84.0423 102.757 84.253 102.757 84.4675C102.757 84.6821 102.7 84.8928 102.592 85.0782C102.485 85.2637 102.33 85.4172 102.143 85.5232L95.0038 89.7C94.7578 89.8426 94.4785 89.9177 94.1942 89.9177C93.9099 89.9177 93.6306 89.8426 93.3846 89.7L80.9232 82.616C80.7673 82.5272 80.6378 82.3987 80.5476 82.2436C80.4575 82.0884 80.41 81.9122 80.41 81.7328C80.41 81.5534 80.4575 81.3772 80.5476 81.2221C80.6378 81.067 80.7673 80.9385 80.9232 80.8496L88.3706 76.5716C88.6131 76.4319 88.8877 76.3576 89.1675 76.356C89.4473 76.3544 89.7228 76.4255 89.9668 76.5624Z" fill="#232742"/>
<path opacity="0.1" d="M89.447 60.145L79.7364 66.194C79.5651 66.3019 79.4247 66.4522 79.3287 66.6304C79.2327 66.8085 79.1844 67.0085 79.1886 67.2109C79.1928 67.4132 79.2492 67.611 79.3525 67.7851C79.4557 67.9592 79.6022 68.1036 79.7778 68.2043L114.632 88.0717C115.153 88.3724 115.744 88.5308 116.346 88.5308C116.947 88.5308 117.538 88.3724 118.059 88.0717C120.299 86.7653 124.159 84.3917 126.518 82.9657C126.733 82.8386 126.911 82.6574 127.034 82.4401C127.157 82.2229 127.22 81.9772 127.219 81.7276C127.217 81.478 127.149 81.2332 127.023 81.0178C126.897 80.8024 126.717 80.6239 126.5 80.5001C119.453 76.4015 96.4528 63.0201 91.4158 60.1036C91.1153 59.9295 90.7728 59.8413 90.4256 59.8486C90.0784 59.8559 89.7399 59.9584 89.447 60.145Z" fill="#053855"/>
<path opacity="0.1" d="M89.9668 76.5624L102.143 83.4118C102.33 83.5179 102.485 83.6714 102.592 83.8569C102.7 84.0423 102.757 84.253 102.757 84.4675C102.757 84.6821 102.7 84.8928 102.592 85.0782C102.485 85.2637 102.33 85.4172 102.143 85.5232L95.0038 89.7C94.7578 89.8426 94.4785 89.9177 94.1942 89.9177C93.9099 89.9177 93.6306 89.8426 93.3846 89.7L80.9232 82.616C80.7673 82.5272 80.6378 82.3987 80.5476 82.2436C80.4575 82.0884 80.41 81.9122 80.41 81.7328C80.41 81.5534 80.4575 81.3772 80.5476 81.2221C80.6378 81.067 80.7673 80.9385 80.9232 80.8496L88.3706 76.5716C88.6131 76.4319 88.8877 76.3576 89.1675 76.356C89.4473 76.3544 89.7228 76.4255 89.9668 76.5624Z" fill="#053855"/>
<path d="M89.2722 35.9996C88.9003 35.7295 88.5063 35.491 88.0946 35.2866C86.8848 34.6702 86.5214 33.9986 87.0136 32.7198C88.0026 30.1392 84.3778 25.3322 81.4936 26.4776C79.6536 27.2136 78.1494 29.2836 77.5468 31.1236C77.271 31.9173 77.2326 32.7741 77.4364 33.5892C77.625 34.2654 78.4438 34.9692 77.6664 35.5074C76.3416 36.4642 74.2992 36.8322 73.8208 38.6354C73.7496 38.8811 73.7305 39.1388 73.7646 39.3923C73.7986 39.6457 73.8851 39.8893 74.0186 40.1074C74.2123 40.3654 74.4575 40.5803 74.7386 40.7387C75.0197 40.897 75.3306 40.9954 75.6516 41.0274C76.7786 41.2068 76.4152 41.3494 76.1622 42.2418C75.4538 44.7258 77.947 45.4618 79.9158 45.7148C82.3676 46.0138 85.3944 46.2806 87.6714 45.1168C88.3568 44.7672 89.0054 44.1968 89.0514 43.3826C89.0974 42.5684 87.7818 41.7404 88.1314 40.8618C88.2366 40.6526 88.3953 40.4748 88.5914 40.3466C89.2676 39.79 90.1738 39.3346 90.4314 38.4284C90.6522 37.3612 90.0496 36.5792 89.2722 35.9996Z" fill="#96D88D"/>
<path d="M89.2722 36.0041C88.9003 35.734 88.5064 35.4955 88.0946 35.2911C86.8848 34.6747 86.5214 34.0031 87.0136 32.7243C87.5058 31.4455 86.8434 29.5733 85.6934 28.1887C85.7734 28.5778 85.7858 28.9777 85.7302 29.3709C85.4772 31.2109 81.9904 33.7869 83.6602 35.2911C84.6998 36.2111 89.0422 37.1311 86.6088 39.2517C85.7992 39.9555 84.5342 40.0383 85.123 41.4413C85.376 42.0439 86.1074 42.3935 86.4064 42.9869C86.825 43.8195 86.7836 44.4543 86.0614 45.0983C85.4037 45.6168 84.5983 45.9132 83.7614 45.9447C85.1161 45.9533 86.4554 45.6578 87.6806 45.0799C88.366 44.7303 89.0146 44.1599 89.0606 43.3457C89.1066 42.5315 87.791 41.7035 88.1406 40.8249C88.2459 40.6157 88.4046 40.4379 88.6006 40.3097C89.2768 39.7531 90.183 39.2977 90.4406 38.3915C90.6522 37.3657 90.0496 36.5837 89.2722 36.0041Z" fill="#7EC971"/>
<path d="M80.7668 42.596C79.5846 41.469 77.97 41.1838 76.3968 41.2436C76.4174 41.2801 76.4285 41.3212 76.429 41.3632C76.4371 41.3995 76.4371 41.4372 76.429 41.4736V41.5012C77.9286 41.446 79.4696 41.699 80.5966 42.7754C81.4453 43.6427 82.021 44.7398 82.2526 45.931H82.5378C82.2897 44.6688 81.6735 43.5084 80.7668 42.596Z" fill="#378729"/>
<path d="M83.8948 43.4378C83.7262 43.677 83.5728 43.9223 83.4348 44.1738C83.5084 43.2538 83.5866 42.3798 83.6878 41.4828C83.8762 40.8482 84.1226 40.2323 84.4238 39.6428C84.8472 38.7981 85.4226 38.0387 86.1212 37.4026C86.9958 36.6976 87.9964 36.1653 89.0698 35.834C88.989 35.7892 88.9107 35.74 88.8352 35.6868L88.7616 35.65C86.9216 36.363 85.422 37.3382 84.3916 39.1138C84.182 39.4771 83.9961 39.8535 83.835 40.2408C83.9132 39.652 83.996 39.0586 84.0926 38.4744C84.5526 35.7144 85.307 32.9544 87.0504 30.7602C87.0149 30.6516 86.9857 30.541 86.963 30.429C85.1552 32.637 84.3272 35.4016 83.858 38.18C83.674 39.2656 83.5268 40.3604 83.398 41.4598C83.5667 36.4611 83.5391 31.4609 83.3152 26.4592C83.22 26.4287 83.1263 26.3934 83.0346 26.3534C83.2401 30.8706 83.2815 35.3909 83.1588 39.9142C83.0977 39.9259 83.0434 39.9604 83.007 40.0108C82.9242 39.284 82.8138 38.5618 82.662 37.8488C82.064 35.0106 80.7898 31.4456 77.901 30.2174L77.8642 30.2818L77.786 30.4704C80.7392 31.7446 81.926 35.4982 82.4918 38.4054C82.6767 39.4241 82.7966 40.4535 82.8506 41.4874C82.7709 42.5086 82.7142 43.5298 82.6804 44.551C82.4383 42.9915 81.9993 41.469 81.374 40.02C80.6242 38.3548 79.1706 36.0088 77.165 35.8202C76.9739 35.9316 76.7739 36.027 76.567 36.1054C79.0556 35.7512 80.7484 39.0494 81.4706 40.9722C82.0401 42.5795 82.4259 44.2461 82.6206 45.9402H82.6528C82.6077 49.3237 82.8091 52.706 83.2554 56.0602C83.2922 56.35 83.7522 56.3546 83.7154 56.0602C83.2691 52.706 83.0677 49.3237 83.1128 45.9402H83.306C83.306 45.586 83.3474 45.2318 83.375 44.8776C83.5285 44.562 83.699 44.2548 83.8856 43.9576C84.4213 43.0427 85.1672 42.2685 86.0614 41.699C86.6968 41.3516 87.3854 41.1122 88.0992 40.9906C88.1137 40.8819 88.153 40.778 88.2142 40.687C87.4889 40.8024 86.785 41.0256 86.1258 41.3494C85.2247 41.8556 84.4593 42.572 83.8948 43.4378Z" fill="#378729"/>
<path d="M82.9158 57.422C84.9499 57.3627 86.5555 55.8263 86.5019 53.9902C86.4484 52.1542 84.7561 50.7139 82.722 50.7732C80.6879 50.8325 79.0823 52.369 79.1359 54.205C79.1894 56.041 80.8817 57.4813 82.9158 57.422Z" fill="#FFB339"/>
<path d="M82.34 57.4173C79.833 55.7889 81.282 52.0629 83.9316 50.9497C83.5354 50.8371 83.1243 50.7859 82.7126 50.7979C80.6794 50.8577 79.074 52.3941 79.1246 54.2295C79.1798 55.8901 80.5736 57.2241 82.34 57.4173Z" fill="#FFA522"/>
<path d="M110.809 47.7388C115.34 50.2918 125.442 56.1523 129.274 58.3787C129.699 58.6261 130.024 59.0148 130.192 59.4771C130.36 59.9393 130.361 60.4459 130.194 60.9087L130.12 61.1111C130.018 61.398 129.853 61.6589 129.638 61.8753C129.424 62.0916 129.164 62.2582 128.878 62.363C128.592 62.4679 128.286 62.5086 127.983 62.4823C127.679 62.4559 127.385 62.3631 127.121 62.2105L108.62 51.52C108.176 51.2641 107.838 50.8594 107.665 50.3778C107.491 49.8962 107.494 49.3687 107.672 48.8888C107.782 48.5908 107.956 48.3202 108.181 48.0958C108.406 47.8715 108.677 47.6986 108.975 47.5893C109.273 47.4799 109.592 47.4366 109.909 47.4625C110.225 47.4883 110.533 47.5826 110.809 47.7388Z" fill="white"/>
<path d="M113.476 51.6575C113.57 51.117 113.277 50.6143 112.822 50.5347C112.366 50.4551 111.921 50.8288 111.826 51.3694C111.732 51.9099 112.024 52.4127 112.48 52.4922C112.935 52.5718 113.381 52.1981 113.476 51.6575Z" fill="#33BDD3"/>
<path d="M115.773 53.0101C115.868 52.4695 115.575 51.9668 115.12 51.8872C114.664 51.8076 114.218 52.1814 114.124 52.7219C114.029 53.2625 114.322 53.7652 114.778 53.8448C115.233 53.9243 115.679 53.5506 115.773 53.0101Z" fill="#33BDD3"/>
<path d="M118.077 54.3682C118.172 53.8277 117.879 53.3249 117.423 53.2454C116.968 53.1658 116.522 53.5395 116.428 54.0801C116.333 54.6206 116.626 55.1233 117.081 55.2029C117.537 55.2825 117.983 54.9088 118.077 54.3682Z" fill="#33BDD3"/>
<path d="M120.485 55.7772C120.579 55.2366 120.287 54.7339 119.831 54.6543C119.376 54.5747 118.93 54.9485 118.836 55.489C118.741 56.0296 119.034 56.5323 119.489 56.6119C119.945 56.6914 120.391 56.3177 120.485 55.7772Z" fill="#33BDD3"/>
<path d="M122.893 57.2001C122.988 56.6596 122.695 56.1569 122.24 56.0773C121.784 55.9977 121.338 56.3714 121.244 56.912C121.149 57.4525 121.442 57.9553 121.898 58.0348C122.353 58.1144 122.799 57.7407 122.893 57.2001Z" fill="#33BDD3"/>
<path d="M125.286 58.5766C125.381 58.036 125.088 57.5333 124.633 57.4537C124.177 57.3742 123.731 57.7479 123.637 58.2884C123.542 58.829 123.835 59.3317 124.291 59.4113C124.746 59.4909 125.192 59.1172 125.286 58.5766Z" fill="#33BDD3"/>
<path d="M126.064 44.265C126.51 41.7148 124.948 39.3115 122.575 38.897C120.203 38.4826 117.918 40.2139 117.473 42.764C117.027 45.3142 118.589 47.7175 120.962 48.132C123.334 48.5465 125.619 46.8152 126.064 44.265Z" fill="white"/>
<path d="M123.39 43.2446C123.67 42.2862 123.218 41.3114 122.382 41.0674C121.545 40.8234 120.641 41.4026 120.361 42.3611C120.081 43.3196 120.533 44.2944 121.37 44.5383C122.206 44.7823 123.111 44.2031 123.39 43.2446Z" fill="#33BDD3"/>
<path d="M117.682 45.2824C117.682 45.2824 119.168 43.6402 121.201 44.2934C121.931 44.5208 122.546 45.0197 122.919 45.6873C123.293 46.3549 123.395 47.1403 123.206 47.8814C123.206 47.8814 121.583 48.9348 119.407 47.5088C119.407 47.5134 117.953 46.5842 117.682 45.2824Z" fill="#33BDD3"/>
<path d="M107.18 52.808C107.649 52.7286 108.11 52.6117 108.56 52.4584C109.057 52.2606 107.281 51.9202 107.281 51.9202" fill="#1CA9B7"/>
<path d="M102.755 40.2776C103.323 39.9852 103.956 39.8427 104.595 39.8636C105.46 39.9556 104.484 41.7036 104.484 41.7036" fill="#1CA9B7"/>
<path d="M105.188 40.0569L110.892 43.4609C111.161 43.6226 111.367 43.8711 111.476 44.1654C111.584 44.4598 111.589 44.7824 111.49 45.0801L109.379 51.4281C109.098 52.2653 108.459 52.8081 107.704 52.3481L101.582 49.0867C101.317 48.9249 101.114 48.6784 101.006 48.3871C100.898 48.0957 100.892 47.7766 100.988 47.4813L103.173 40.8159C103.238 40.6194 103.345 40.4399 103.488 40.2905C103.631 40.1412 103.805 40.0258 103.999 39.953C104.192 39.8801 104.399 39.8516 104.605 39.8696C104.811 39.8876 105.01 39.9516 105.188 40.0569Z" fill="#1CA9B7"/>
<path d="M104.015 40.3558L109.719 43.7597C109.989 43.9208 110.196 44.169 110.305 44.4634C110.415 44.7578 110.421 45.0808 110.322 45.3789L108.21 51.7269C107.93 52.5641 107.29 53.1069 106.536 52.6469L100.413 49.3855C100.148 49.2238 99.9454 48.9773 99.8377 48.686C99.73 48.3946 99.7238 48.0755 99.82 47.7802L102.005 41.1147C102.069 40.919 102.177 40.7401 102.319 40.5912C102.462 40.4423 102.636 40.3273 102.829 40.2545C103.021 40.1817 103.228 40.153 103.433 40.1705C103.639 40.188 103.837 40.2513 104.015 40.3558Z" fill="#33BDD3"/>
<path d="M105.34 40.6456C105.34 40.6456 106.26 36.9656 108.606 37.5314C110.952 38.0972 109.066 42.8168 109.066 42.8168C109.066 42.8168 109.066 43.2768 110.138 43.447C110.138 43.447 112.438 37.927 109.328 36.4688C106.219 35.0106 104.448 39.3254 104.268 40.112C104.371 40.3001 104.528 40.4522 104.72 40.5476C104.912 40.6431 105.128 40.6773 105.34 40.6456Z" fill="#EBEDED"/>
<path d="M105.442 46.4382C106.267 46.3215 106.833 45.495 106.705 44.5921C106.577 43.6891 105.805 43.0517 104.98 43.1684C104.155 43.2851 103.59 44.1116 103.717 45.0145C103.845 45.9175 104.617 46.5548 105.442 46.4382Z" fill="#EBEDED"/>
<path d="M105.569 44.2225L105.29 44.126C104.993 44.0226 104.668 44.1801 104.564 44.4777L103.203 48.3973C103.1 48.6949 103.257 49.0199 103.555 49.1232L103.833 49.2198C104.131 49.3231 104.456 49.1657 104.559 48.8681L105.92 44.9485C106.024 44.6509 105.866 44.3259 105.569 44.2225Z" fill="#EBEDED"/>
<path d="M75.0398 93.9596L74.5476 93.587L74.9846 87.7496L77.5514 87.8416C77.5514 87.8416 77.4226 90.3348 77.97 90.9466C78.5174 91.5584 80.063 91.2594 80.2056 91.3192C80.3482 91.379 81.3786 91.1582 81.7972 91.6596C82.2158 92.161 80.1274 93.357 79.0372 93.5272C78.3036 93.622 77.5595 93.5972 76.8338 93.4536C76.8338 93.4536 76.7142 91.9448 76.337 92.0736C75.9598 92.2024 75.8172 93.771 75.8172 93.771L75.0398 93.9596Z" fill="#9C4100"/>
<path d="M73.9864 75.5872C73.7748 81.6914 73.5494 89.6448 73.5494 89.6448C73.5494 89.6448 74.9294 91.54 78.7244 90.7304C79.1292 90.643 80.0308 80.914 80.4724 75.854C78.3582 75.2767 76.1408 75.1855 73.9864 75.5872Z" fill="#7EC971"/>
<path d="M81.7328 98.9736L81.2406 98.601L81.6776 92.7635L84.2444 92.8555C84.2444 92.8555 84.1156 95.3488 84.663 95.9606C85.2104 96.5724 86.756 96.2734 86.8986 96.3332C87.0412 96.393 88.0716 96.1722 88.4902 96.6736C88.9088 97.175 86.8204 98.371 85.7302 98.5412C84.9966 98.6359 84.2525 98.6111 83.5268 98.4676C83.5268 98.4676 83.4072 96.9588 83.03 97.0876C82.6528 97.2164 82.5102 98.785 82.5102 98.785L81.7328 98.9736Z" fill="#053855"/>
<path d="M82.8368 76.6958C81.149 75.9308 79.3363 75.4788 77.487 75.3618C77.7998 77.6618 78.0896 79.2304 78.1402 79.3454C78.2644 79.6352 80.615 94.139 80.615 94.139C83.375 95.2568 86.6686 94.323 86.6686 94.323C86.6686 94.323 85.537 83.007 85.445 81.1164C85.445 80.914 85.4343 80.7101 85.4128 80.5046C85.3711 79.6953 85.1091 78.9128 84.6551 78.2416C84.2011 77.5703 83.5724 77.0358 82.8368 76.6958Z" fill="#7EC971"/>
<path d="M65.78 80.0676C65.78 80.0676 70.4812 75.8126 73.9864 75.5872C77.4916 75.3618 82.4734 78.9958 82.0824 81.1072C81.6914 83.2186 74.98 87.7542 74.98 87.7542" fill="#7EC971"/>
<path d="M75.394 72.473L71.6496 69.8234C71.499 69.717 71.3901 69.5615 71.3414 69.3836C71.2928 69.2058 71.3074 69.0165 71.3828 68.8482L74.037 62.9464C74.0835 62.843 74.1516 62.7508 74.2367 62.6758C74.3218 62.6008 74.422 62.5449 74.5304 62.5118C74.6389 62.4787 74.7532 62.4692 74.8656 62.4838C74.978 62.4985 75.0861 62.537 75.1824 62.5968L79.3684 65.205C79.5389 65.311 79.663 65.4775 79.7159 65.6712C79.7688 65.8648 79.7465 66.0713 79.6536 66.2492L76.5578 72.1878C76.5056 72.2886 76.4324 72.377 76.3432 72.4472C76.254 72.5173 76.1509 72.5676 76.0406 72.5946C75.9304 72.6216 75.8157 72.6248 75.7042 72.6038C75.5926 72.5828 75.4869 72.5382 75.394 72.473Z" fill="#1784AA"/>
<path d="M75.0582 72.266L71.3 69.6164C71.1494 69.5099 71.0405 69.3545 70.9918 69.1766C70.9432 68.9987 70.9578 68.8095 71.0332 68.6412L73.6874 62.7394C73.7339 62.636 73.802 62.5437 73.8871 62.4688C73.9722 62.3938 74.0723 62.3379 74.1808 62.3048C74.2893 62.2717 74.4035 62.2622 74.516 62.2768C74.6284 62.2915 74.7364 62.33 74.8328 62.3898L79.0188 64.998C79.1893 65.104 79.3134 65.2705 79.3663 65.4641C79.4192 65.6578 79.3969 65.8643 79.304 66.0422L76.2082 71.9808C76.1558 72.0795 76.0832 72.1661 75.9951 72.2349C75.907 72.3037 75.8053 72.3532 75.6969 72.3801C75.5884 72.407 75.4754 72.4107 75.3654 72.3911C75.2553 72.3714 75.1507 72.3288 75.0582 72.266Z" fill="#29ABE2"/>
<path d="M75.6838 71.9026L71.4702 68.9264L74.2348 62.7808L78.9176 65.6972L75.6838 71.9026Z" fill="#E4F5FD"/>
<path d="M73.7334 65.389C72.3534 66.1526 70.1592 67.022 68.6734 68.034C68.4388 68.195 68.0892 68.7562 68.3192 68.6734C68.218 68.7884 69.1794 69.1656 69.0874 69.2898C69.0598 69.3312 69.7084 68.9724 69.7452 68.9862C70.2969 69.2795 70.9382 69.3566 71.5438 69.2024L71.7876 69.023L71.8474 68.9862C71.8577 68.9681 71.8718 68.9524 71.8888 68.9402L71.9256 68.9126C71.9324 68.8776 71.9521 68.8464 71.9808 68.8252C72.3028 68.5722 73.0112 68.4388 73.0848 68.011C73.0722 67.8982 73.0378 67.7888 72.9836 67.689C72.9666 67.663 72.9601 67.6315 72.9652 67.6009C72.9703 67.5702 72.9867 67.5426 73.0112 67.5234C73.0382 67.396 73.0394 67.2644 73.0149 67.1365C72.9905 67.0085 72.9407 66.8867 72.8686 66.7782L72.9514 66.6816C73.3432 66.4096 73.7138 66.1082 74.06 65.78C74.0979 65.745 74.1223 65.6978 74.129 65.6466V65.6236C74.1304 65.6099 74.1304 65.596 74.129 65.5822C74.1237 65.5388 74.1077 65.4973 74.0823 65.4617C74.057 65.426 74.0231 65.3972 73.9837 65.378C73.9444 65.3588 73.9009 65.3498 73.8572 65.3517C73.8134 65.3536 73.7709 65.3665 73.7334 65.389Z" fill="#E85454"/>
<path d="M73.025 66.8979C72.9192 66.6311 72.7674 66.6173 72.5236 66.7231C72.0396 66.9426 71.5775 67.2075 71.1436 67.5143C71.07 67.5649 71.1436 67.6799 71.2172 67.6339C71.4886 67.4499 72.6662 66.5805 72.9054 66.9623C73.1446 67.3441 72.3534 67.6063 72.1326 67.7213L71.2862 68.1813C71.208 68.2227 71.2862 68.3423 71.3598 68.3009L71.9026 68.0203C71.8984 68.0337 71.8984 68.0482 71.9026 68.0617C71.9486 68.1225 72.0027 68.1767 72.0636 68.2227C72.015 68.2922 71.9841 68.3725 71.9737 68.4567C71.9633 68.5409 71.9736 68.6264 72.0038 68.7057L72.0268 68.7333C71.7935 68.9761 71.4859 69.1342 71.1526 69.1825C70.8193 69.2309 70.4795 69.1667 70.1868 69.0001C70.1178 68.9495 70.0212 69.0461 70.0902 69.1013C70.6422 69.5153 71.783 69.3957 72.1694 68.7839C72.2561 68.7724 72.3402 68.7459 72.4178 68.7057C72.6687 68.6188 72.8945 68.472 73.0756 68.2779C73.1254 68.1936 73.1516 68.0975 73.1516 67.9996C73.1516 67.9017 73.1254 67.8056 73.0756 67.7213V67.6983C73.109 67.6661 73.1356 67.6275 73.1537 67.5848C73.1718 67.5421 73.1812 67.4962 73.1812 67.4499C73.1812 67.4035 73.1718 67.3576 73.1537 67.3149C73.1356 67.2722 73.109 67.2336 73.0756 67.2015C73.0895 67.0975 73.0719 66.9917 73.025 66.8979ZM72.9652 68.1491C72.8735 68.2759 72.7497 68.3759 72.6064 68.4389C72.519 68.4895 72.2982 68.6459 72.2108 68.6229C72.0314 68.5769 72.1418 68.3423 72.2108 68.2411C72.3095 68.2026 72.4011 68.1482 72.4822 68.0801L72.818 67.8685L72.9284 67.7857C72.961 67.8398 72.9812 67.9004 72.9875 67.9632C72.9939 68.0261 72.9863 68.0895 72.9652 68.1491ZM72.5328 67.8915C72.3396 68.0111 72.1832 68.1629 72.0038 67.9467C72.2752 67.8087 72.5466 67.6707 72.7996 67.5097C72.8774 67.4643 72.9447 67.4032 72.9974 67.3303C73.14 67.5741 72.68 67.7995 72.5328 67.8915Z" fill="#653200"/>
<path d="M69.5658 66.9806C69.5658 66.9806 70.4858 67.1922 70.5778 69.1656L69.874 70.9182L66.0422 68.931C66.0422 68.931 66.9576 67.781 69.5658 66.9806Z" fill="#88D3D8"/>
<path d="M78.66 67.9052C78.3748 68.5354 78.0896 69.1058 77.8504 69.7452C77.6756 69.3174 77.5146 68.9678 77.2984 68.5584C77.2889 68.5437 77.2781 68.5298 77.2662 68.517C77.2271 68.4536 77.1677 68.4052 77.0977 68.3797C77.0277 68.3542 76.9511 68.3531 76.8804 68.3765C76.8097 68.3999 76.7489 68.4465 76.7079 68.5087C76.6669 68.5709 76.648 68.6451 76.6544 68.7194C76.7252 69.1109 76.8823 69.4818 77.1144 69.805C77.082 69.8215 77.0525 69.8433 77.027 69.8694C76.475 70.4812 76.6084 71.4196 76.6728 72.1694C76.6754 72.2192 76.6908 72.2675 76.7174 72.3096C76.7441 72.3518 76.7812 72.3863 76.8252 72.4099C76.8691 72.4335 76.9184 72.4453 76.9683 72.4443C77.0182 72.4433 77.0669 72.4294 77.1098 72.404C77.1613 72.4048 77.212 72.3921 77.257 72.3672C77.753 72.0258 78.1078 71.5157 78.2552 70.932C78.5634 69.9798 78.9682 68.9218 78.66 67.9052Z" fill="#E85454"/>
<path d="M64.3448 67.8545L65.7248 67.4406C66.0698 67.4912 69.0644 68.7148 70.3248 70.8492C70.4754 71.5 70.5769 72.1612 70.6284 72.8272C70.7434 73.715 70.8354 74.6074 70.8768 75.4998C70.9346 76.4732 70.9192 77.4496 70.8308 78.4208C70.7894 78.8348 70.7618 79.0464 70.6882 79.4558C70.5275 79.5952 70.3439 79.7057 70.1454 79.7824C66.0054 81.2222 62.9418 78.89 62.8176 78.5496C62.6934 78.2092 62.4956 73.4252 62.3944 70.5732C62.377 69.969 62.5583 69.3757 62.9107 68.8846C63.263 68.3935 63.7669 68.0316 64.3448 67.8545Z" fill="#88D3D8"/>
<path d="M68.011 62.9188C68.011 62.9188 68.931 67.6108 67.2152 68.1168C65.4994 68.6228 63.4524 66.6678 63.3052 65.7018C63.158 64.7358 65.5868 61.3548 68.011 62.9188Z" fill="#E85454"/>
<path d="M67.3394 64.7956C67.39 64.7174 68.3882 64.4552 68.5952 63.618C68.8022 62.7808 68.0478 61.6814 66.3182 61.525C64.5886 61.3686 61.686 62.3116 62.1322 66.8656C62.5784 71.4196 67.16 69.46 67.459 68.0064C67.6179 66.938 67.5773 65.8493 67.3394 64.7956Z" fill="#653200"/>
<path d="M67.3394 64.7956C67.3394 64.7956 67.6292 66.3504 68.2594 67.022C68.8896 67.6936 69.4002 68.908 68.6274 69.8372C67.8546 70.7664 68.6274 71.2678 69.7176 72.1372C70.8078 73.0066 70.1362 76.636 66.194 75.7482C62.2518 74.8604 60.3934 72.4822 60.3934 72.4822C60.3934 72.4822 61.4054 65.389 62.4818 63.7422" fill="#653200"/>
<path d="M70.3248 70.9182C70.3248 70.9182 71.2172 73.9082 72.1096 74.0002C73.002 74.0922 74.3544 72.772 75.3066 71.047C75.6475 71.0115 75.992 71.0464 76.3189 71.1495C76.6457 71.2526 76.9479 71.4218 77.2066 71.6465C77.4654 71.8712 77.6753 72.1466 77.8232 72.4558C77.9711 72.7649 78.054 73.1011 78.0666 73.4436C78.0666 73.4436 74.9248 79.81 70.3432 78.2552" fill="#88D3D8"/>
<path d="M76.6688 67.7484C77.0377 66.8015 76.6767 65.7767 75.8625 65.4594C75.0482 65.1421 74.0889 65.6524 73.72 66.5993C73.351 67.5461 73.712 68.571 74.5263 68.8883C75.3406 69.2056 76.2998 68.6952 76.6688 67.7484Z" fill="#1784AA"/>
<path d="M74.1244 66.7L74.6166 66.5482L74.8236 67.2474L76.4336 66.6724L76.5072 67.1646L74.5476 67.8822L74.1244 66.7Z" fill="#E4F5FD"/>
<path d="M53.8706 93.7204C51.0554 90.2106 49.7628 85.7164 49.818 81.2222C49.8563 77.5781 51.2883 74.087 53.82 71.4656C56.143 69.0828 59.6482 67.9098 62.7578 69.5244C65.3384 70.863 66.5896 73.4344 67.4866 76.0702C68.563 79.2258 68.9264 83.2692 72.772 84.2444C74.2624 84.6216 75.831 84.364 77.372 84.2444C80.0492 84.0604 82.892 84.9298 83.7016 87.7818C85.192 92.8878 78.3242 97.2486 74.4648 98.8954C71.1225 100.27 67.4416 100.597 63.9094 99.8328C60.3773 99.0688 57.1604 97.2501 54.6848 94.6174C54.3934 94.3322 54.122 94.0332 53.8706 93.7204Z" fill="#FFDE47"/>
<path d="M83.5452 87.86C80.8128 92.8004 71.921 95.0268 67.0726 94.76C62.6704 94.5346 59.8874 91.8482 60.1726 87.4C60.3382 84.9528 61.0926 82.5148 60.8948 80.04C60.5222 75.8448 56.5386 72.3994 52.4722 73.2182C50.7299 75.6298 49.78 78.5231 49.7536 81.4982C49.6984 85.9924 50.9864 90.482 53.8062 93.9964C54.0577 94.303 54.3199 94.6097 54.5928 94.9164C57.0684 97.5491 60.2853 99.3678 63.8174 100.132C67.3496 100.896 71.0305 100.569 74.3728 99.1944C78.2368 97.5476 85.1 93.1868 83.6096 88.0808C83.6004 88.0026 83.5682 87.9336 83.5452 87.86Z" fill="#FCC62D"/>
<path d="M42.8122 33.1936L43.1618 52.4722C43.1662 52.6765 43.222 52.8764 43.3242 53.0534C43.4264 53.2304 43.5716 53.3788 43.7463 53.4848C43.9211 53.5907 44.1198 53.6508 44.324 53.6596C44.5282 53.6683 44.7312 53.6254 44.9144 53.5348L61.295 45.3744C61.5666 45.2388 61.7942 45.0289 61.9513 44.7692C62.1084 44.5095 62.1887 44.2105 62.1828 43.907L61.8332 24.6192C61.8316 24.3959 61.7729 24.1767 61.6627 23.9824C61.5526 23.7882 61.3947 23.6253 61.2039 23.5091C61.0132 23.393 60.7959 23.3276 60.5728 23.319C60.3496 23.3104 60.128 23.3589 59.9288 23.46L43.7 31.74C43.4306 31.8746 43.2045 32.0823 43.0475 32.3393C42.8905 32.5964 42.809 32.8924 42.8122 33.1936Z" fill="#232742"/>
<path opacity="0.3" d="M59.34 36.1146C56.2212 36.9978 57.3022 40.48 55.062 42.32C52.3342 44.5602 51.3038 38.18 47.955 38.6032C43.9392 39.0632 43.1618 52.4952 43.1618 52.4952C43.7966 54.0178 44.9144 53.5578 44.9144 53.5578L62.2058 44.942L62.0724 37.5222C61.3456 36.6574 60.4486 36.0042 59.34 36.1146Z" fill="#053855"/>
<defs>
<linearGradient id="paint0_linear" x1="82.6298" y1="98.4906" x2="91.3238" y2="84.6492" gradientUnits="userSpaceOnUse">
<stop stop-color="#FF8E31"/>
<stop offset="1" stop-color="#ED6B21"/>
</linearGradient>
<linearGradient id="paint1_linear" x1="4227.11" y1="5175.53" x2="4623.58" y2="4428.88" gradientUnits="userSpaceOnUse">
<stop stop-color="#FF8E31"/>
<stop offset="1" stop-color="#ED6B21"/>
</linearGradient>
</defs>
</svg>
